<svg preserveAspectRatio="none" width="100%" height="100%" overflow="visible" style="display: block;" viewBox="0 0 11.8066 19.6902" fill="none" xmlns="http://www.w3.org/2000/svg">
<g id="Group 5">
<path id="Vector" fill-rule="evenodd" clip-rule="evenodd" d="M6.38765 19.4999C6.32332 19.5602 6.24694 19.6081 6.16286 19.6407C6.07877 19.6734 5.98865 19.6902 5.89763 19.6902C5.80661 19.6902 5.71648 19.6734 5.6324 19.6407C5.54832 19.6081 5.47193 19.5602 5.40761 19.4999L0.209675 14.6282C0.143892 14.5682 0.0914833 14.4965 0.0554921 14.4174C0.0195008 14.3383 0.000644043 14.2533 1.62117e-05 14.1673C-0.00061162 14.0813 0.017002 13.9961 0.0518348 13.9165C0.0866676 13.8369 0.138025 13.7646 0.202927 13.7038C0.267828 13.643 0.344981 13.5949 0.429905 13.5622C0.514828 13.5295 0.605832 13.513 0.697632 13.5136C0.789433 13.5141 0.880201 13.5317 0.964669 13.5654C1.04914 13.5991 1.12562 13.6482 1.18968 13.7098L5.89759 18.1222L10.6055 13.7098C10.6695 13.6481 10.746 13.5989 10.8305 13.5651C10.915 13.5313 11.0058 13.5136 11.0977 13.513C11.1896 13.5124 11.2807 13.5289 11.3657 13.5616C11.4506 13.5943 11.5279 13.6424 11.5928 13.7033C11.6578 13.7641 11.7092 13.8365 11.744 13.9161C11.7788 13.9958 11.7964 14.0811 11.7958 14.1671C11.7951 14.2532 11.7762 14.3383 11.7401 14.4174C11.704 14.4966 11.6515 14.5682 11.5856 14.6282L6.38765 19.4999Z" fill="var(--fill-0, white)"/>
<path id="Vector_2" fill-rule="evenodd" clip-rule="evenodd" d="M5.41893 0.190325C5.48326 0.129998 5.55964 0.0821392 5.64372 0.0494863C5.72781 0.0168333 5.81793 2.70415e-05 5.90895 2.70489e-05C5.99997 2.70564e-05 6.0901 0.0168334 6.17418 0.0494863C6.25826 0.0821393 6.33465 0.129998 6.39897 0.190325L11.5969 5.06205C11.6627 5.12203 11.7151 5.19366 11.7511 5.27277C11.7871 5.35188 11.8059 5.4369 11.8066 5.5229C11.8072 5.60889 11.7896 5.69415 11.7547 5.77372C11.7199 5.85328 11.6686 5.92557 11.6037 5.98639C11.5388 6.04722 11.4616 6.09535 11.3767 6.12801C11.2918 6.16068 11.2007 6.17721 11.1089 6.17665C11.0171 6.1761 10.9264 6.15847 10.8419 6.12478C10.7574 6.0911 10.681 6.04203 10.6169 5.98043L5.90899 1.56803L1.20107 5.98043C1.13704 6.04214 1.06055 6.09131 0.976053 6.12509C0.891555 6.15886 0.800733 6.17657 0.708866 6.17717C0.616999 6.17777 0.525921 6.16127 0.440925 6.12861C0.35593 6.09594 0.278712 6.04778 0.213761 5.98692C0.14881 5.92606 0.0974219 5.85371 0.0625834 5.77408C0.027745 5.69445 0.0101516 5.60912 0.0108253 5.52306C0.011499 5.43701 0.0304269 5.35193 0.0665083 5.27279C0.10259 5.19365 0.155105 5.12201 0.221002 5.06205L5.41893 0.190325Z" fill="var(--fill-0, white)"/>
</g>
</svg>
