<svg preserveAspectRatio="none" width="100%" height="100%" overflow="visible" style="display: block;" viewBox="0 0 28.18 23.982" fill="none" xmlns="http://www.w3.org/2000/svg">
<g id="Frame 13">
<rect width="28.18" height="23.982" rx="3" fill="var(--fill-0, white)" fill-opacity="0.1"/>
<rect x="0.25" y="0.25" width="27.68" height="23.482" rx="2.75" stroke="var(--stroke-0, white)" stroke-opacity="0.05" stroke-width="0.5"/>
<path id="Vector" fill-rule="evenodd" clip-rule="evenodd" d="M16.0512 11.6596C16.0921 11.7031 16.1244 11.7548 16.1465 11.8117C16.1686 11.8686 16.18 11.9296 16.18 11.9912C16.18 12.0528 16.1686 12.1138 16.1465 12.1707C16.1244 12.2276 16.0921 12.2793 16.0512 12.3228L12.7546 15.8402C12.714 15.8847 12.6655 15.9201 12.612 15.9445C12.5585 15.9688 12.5009 15.9816 12.4427 15.982C12.3846 15.9825 12.3269 15.9705 12.273 15.947C12.2192 15.9234 12.1703 15.8886 12.1291 15.8447C12.088 15.8008 12.0554 15.7486 12.0333 15.6911C12.0112 15.6337 12 15.5721 12.0004 15.51C12.0007 15.4478 12.0127 15.3864 12.0355 15.3293C12.0583 15.2721 12.0915 15.2203 12.1331 15.177L15.119 11.9912L12.1331 8.80544C12.0914 8.76211 12.0581 8.71035 12.0353 8.65317C12.0124 8.59599 12.0004 8.53453 12 8.47237C11.9996 8.4102 12.0108 8.34857 12.0329 8.29105C12.055 8.23354 12.0876 8.18129 12.1288 8.13734C12.1699 8.09338 12.2189 8.05861 12.2728 8.03504C12.3267 8.01146 12.3844 7.99956 12.4426 8.00001C12.5009 8.00047 12.5584 8.01328 12.612 8.03769C12.6655 8.06211 12.714 8.09764 12.7546 8.14224L16.0512 11.6596Z" fill="var(--fill-0, white)"/>
</g>
</svg>
