<svg preserveAspectRatio="none" width="100%" height="100%" overflow="visible" style="display: block;" viewBox="0 0 8.1575 15.6959" fill="none" xmlns="http://www.w3.org/2000/svg">
<g id="carets">
<path id="Vector" fill-rule="evenodd" clip-rule="evenodd" d="M4.49789 15.5671C4.45436 15.6079 4.40268 15.6403 4.34578 15.6624C4.28888 15.6845 4.22789 15.6958 4.1663 15.6958C4.10471 15.6958 4.04372 15.6845 3.98683 15.6624C3.92993 15.6403 3.87824 15.6079 3.83471 15.5671L0.317343 12.2704C0.272828 12.2299 0.237364 12.1814 0.213009 12.1279C0.188654 12.0743 0.175894 12.0168 0.175469 11.9586C0.175045 11.9004 0.186964 11.8427 0.210534 11.7889C0.234105 11.735 0.268858 11.6861 0.312776 11.645C0.356694 11.6038 0.408902 11.5712 0.466369 11.5491C0.523836 11.527 0.585417 11.5158 0.647537 11.5162C0.709657 11.5166 0.771079 11.5285 0.828237 11.5513C0.885394 11.5741 0.937149 11.6073 0.980497 11.649L4.16628 14.6348L7.35206 11.649C7.39539 11.6072 7.44715 11.574 7.50433 11.5511C7.56151 11.5282 7.62296 11.5163 7.68513 11.5159C7.74729 11.5155 7.80893 11.5266 7.86644 11.5487C7.92396 11.5708 7.97621 11.6034 8.02016 11.6446C8.06411 11.6858 8.09889 11.7347 8.12246 11.7886C8.14603 11.8425 8.15794 11.9003 8.15748 11.9585C8.15703 12.0167 8.14422 12.0743 8.1198 12.1278C8.09539 12.1814 8.05985 12.2299 8.01526 12.2704L4.49789 15.5671Z" fill="var(--fill-0, white)"/>
<path id="Vector_2" fill-rule="evenodd" clip-rule="evenodd" d="M3.65961 0.128772C3.70313 0.0879496 3.75482 0.0555644 3.81172 0.0334686C3.86861 0.0113728 3.9296 1.90343e-07 3.9912 1.95387e-07C4.05279 2.00432e-07 4.11378 0.0113728 4.17067 0.0334686C4.22757 0.0555644 4.27926 0.0879497 4.32278 0.128772L7.84015 3.4254C7.88467 3.46599 7.92013 3.51446 7.94449 3.56799C7.96884 3.62153 7.9816 3.67906 7.98203 3.73725C7.98245 3.79544 7.97053 3.85314 7.94696 3.90698C7.92339 3.96082 7.88864 4.00974 7.84472 4.05089C7.8008 4.09205 7.74859 4.12462 7.69113 4.14673C7.63366 4.16883 7.57208 4.18002 7.50996 4.17964C7.44784 4.17926 7.38642 4.16733 7.32926 4.14454C7.2721 4.12175 7.22035 4.08854 7.177 4.04686L3.99122 1.06105L0.805436 4.04686C0.762106 4.08862 0.710348 4.12189 0.653169 4.14475C0.59599 4.1676 0.534532 4.17958 0.472367 4.17999C0.410202 4.1804 0.348571 4.16923 0.291055 4.14713C0.23354 4.12502 0.181288 4.09243 0.137336 4.05125C0.0933852 4.01006 0.0586113 3.96111 0.0350366 3.90722C0.0114619 3.85334 -0.000443274 3.7956 1.26146e-05 3.73736C0.000468503 3.67913 0.0132767 3.62156 0.0376925 3.56801C0.0621084 3.51445 0.0976447 3.46598 0.142236 3.4254L3.65961 0.128772Z" fill="var(--fill-0, white)"/>
</g>
</svg>
