<svg preserveAspectRatio="none" width="100%" height="100%" overflow="visible" style="display: block;" viewBox="0 0 28.18 23.982" fill="none" xmlns="http://www.w3.org/2000/svg">
<g id="Left Caret">
<path id="Vector" fill-rule="evenodd" clip-rule="evenodd" d="M12.1288 12.3224C12.0879 12.2789 12.0556 12.2272 12.0335 12.1703C12.0114 12.1134 12 12.0524 12 11.9908C12 11.9293 12.0114 11.8683 12.0335 11.8114C12.0556 11.7545 12.0879 11.7028 12.1288 11.6593L15.4254 8.14188C15.466 8.09737 15.5145 8.06191 15.568 8.03755C15.6215 8.0132 15.6791 8.00044 15.7373 8.00001C15.7954 7.99959 15.8531 8.01151 15.907 8.03508C15.9608 8.05865 16.0097 8.0934 16.0509 8.13732C16.0921 8.18124 16.1246 8.23344 16.1467 8.29091C16.1688 8.34838 16.18 8.40996 16.1796 8.47208C16.1793 8.5342 16.1673 8.59562 16.1445 8.65278C16.1217 8.70994 16.0885 8.76169 16.0469 8.80504L13.061 11.9908L16.0469 15.1766C16.0886 15.2199 16.1219 15.2717 16.1447 15.3289C16.1676 15.386 16.1796 15.4475 16.18 15.5097C16.1804 15.5718 16.1692 15.6335 16.1471 15.691C16.125 15.7485 16.0924 15.8008 16.0512 15.8447C16.0101 15.8887 15.9611 15.9234 15.9072 15.947C15.8533 15.9706 15.7956 15.9825 15.7374 15.982C15.6791 15.9816 15.6216 15.9688 15.568 15.9443C15.5145 15.9199 15.466 15.8844 15.4254 15.8398L12.1288 12.3224Z" fill="var(--fill-0, white)" fill-opacity="0.5"/>
</g>
</svg>
