<svg width="96" height="29" viewBox="0 0 96 29" fill="none" xmlns="http://www.w3.org/2000/svg">
<path d="M7.344 12.29C8.838 12.272 9.882 11.588 10.494 10.238L12.222 11.246C11.286 13.064 9.594 14.162 7.344 14.162C5.544 14.162 4.086 13.532 2.952 12.272C1.818 11.012 1.26 9.464 1.26 7.61C1.26 5.756 1.818 4.208 2.952 2.948C4.086 1.688 5.544 1.058 7.344 1.058C9.594 1.058 11.286 2.174 12.222 3.992L10.494 5C9.882 3.632 8.838 2.948 7.344 2.948C6.12 2.948 5.148 3.398 4.428 4.28C3.708 5.162 3.348 6.278 3.348 7.61C3.348 8.942 3.708 10.058 4.428 10.94C5.148 11.822 6.12 12.272 7.344 12.29ZM21.3678 13.676V14H19.9278C19.4958 14 19.2798 13.694 19.2798 13.1C18.5598 13.82 17.9658 14.162 16.6698 14.162C14.6538 14.162 13.1598 13.19 13.1598 11.228C13.2318 9.59 13.8978 8.798 15.1578 8.474C16.0398 8.204 16.6698 8.168 17.8038 8.114C18.7578 8.078 19.2258 7.772 19.2258 7.196C19.2258 6.548 18.4698 5.954 17.3898 5.954C16.3458 5.954 15.5538 6.332 15.0138 7.088L13.7358 5.972C14.5458 4.892 15.8958 4.316 17.3898 4.316C19.6398 4.316 21.0618 5.558 21.0618 7.844V13.298C21.0618 13.55 21.1698 13.676 21.3678 13.676ZM16.6698 12.596C17.7318 12.596 18.4338 12.344 18.7758 11.858C19.1178 11.372 19.2978 10.652 19.2978 9.734V9.194C19.0998 9.464 18.5778 9.59 18.2718 9.644C18.1278 9.662 17.8938 9.662 17.5698 9.68C17.2638 9.698 17.0838 9.698 17.0658 9.698C15.7698 9.752 15.1218 10.274 15.1218 11.228C15.1218 11.858 15.5718 12.596 16.6698 12.596ZM27.7695 4.316C27.9495 4.316 28.1835 4.334 28.4715 4.388V6.08C28.3095 6.026 28.0755 6.008 27.7695 6.008C26.8695 6.008 26.1315 6.332 25.5555 6.998C24.9795 7.646 24.6915 8.744 24.6915 10.292V14H22.7475V4.478H24.6915L25.1235 5.576C25.9515 4.73 26.8335 4.316 27.7695 4.316ZM33.0891 10.976C33.0891 12.002 33.5571 12.38 34.4751 12.38C34.8531 12.38 35.2491 12.326 35.4111 12.308L35.5191 12.272V13.946C34.6551 14.09 33.9891 14.162 33.5211 14.162C31.9191 14.162 31.1451 13.424 31.1451 11.138V6.188H29.3451V4.478H31.1451V1.22H33.0891V4.478H35.5191V6.188H33.0891V10.976ZM45.6975 9.068V9.968H38.3535C38.5515 11.624 39.4335 12.416 41.1615 12.416C42.4215 12.416 43.3035 11.966 43.8255 11.084L45.2835 11.948C44.5095 13.262 42.9615 14.162 41.1615 14.162C39.7035 14.162 38.5515 13.73 37.7055 12.848C36.8595 11.966 36.4455 10.76 36.4455 9.248C36.4455 7.808 36.8775 6.62 37.7235 5.702C38.5875 4.784 39.7395 4.316 41.1615 4.316C42.5115 4.316 43.5915 4.748 44.4015 5.63C45.2115 6.494 45.6435 7.646 45.6975 9.068ZM38.4075 8.222H43.9155C43.6815 6.854 42.6015 6.008 41.1615 6.008C39.7755 6.008 38.7135 6.8 38.4075 8.222ZM52.5364 4.316C52.7164 4.316 52.9504 4.334 53.2384 4.388V6.08C53.0764 6.026 52.8424 6.008 52.5364 6.008C51.6364 6.008 50.8984 6.332 50.3224 6.998C49.7464 7.646 49.4584 8.744 49.4584 10.292V14H47.5144V4.478H49.4584L49.8904 5.576C50.7184 4.73 51.6004 4.316 52.5364 4.316ZM55.1284 5.702C55.9744 4.784 57.1084 4.316 58.4944 4.316C59.5564 4.316 60.4564 4.766 61.1764 5.648V1.22H63.1384V14H61.1764L60.8524 13.172C60.1684 13.838 59.3764 14.162 58.4944 14.162C57.1084 14.162 55.9924 13.694 55.1104 12.758C54.1924 11.768 53.7424 10.598 53.7424 9.23C53.7424 7.862 54.2104 6.692 55.1284 5.702ZM58.4944 12.416C59.2504 12.416 59.9164 12.11 60.4924 11.498C61.0324 10.922 61.3024 10.166 61.3024 9.23C61.3024 8.312 61.0324 7.556 60.5104 6.962C59.9704 6.368 59.3044 6.062 58.4944 6.062C57.6484 6.062 56.9824 6.386 56.4604 7.034C55.9564 7.664 55.7044 8.402 55.7044 9.23C55.7044 10.076 55.9564 10.832 56.4784 11.462C57.0004 12.092 57.6844 12.416 58.4944 12.416ZM74.2092 9.068V9.968H66.8652C67.0632 11.624 67.9452 12.416 69.6732 12.416C70.9332 12.416 71.8152 11.966 72.3372 11.084L73.7952 11.948C73.0212 13.262 71.4732 14.162 69.6732 14.162C68.2152 14.162 67.0632 13.73 66.2172 12.848C65.3712 11.966 64.9572 10.76 64.9572 9.248C64.9572 7.808 65.3892 6.62 66.2352 5.702C67.0992 4.784 68.2512 4.316 69.6732 4.316C71.0232 4.316 72.1032 4.748 72.9132 5.63C73.7232 6.494 74.1552 7.646 74.2092 9.068ZM66.9192 8.222H72.4272C72.1932 6.854 71.1132 6.008 69.6732 6.008C68.2872 6.008 67.2252 6.8 66.9192 8.222ZM83.7301 13.676V14H82.2901C81.8581 14 81.6421 13.694 81.6421 13.1C80.9221 13.82 80.3281 14.162 79.0321 14.162C77.0161 14.162 75.5221 13.19 75.5221 11.228C75.5941 9.59 76.2601 8.798 77.5201 8.474C78.4021 8.204 79.0321 8.168 80.1661 8.114C81.1201 8.078 81.5881 7.772 81.5881 7.196C81.5881 6.548 80.8321 5.954 79.7521 5.954C78.7081 5.954 77.9161 6.332 77.3761 7.088L76.0981 5.972C76.9081 4.892 78.2581 4.316 79.7521 4.316C82.0021 4.316 83.4241 5.558 83.4241 7.844V13.298C83.4241 13.55 83.5321 13.676 83.7301 13.676ZM79.0321 12.596C80.0941 12.596 80.7961 12.344 81.1381 11.858C81.4801 11.372 81.6601 10.652 81.6601 9.734V9.194C81.4621 9.464 80.9401 9.59 80.6341 9.644C80.4901 9.662 80.2561 9.662 79.9321 9.68C79.6261 9.698 79.4461 9.698 79.4281 9.698C78.1321 9.752 77.4841 10.274 77.4841 11.228C77.4841 11.858 77.9341 12.596 79.0321 12.596Z" fill="white"/>
<path d="M3.135 27H1.49V22.03H3.135C3.828 22.03 4.402 22.268 4.85 22.737C5.305 23.206 5.529 23.794 5.529 24.515C5.529 25.236 5.305 25.831 4.857 26.3C4.409 26.769 3.835 27 3.135 27ZM2.295 26.272H3.135C3.618 26.272 4.003 26.111 4.29 25.789C4.577 25.46 4.724 25.04 4.724 24.515C4.724 23.99 4.577 23.57 4.29 23.248C4.003 22.919 3.618 22.758 3.135 22.758H2.295V26.272ZM6.14347 27V23.297H6.90647V27H6.14347ZM6.93447 22.03V22.856H6.11547V22.03H6.93447ZM11.1 23.297V26.51C11.1 27.763 10.421 28.323 9.32896 28.323C8.53796 28.323 7.95696 28.148 7.58596 27.791L8.07596 27.217C8.37696 27.504 8.78996 27.651 9.31496 27.651C10.015 27.651 10.337 27.294 10.337 26.51C10.176 26.853 9.80496 27.091 9.29396 27.091C8.77596 27.091 8.36296 26.902 8.04796 26.524C7.73996 26.139 7.58596 25.684 7.58596 25.152C7.58596 24.641 7.74696 24.193 8.06896 23.808C8.39096 23.423 8.81796 23.234 9.34996 23.234C9.67896 23.234 9.97296 23.346 10.232 23.577L10.337 23.297H11.1ZM9.34996 26.412C9.67196 26.412 9.92396 26.293 10.113 26.048C10.302 25.803 10.393 25.509 10.393 25.152C10.393 24.809 10.302 24.522 10.113 24.277C9.92396 24.032 9.67196 23.913 9.34996 23.913C8.64996 23.913 8.34896 24.445 8.34896 25.152C8.34896 25.495 8.42596 25.789 8.58696 26.041C8.74796 26.286 9.00696 26.412 9.34996 26.412ZM11.9371 27V23.297H12.7001V27H11.9371ZM12.7281 22.03V22.856H11.9091V22.03H12.7281ZM14.5486 25.824C14.5486 26.223 14.7306 26.37 15.0876 26.37C15.2346 26.37 15.3886 26.349 15.4516 26.342L15.4936 26.328V26.979C15.1576 27.035 14.8986 27.063 14.7166 27.063C14.0936 27.063 13.7926 26.776 13.7926 25.887V23.962H13.0926V23.297H13.7926V22.03H14.5486V23.297H15.4936V23.962H14.5486V25.824ZM18.9828 26.874V27H18.4228C18.2548 27 18.1708 26.881 18.1708 26.65C17.8908 26.93 17.6598 27.063 17.1558 27.063C16.3718 27.063 15.7908 26.685 15.7908 25.922C15.8188 25.285 16.0778 24.977 16.5678 24.851C16.9108 24.746 17.1558 24.732 17.5968 24.711C17.9678 24.697 18.1498 24.578 18.1498 24.354C18.1498 24.102 17.8558 23.871 17.4358 23.871C17.0298 23.871 16.7218 24.018 16.5118 24.312L16.0148 23.878C16.3298 23.458 16.8548 23.234 17.4358 23.234C18.3108 23.234 18.8638 23.717 18.8638 24.606V26.727C18.8638 26.825 18.9058 26.874 18.9828 26.874ZM17.1558 26.454C17.5688 26.454 17.8418 26.356 17.9748 26.167C18.1078 25.978 18.1778 25.698 18.1778 25.341V25.131C18.1008 25.236 17.8978 25.285 17.7788 25.306C17.7228 25.313 17.6318 25.313 17.5058 25.32C17.3868 25.327 17.3168 25.327 17.3098 25.327C16.8058 25.348 16.5538 25.551 16.5538 25.922C16.5538 26.167 16.7288 26.454 17.1558 26.454ZM20.2824 27H19.5194V22.03H20.2824V27ZM24.7303 27H23.0853V22.03H24.7303C25.4233 22.03 25.9973 22.268 26.4453 22.737C26.9003 23.206 27.1243 23.794 27.1243 24.515C27.1243 25.236 26.9003 25.831 26.4523 26.3C26.0043 26.769 25.4303 27 24.7303 27ZM23.8903 26.272H24.7303C25.2133 26.272 25.5983 26.111 25.8853 25.789C26.1723 25.46 26.3193 25.04 26.3193 24.515C26.3193 23.99 26.1723 23.57 25.8853 23.248C25.5983 22.919 25.2133 22.758 24.7303 22.758H23.8903V26.272ZM31.1057 25.082V25.432H28.2497C28.3267 26.076 28.6697 26.384 29.3417 26.384C29.8317 26.384 30.1747 26.209 30.3777 25.866L30.9447 26.202C30.6437 26.713 30.0417 27.063 29.3417 27.063C28.7747 27.063 28.3267 26.895 27.9977 26.552C27.6687 26.209 27.5077 25.74 27.5077 25.152C27.5077 24.592 27.6757 24.13 28.0047 23.773C28.3407 23.416 28.7887 23.234 29.3417 23.234C29.8667 23.234 30.2867 23.402 30.6017 23.745C30.9167 24.081 31.0847 24.529 31.1057 25.082ZM28.2707 24.753H30.4127C30.3217 24.221 29.9017 23.892 29.3417 23.892C28.8027 23.892 28.3897 24.2 28.2707 24.753ZM32.1973 24.319C32.1973 24.774 33.0233 24.795 33.6813 24.97C34.1293 25.082 34.4863 25.397 34.4863 25.929C34.4863 26.307 34.3463 26.594 34.0733 26.783C33.8003 26.972 33.4573 27.063 33.0583 27.063C32.3303 27.063 31.9173 26.832 31.6793 26.594C31.5043 26.419 31.4553 26.321 31.4063 26.209L32.0013 25.999C32.2043 26.272 32.5613 26.405 33.0723 26.405C33.3733 26.419 33.7583 26.328 33.7793 25.971C33.7793 25.222 31.5183 25.796 31.5183 24.319C31.5183 23.955 31.6583 23.682 31.9313 23.507C32.2043 23.325 32.5333 23.234 32.9113 23.234C33.1703 23.234 33.4153 23.276 33.6393 23.36C33.8703 23.444 34.0243 23.521 34.1153 23.591C34.2063 23.661 34.2693 23.724 34.3043 23.773L33.8353 24.193C33.6323 23.99 33.3243 23.892 32.9113 23.892C32.4423 23.892 32.2043 24.032 32.1973 24.319ZM35.1319 27V23.297H35.8949V27H35.1319ZM35.9229 22.03V22.856H35.1039V22.03H35.9229ZM40.0884 23.297V26.51C40.0884 27.763 39.4094 28.323 38.3174 28.323C37.5264 28.323 36.9454 28.148 36.5744 27.791L37.0644 27.217C37.3654 27.504 37.7784 27.651 38.3034 27.651C39.0034 27.651 39.3254 27.294 39.3254 26.51C39.1644 26.853 38.7934 27.091 38.2824 27.091C37.7644 27.091 37.3514 26.902 37.0364 26.524C36.7284 26.139 36.5744 25.684 36.5744 25.152C36.5744 24.641 36.7354 24.193 37.0574 23.808C37.3794 23.423 37.8064 23.234 38.3384 23.234C38.6674 23.234 38.9614 23.346 39.2204 23.577L39.3254 23.297H40.0884ZM38.3384 26.412C38.6604 26.412 38.9124 26.293 39.1014 26.048C39.2904 25.803 39.3814 25.509 39.3814 25.152C39.3814 24.809 39.2904 24.522 39.1014 24.277C38.9124 24.032 38.6604 23.913 38.3384 23.913C37.6384 23.913 37.3374 24.445 37.3374 25.152C37.3374 25.495 37.4144 25.789 37.5754 26.041C37.7364 26.286 37.9954 26.412 38.3384 26.412ZM44.2225 24.69V27H43.4595V24.739C43.4595 24.116 43.1585 23.892 42.8155 23.892C42.0455 23.892 41.6605 24.417 41.6605 25.474V27H40.8975V23.297H41.6605L41.8145 23.668C42.1225 23.381 42.4725 23.234 42.8575 23.234C43.7675 23.234 44.2225 23.717 44.2225 24.69ZM50.1427 24.739L50.6607 25.292C50.5417 25.523 50.3807 25.747 50.1847 25.964L51.1577 27H50.1217L49.7227 26.531C49.5757 26.678 49.3727 26.804 49.0997 26.909C48.8267 27.014 48.5677 27.063 48.3157 27.063C47.6087 27.063 46.6147 26.685 46.6147 25.572C46.6147 25.005 46.9787 24.508 47.6017 24.207C47.3847 23.962 47.3077 23.864 47.1747 23.591C47.1117 23.451 47.0837 23.318 47.0837 23.185C47.0837 22.457 47.5807 21.967 48.4417 21.967C48.7987 21.967 49.0997 22.079 49.3307 22.303C49.5617 22.527 49.6807 22.821 49.6807 23.185C49.6807 23.696 49.3867 24.116 48.7917 24.459L49.6807 25.411C49.8347 25.236 49.9887 25.012 50.1427 24.739ZM48.3507 22.695C48.0427 22.695 47.8537 22.912 47.8537 23.185C47.8537 23.402 48.0077 23.654 48.3087 23.948C48.7007 23.724 48.8967 23.472 48.8967 23.185C48.8967 22.884 48.7707 22.695 48.3507 22.695ZM47.4967 25.964C47.6577 26.23 47.9377 26.363 48.3227 26.363C48.7077 26.363 49.0017 26.237 49.2187 25.985L48.1127 24.76C47.6927 24.907 47.3777 25.222 47.3777 25.579C47.3777 25.712 47.4197 25.838 47.4967 25.964ZM55.1149 27H53.4699V22.03H55.1149C55.8079 22.03 56.3819 22.268 56.8299 22.737C57.2849 23.206 57.5089 23.794 57.5089 24.515C57.5089 25.236 57.2849 25.831 56.8369 26.3C56.3889 26.769 55.8149 27 55.1149 27ZM54.2749 26.272H55.1149C55.5979 26.272 55.9829 26.111 56.2699 25.789C56.5569 25.46 56.7039 25.04 56.7039 24.515C56.7039 23.99 56.5569 23.57 56.2699 23.248C55.9829 22.919 55.5979 22.758 55.1149 22.758H54.2749V26.272ZM61.4904 25.082V25.432H58.6344C58.7114 26.076 59.0544 26.384 59.7264 26.384C60.2164 26.384 60.5594 26.209 60.7624 25.866L61.3294 26.202C61.0284 26.713 60.4264 27.063 59.7264 27.063C59.1594 27.063 58.7114 26.895 58.3824 26.552C58.0534 26.209 57.8924 25.74 57.8924 25.152C57.8924 24.592 58.0604 24.13 58.3894 23.773C58.7254 23.416 59.1734 23.234 59.7264 23.234C60.2514 23.234 60.6714 23.402 60.9864 23.745C61.3014 24.081 61.4694 24.529 61.4904 25.082ZM58.6554 24.753H60.7974C60.7064 24.221 60.2864 23.892 59.7264 23.892C59.1874 23.892 58.7744 24.2 58.6554 24.753ZM65.291 23.297L63.828 27H63.079L61.616 23.297H62.428L63.457 25.978L64.486 23.297H65.291ZM69.0135 25.082V25.432H66.1575C66.2345 26.076 66.5775 26.384 67.2495 26.384C67.7395 26.384 68.0825 26.209 68.2855 25.866L68.8525 26.202C68.5515 26.713 67.9495 27.063 67.2495 27.063C66.6825 27.063 66.2345 26.895 65.9055 26.552C65.5765 26.209 65.4155 25.74 65.4155 25.152C65.4155 24.592 65.5835 24.13 65.9125 23.773C66.2485 23.416 66.6965 23.234 67.2495 23.234C67.7745 23.234 68.1945 23.402 68.5095 23.745C68.8245 24.081 68.9925 24.529 69.0135 25.082ZM66.1785 24.753H68.3205C68.2295 24.221 67.8095 23.892 67.2495 23.892C66.7105 23.892 66.2975 24.2 66.1785 24.753ZM70.413 27H69.65V22.03H70.413V27ZM74.7338 25.152C74.7338 25.684 74.5588 26.139 74.2158 26.51C73.8728 26.881 73.4388 27.063 72.8998 27.063C72.3888 27.063 71.9478 26.874 71.5908 26.503C71.2338 26.132 71.0518 25.677 71.0518 25.152C71.0518 24.641 71.2268 24.2 71.5768 23.815C71.9268 23.43 72.3678 23.234 72.8998 23.234C73.4248 23.234 73.8658 23.43 74.2088 23.815C74.5588 24.2 74.7338 24.641 74.7338 25.152ZM72.8998 26.405C73.2218 26.405 73.4808 26.279 73.6768 26.034C73.8798 25.789 73.9778 25.495 73.9778 25.152C73.9778 24.809 73.8798 24.515 73.6908 24.27C73.5018 24.018 73.2358 23.892 72.8998 23.892C72.5708 23.892 72.3048 24.018 72.1018 24.263C71.9058 24.508 71.8078 24.802 71.8078 25.152C71.8078 25.495 71.9058 25.796 72.0948 26.041C72.2908 26.286 72.5568 26.405 72.8998 26.405ZM78.4834 26.517C78.1474 26.881 77.7134 27.063 77.1744 27.063C76.7614 27.063 76.4184 26.888 76.1314 26.538V28.26H75.3684V23.297H76.1314L76.2574 23.612C76.5164 23.36 76.8244 23.234 77.1744 23.234C77.7134 23.234 78.1544 23.416 78.4904 23.773C78.8474 24.158 79.0224 24.613 79.0224 25.145C79.0224 25.677 78.8404 26.132 78.4834 26.517ZM77.1744 23.913C76.8734 23.913 76.6144 24.032 76.3974 24.263C76.1874 24.487 76.0824 24.781 76.0824 25.145C76.0824 25.502 76.1874 25.796 76.3904 26.027C76.6074 26.265 76.8664 26.384 77.1744 26.384C77.5034 26.384 77.7624 26.258 77.9584 26.006C78.1614 25.754 78.2594 25.467 78.2594 25.145C78.2594 24.816 78.1544 24.529 77.9514 24.284C77.7484 24.039 77.4894 23.913 77.1744 23.913ZM84.8818 24.865V27H84.1188V24.781C84.1188 24.228 83.9788 23.913 83.4958 23.913C83.1598 23.913 82.9568 24.018 82.8098 24.494C82.7328 24.732 82.6978 25.061 82.6978 25.474V27H81.9348V24.865C81.9348 24.228 81.7248 23.913 81.3118 23.913C80.7168 23.913 80.4228 24.375 80.4228 25.306V27H79.6598V23.297H80.4158L80.5418 23.619C80.7798 23.36 81.0528 23.234 81.3538 23.234C81.8788 23.234 82.2498 23.423 82.4528 23.794C82.7678 23.381 83.2088 23.234 83.4958 23.234C83.8668 23.234 84.1748 23.325 84.3638 23.444C84.5598 23.563 84.6998 23.787 84.7628 23.955C84.8398 24.123 84.8748 24.417 84.8748 24.578C84.8818 24.655 84.8818 24.746 84.8818 24.865ZM89.0893 25.082V25.432H86.2333C86.3103 26.076 86.6533 26.384 87.3253 26.384C87.8153 26.384 88.1583 26.209 88.3613 25.866L88.9283 26.202C88.6273 26.713 88.0253 27.063 87.3253 27.063C86.7583 27.063 86.3103 26.895 85.9813 26.552C85.6523 26.209 85.4913 25.74 85.4913 25.152C85.4913 24.592 85.6593 24.13 85.9883 23.773C86.3243 23.416 86.7723 23.234 87.3253 23.234C87.8503 23.234 88.2703 23.402 88.5853 23.745C88.9003 24.081 89.0683 24.529 89.0893 25.082ZM86.2543 24.753H88.3963C88.3053 24.221 87.8853 23.892 87.3253 23.892C86.7863 23.892 86.3733 24.2 86.2543 24.753ZM93.0508 24.69V27H92.2878V24.739C92.2878 24.116 91.9868 23.892 91.6438 23.892C90.8738 23.892 90.4888 24.417 90.4888 25.474V27H89.7258V23.297H90.4888L90.6428 23.668C90.9508 23.381 91.3008 23.234 91.6858 23.234C92.5958 23.234 93.0508 23.717 93.0508 24.69ZM94.8399 25.824C94.8399 26.223 95.0219 26.37 95.3789 26.37C95.5259 26.37 95.6799 26.349 95.7429 26.342L95.7849 26.328V26.979C95.4489 27.035 95.1899 27.063 95.0079 27.063C94.3849 27.063 94.0839 26.776 94.0839 25.887V23.962H93.3839V23.297H94.0839V22.03H94.8399V23.297H95.7849V23.962H94.8399V25.824Z" fill="white" fill-opacity="0.7"/>
</svg>
