<svg preserveAspectRatio="none" width="100%" height="100%" overflow="visible" style="display: block;" viewBox="0 0 18 18" fill="none" xmlns="http://www.w3.org/2000/svg">
<g id="Frame 18">
<path id="Union" d="M13.6152 7.03981C14.4991 6.84271 15.3759 7.39925 15.5732 8.28297C15.5797 8.31196 15.5827 8.34191 15.5879 8.37086H16V8.87086H15.6152C15.5507 9.72823 14.9353 10.4787 14.0527 10.6756L12.3701 11.0515C11.2736 11.296 10.1859 10.6051 9.94141 9.50856L9.9082 9.36012C9.87135 9.19485 9.86585 9.02999 9.88477 8.87086H8.12402C8.14294 9.03001 8.13745 9.19483 8.10059 9.36012L8.06738 9.50856C7.82286 10.605 6.73613 11.296 5.63965 11.0515L3.95605 10.6756C3.07351 10.4787 2.45908 9.72818 2.39453 8.87086H2V8.37086H2.4209C2.42605 8.34188 2.42908 8.31199 2.43555 8.28297C2.63283 7.39919 3.50969 6.84271 4.39355 7.03981L6.99512 7.61989C7.4323 7.71738 7.77891 8.00238 7.9707 8.37086H10.0381C10.2298 8.00232 10.5765 7.71742 11.0137 7.61989L13.6152 7.03981Z" fill="var(--fill-0, white)"/>
</g>
</svg>
