<svg fill="none" height="16" viewBox="0 0 9 16" width="9" xmlns="http://www.w3.org/2000/svg"><g clip-rule="evenodd" fill="#fff" fill-rule="evenodd"><path d="m4.49791 15.5671c-.04353.0408-.09522.0732-.15211.0953-.0569.0221-.11789.0335-.17948.0335s-.12258-.0114-.17948-.0335c-.05689-.0221-.10858-.0545-.15211-.0953l-3.517369-3.2966c-.044515-.0406-.079979-.0891-.104334-.1426-.024355-.0536-.037115-.1111-.03754-.1693s.011494-.1159.035065-.1697.058324-.1028.102242-.1439c.043918-.0412.096126-.0738.153593-.0959.057466-.0221.119047-.0332.181167-.0329.062121.0004.123542.0123.1807.0351s.108913.056.15226.0977l3.185786 2.9858 3.18578-2.9858c.04333-.0417.09509-.075.15227-.0979.05717-.0228.11863-.0348.1808-.0352.06216-.0004.12379.0107.18131.0328.05751.0221.10977.0547.15372.0959s.07872.0902.1023.144c.02357.0539.03548.1117.03502.1699-.00045.0582-.01326.1158-.03768.1694-.02441.0535-.05995.102-.10454.1426z"/><path d="m3.65962.128765c.04353-.0408232.09522-.0732081.15212-.0953042.05689-.0220957.11788-.03346828.17947-.03346828.06159.00000001.12258.01137258.17948.03346828.0569.0220961.10859.054481.15211.0953042l3.51737 3.296625c.04452.04059.07998.08906.10434.1426.02435.05353.03711.11106.03753.16926.00043.05819-.01149.11588-.03506.16972s-.05832.10276-.10224.14392c-.04392.04115-.09613.07373-.15359.09583-.05747.0221-.11905.03329-.18117.03291-.06212-.00037-.12354-.0123-.1807-.0351-.05716-.02279-.10891-.05599-.15226-.09768l-3.18578-2.98581-3.185786 2.98581c-.04333.04176-.095089.07503-.152268.09789-.057178.02285-.118636.03483-.180801.03524s-.123797-.01076-.181312-.03286-.109768-.05469-.153719-.09588c-.0439511-.04118-.0787249-.09014-.1022998-.14403-.0235748-.05388-.03547998-.11162-.03502412-.16985.00045586-.05824.01326422-.1158.03768012-.16936.0244155-.05356.0599523-.10203.1045428-.14261z"/></g></svg>