<svg preserveAspectRatio="none" width="100%" height="100%" overflow="visible" style="display: block;" viewBox="0 0 189.301 24" fill="none" xmlns="http://www.w3.org/2000/svg">
<g id="Group 1">
<path id="Vector" d="M41.5167 4.0038H45.7845L45.8786 5.97011C47.4791 4.4861 48.5711 4.0038 51.3263 4.0038H58.9769C62.8242 4.0038 64.5627 5.75987 64.5627 9.14218V19.994H60.1568V10.4469C60.1568 8.09719 59.8116 7.75092 57.4895 7.75092H45.9226V19.994H41.5167V4.0038Z" fill="var(--fill-0, white)"/>
<path id="Vector_2" d="M66.1821 4.0038H87.7406V7.56542H70.5817V10.2614H87.7406V13.7302H70.5817V16.4262H87.7406V19.9878H66.1821V3.99761V4.0038Z" fill="var(--fill-0, white)"/>
<path id="Vector_3" d="M88.4371 4.0038H92.8681L97.1547 15.3132L101.466 4.0038H105.64L109.996 15.3998L114.376 4.0038H118.807L112.456 19.994H107.655L103.506 9.71723L99.4957 19.994H94.5814L88.4371 4.0038Z" fill="var(--fill-0, white)"/>
<path id="Vector_4" d="M124.374 4.0038H145.933V7.56542H128.774V10.2614H145.933V13.7302H128.774V16.4262H145.933V19.9878H124.374V3.99761V4.0038Z" fill="var(--fill-0, white)"/>
<path id="Vector_5" d="M147.558 4.0038H151.826L151.92 5.97011C153.521 4.4861 154.606 4.0038 157.368 4.0038H162.678V7.75092H151.964V19.994H147.558V4.0038Z" fill="var(--fill-0, white)"/>
<path id="Vector_6" d="M180.2 18.0277C178.6 19.5117 177.514 19.994 174.753 19.994H167.541C164.177 19.994 162.094 17.9597 162.094 14.8309C162.094 11.7021 164.159 9.87182 167.472 9.87182H180.156V9.57502C180.156 8.20231 179.391 7.74473 178.186 7.74473H163.625V3.99761H178.97C182.818 3.99761 184.556 5.75369 184.556 9.13599V19.9878H180.288L180.194 18.0215L180.2 18.0277ZM167.61 16.2221H180.15V13.4334H167.61C166.587 13.4334 166.079 14.0703 166.079 14.8247C166.079 15.5791 166.587 16.216 167.61 16.216V16.2221Z" fill="var(--fill-0, white)"/>
<path id="Vector_7" d="M185.51 18.1265C185.51 17.063 186.338 16.2592 187.405 16.2592C188.472 16.2592 189.301 17.0568 189.301 18.1265C189.301 19.1963 188.472 19.9939 187.405 19.9939C186.338 19.9939 185.51 19.1963 185.51 18.1265ZM187.405 19.6476C188.278 19.6476 188.949 18.9922 188.949 18.1265C188.949 17.2609 188.278 16.6054 187.405 16.6054C186.533 16.6054 185.861 17.2609 185.861 18.1265C185.861 18.9922 186.533 19.6476 187.405 19.6476ZM186.451 17.1743H187.763C188.146 17.1743 188.359 17.3783 188.359 17.7432C188.359 18.0276 188.246 18.1884 188.027 18.2502C188.202 18.2688 188.303 18.3553 188.303 18.5532V19.1035H187.744V18.5532C187.744 18.4728 187.7 18.4357 187.625 18.4357H187.016V19.1035H186.458V17.1805L186.451 17.1743ZM187.606 17.9967C187.719 17.9967 187.782 17.9163 187.782 17.805C187.782 17.6937 187.719 17.6133 187.606 17.6133H187.01V17.9905H187.606V17.9967Z" fill="var(--fill-0, white)"/>
<path id="Vector_8" d="M2.88722 22.6466C3.03785 23.7658 4.11107 24.2543 5.22822 23.8709C6.28261 23.4999 15.0315 20.099 16.4123 19.5734C18.2826 18.8623 19.3118 18.7387 19.6508 19.6044C20.1968 20.9894 21.8411 21.0574 23.7993 19.9568C25.5691 18.9675 32.975 14.7566 32.975 14.7566C32.975 14.7566 29.5608 9.44506 29.203 8.88856C28.6758 8.06617 28.0043 7.42309 26.5419 7.16339C25.5064 6.98407 17.498 5.56809 17.498 5.56809C17.0273 4.53547 15.7093 3.45337 13.7951 2.97725L1.93952 0.0586981C0.765888 -0.231921 -0.14415 0.590468 0.019029 1.77768C0.019029 1.77768 2.73032 21.5459 2.88094 22.6466M31.4938 14.3237C31.4938 14.3237 26.1968 16.6425 24.8348 17.2423C23.1591 17.9781 21.6717 17.8916 21.1445 16.6796C20.8997 16.1169 19.8139 16.1478 17.7428 16.7538L7.18009 19.7899L6.43951 16.2406C6.43951 16.2406 14.8935 14.7071 16.8391 14.3547C18.7909 13.996 20.0587 14.2063 20.5796 15.3997C20.7177 15.7088 20.7867 15.8696 20.7867 15.8696L30.6716 13.0191L31.4875 14.3361L31.4938 14.3237ZM29.2721 10.7621L30.0189 11.9617L22.8767 13.254L21.9102 11.2939L29.2721 10.7621ZM26.8369 8.22075C27.5147 8.29495 27.9415 8.61649 28.1612 8.97513C28.2239 9.08024 28.4624 9.45743 28.4624 9.45743L20.906 9.24101L20.0399 7.46638C20.0399 7.46638 26.2721 8.15892 26.8369 8.22075ZM8.02109 3.21221C8.02109 3.21221 8.39766 4.46744 8.42904 4.61584C8.44159 3.91712 9.08804 3.42245 9.91648 3.58322C10.7387 3.74399 12.0315 4.00369 12.565 4.10881C14.9248 4.57257 16.0294 4.98066 16.9018 6.97171L19.6696 13.3035C19.0671 12.9201 18.2763 12.7779 16.2742 13.0314L15.7847 13.0933C15.7847 13.0933 14.3851 9.34613 13.9709 8.23312C13.5504 7.11393 13.0545 6.42757 11.7052 6.2668C11.3286 6.22352 8.81816 5.92672 8.81816 5.92672L11.0901 13.6869L6.05039 14.3237L3.56504 2.34037L8.02737 3.2184L8.02109 3.21221Z" fill="var(--fill-0, white)"/>
</g>
</svg>
