<svg preserveAspectRatio="none" width="100%" height="100%" overflow="visible" style="display: block;" viewBox="0 0 147.576 14.9735" fill="none" xmlns="http://www.w3.org/2000/svg">
<g id="Group">
<path id="Vector" d="M7.65882 2.34308e-07C9.75882 2.34308e-07 11.3235 0.652797 12.7235 1.91759C12.9294 2.08079 12.9294 2.32559 12.7647 2.48879L11.1176 4.16158C10.9529 4.32478 10.7471 4.32478 10.5824 4.16158C9.8 3.46798 8.77059 3.10078 7.74118 3.10078C5.35294 3.10078 3.62353 5.05917 3.62353 7.38476C3.62353 9.71035 5.39412 11.5871 7.74118 11.5871C8.72941 11.5871 9.8 11.2199 10.5412 10.6079C10.7059 10.4855 10.9529 10.4855 11.0765 10.6487L12.7235 12.3623C12.8882 12.5255 12.8471 12.7703 12.6824 12.9335C11.2412 14.3207 9.47059 14.9327 7.57647 14.9327C3.37647 14.9327 0 11.6279 0 7.46636C0 3.30478 3.45882 2.34308e-07 7.65882 2.34308e-07Z" fill="var(--fill-0, white)"/>
<path id="Vector_2" d="M21.6588 0C25.8588 0 29.1941 3.34558 29.1941 7.50716C29.1941 11.6687 25.8588 14.9735 21.6588 14.9735C17.4588 14.9735 14.1235 11.6687 14.1235 7.50716C14.1235 3.34558 17.5 0 21.6588 0ZM21.6588 11.6687C23.9647 11.6687 25.8588 9.79194 25.8588 7.54796C25.8588 5.26317 23.9647 3.38638 21.6588 3.38638C19.3529 3.38638 17.5 5.26317 17.5 7.54796C17.5 9.79194 19.3941 11.6687 21.6588 11.6687Z" fill="var(--fill-0, white)"/>
<path id="Vector_3" d="M31.7471 0.611997C31.7471 0.407998 31.9118 0.203999 32.1176 0.203999H37.2235C41.2588 0.203999 44.5941 3.46798 44.5941 7.46636C44.5941 11.5055 41.3 14.7695 37.2235 14.7695H32.1176C31.9118 14.7695 31.7471 14.5655 31.7471 14.3615V0.611997ZM37.0588 11.7095C39.4471 11.7095 41.1353 9.87354 41.1353 7.50716C41.1353 5.14077 39.4059 3.30478 37.0588 3.30478H35.0412V11.7095H37.0588Z" fill="var(--fill-0, white)"/>
<path id="Vector_4" d="M47.1882 0.611997C47.1882 0.407998 47.3529 0.203999 47.6 0.203999H56.2882C56.5353 0.203999 56.7 0.407998 56.7 0.611997V2.89678C56.7 3.10078 56.5353 3.30478 56.2882 3.30478H50.4823V5.87517H55.2588C55.4647 5.87517 55.6706 6.07917 55.6706 6.28316V8.56795C55.6706 8.81275 55.4647 8.97595 55.2588 8.97595H50.4823V11.7911H56.2882C56.5353 11.7911 56.7 11.9951 56.7 12.1991V14.4839C56.7 14.6879 56.5353 14.8919 56.2882 14.8919H47.6C47.3529 14.8919 47.1882 14.6879 47.1882 14.4839V0.611997Z" fill="var(--fill-0, white)"/>
<path id="Vector_5" d="M70.6176 0C72.7176 0 74.2824 0.652796 75.6824 1.91759C75.8882 2.08079 75.8882 2.32559 75.7235 2.48879L74.0765 4.16158C73.9118 4.32478 73.7059 4.32478 73.5412 4.16158C72.7588 3.46798 71.7294 3.10078 70.7 3.10078C68.3118 3.10078 66.5824 5.05917 66.5824 7.38476C66.5824 9.71035 68.3529 11.5871 70.7 11.5871C71.6882 11.5871 72.7588 11.2199 73.5 10.6079C73.6647 10.4855 73.9118 10.4855 74.0353 10.6487L75.6824 12.3623C75.8471 12.5255 75.8059 12.7703 75.6412 12.9335C74.2 14.3207 72.4294 14.9327 70.5353 14.9327C66.3353 14.9327 62.9588 11.6279 62.9588 7.46636C62.9588 3.30478 66.4176 0 70.6176 0Z" fill="var(--fill-0, white)"/>
<path id="Vector_6" d="M78.1941 0.611997C78.1941 0.407998 78.3588 0.203999 78.6059 0.203999H81.1176C81.3235 0.203999 81.5294 0.407998 81.5294 0.611997V11.7095H86.5118C86.7588 11.7095 86.9235 11.9135 86.9235 12.1175V14.4023C86.9235 14.6063 86.7588 14.8103 86.5118 14.8103H78.6471C78.4 14.8103 78.2353 14.6063 78.2353 14.4023V0.611997H78.1941Z" fill="var(--fill-0, white)"/>
<path id="Vector_7" d="M88.9412 0.611997C88.9412 0.407998 89.1471 0.203999 89.3529 0.203999H91.8647C92.0706 0.203999 92.2765 0.407998 92.2765 0.611997V14.3615C92.2765 14.5655 92.0706 14.7695 91.8647 14.7695H89.3529C89.1471 14.7695 88.9412 14.5655 88.9412 14.3615V0.611997Z" fill="var(--fill-0, white)"/>
<path id="Vector_8" d="M97.3 0.367198C97.3412 0.163199 97.5059 0.0407998 97.6706 0.0407998H98C98.1235 0.0407998 98.2882 0.122399 98.3706 0.244799L103.229 9.22075H103.271L108.129 0.244799C108.212 0.122399 108.376 0.0407998 108.5 0.0407998H108.829C108.994 0.0407998 109.2 0.203999 109.2 0.367198L111.588 14.3207C111.629 14.6063 111.424 14.7695 111.176 14.7695H108.706C108.5 14.7695 108.335 14.6063 108.294 14.4431L107.347 8.03755H107.306L103.806 14.7287C103.724 14.8511 103.559 14.9735 103.435 14.9735H103.065C102.941 14.9735 102.776 14.8511 102.694 14.7287L99.1529 7.99675H99.1118L98.2059 14.4023C98.1647 14.5655 98 14.7287 97.7941 14.7287H95.3235C95.0765 14.7287 94.8706 14.5247 94.9118 14.2799L97.3 0.367198Z" fill="var(--fill-0, white)"/>
<path id="Vector_9" d="M112.371 14.2391L118.918 0.244799C119 0.122399 119.124 0 119.288 0H119.494C119.659 0 119.782 0.122399 119.865 0.244799L126.412 14.2391C126.535 14.5247 126.371 14.7695 126.041 14.7695H123.694C123.324 14.7695 123.159 14.6471 122.953 14.2391L122.212 12.6071H116.529L115.788 14.2799C115.665 14.5247 115.459 14.7695 115.047 14.7695H112.741C112.412 14.7695 112.247 14.4839 112.371 14.2391ZM120.976 9.79194L119.371 6.36476H119.329L117.765 9.79194H120.976Z" fill="var(--fill-0, white)"/>
<path id="Vector_10" d="M129.294 3.26398H126.288C126.041 3.26398 125.876 3.05998 125.876 2.85598V0.571197C125.876 0.367198 126.041 0.163199 126.288 0.163199H135.594C135.841 0.163199 136.006 0.367198 136.006 0.571197V2.89678C136.006 3.10078 135.841 3.30478 135.594 3.30478H132.588V14.4023C132.588 14.6063 132.382 14.8103 132.176 14.8103H129.665C129.459 14.8103 129.253 14.6063 129.253 14.4023V3.26398H129.294Z" fill="var(--fill-0, white)"/>
<path id="Vector_11" d="M138.065 0.611997C138.065 0.407998 138.229 0.203999 138.476 0.203999H147.165C147.412 0.203999 147.576 0.407998 147.576 0.611997V2.89678C147.576 3.10078 147.412 3.30478 147.165 3.30478H141.359V5.87517H146.135C146.341 5.87517 146.547 6.07917 146.547 6.28316V8.56795C146.547 8.81275 146.341 8.97595 146.135 8.97595H141.359V11.7911H147.165C147.412 11.7911 147.576 11.9951 147.576 12.1991V14.4839C147.576 14.6879 147.412 14.8919 147.165 14.8919H138.476C138.229 14.8919 138.065 14.6879 138.065 14.4839V0.611997Z" fill="var(--fill-0, white)"/>
</g>
</svg>
