<svg preserveAspectRatio="none" width="100%" height="100%" overflow="visible" style="display: block;" viewBox="0 0 144 52" fill="none" xmlns="http://www.w3.org/2000/svg">
<g id="g2317">
<path id="path2" d="M72 0C32.2196 0 0 11.6214 0 26.0005C0 40.3753 32.2218 52 72 52C111.783 52 144 40.3747 144 26.0005C144 11.6209 111.784 0 72 0Z" fill="var(--fill-0, black)"/>
<path id="path6" d="M72.3644 49.7196C34.0573 49.7196 3.00405 38.9833 3.00405 25.7384C3.00405 12.4919 34.0578 1.75616 72.3644 1.75616C110.668 1.75616 141.719 12.4913 141.719 25.7384C141.719 38.9828 110.667 49.7196 72.3644 49.7196ZM72.3644 3.83395C35.4032 3.83395 5.44233 13.6392 5.44233 25.7384C5.44233 37.8382 35.4021 47.6446 72.3644 47.6446C109.325 47.6446 139.281 37.8377 139.281 25.7384C139.281 13.6392 109.323 3.83395 72.3644 3.83395Z" fill="var(--fill-0, white)"/>
<path id="path8" d="M54.2717 7.7285C53.2874 7.73161 52.298 7.77004 51.302 7.85182C44.6865 8.40498 38.3897 12.1053 38.3783 17.7232C38.3712 20.5721 40.4099 22.8804 43.5687 22.7789C47.2806 22.6538 50.3278 19.6995 51.923 15.9748C52.5282 14.5616 51.4073 13.9746 50.8739 14.7882C49.9449 16.2096 48.6509 17.3531 47.1282 18.0983C45.3817 18.9479 43.5149 18.7187 42.9489 17.3098C42.1532 15.3221 43.8072 12.3478 47.5816 10.9482C53.0335 8.94307 58.7377 10.2695 64.2266 11.2939C64.3049 11.2939 64.5973 11.455 64.3388 11.5888C63.3558 12.1212 62.3881 12.5542 60.8805 13.8429C59.7996 14.7625 58.3846 15.9868 57.2901 17.3203C56.2037 18.6347 55.4337 19.807 54.4149 21.1066C54.2728 21.2945 54.098 21.2858 54.1001 21.2858C51.6167 21.7025 49.1855 21.9816 46.9595 23.5193C46.499 23.835 46.2992 24.3952 46.5784 24.8239C46.8293 25.2039 47.4032 25.2443 47.8016 24.9565C49.1845 23.9288 50.6083 23.445 52.2411 23.4002C52.3124 23.4046 52.3467 23.4161 52.3668 23.4598C52.3793 23.4844 52.3717 23.5361 52.3423 23.5744C49.8964 26.9452 49.2839 27.707 47.4438 29.7968C46.5028 30.8709 45.5771 31.7775 44.543 32.7211C40.3653 36.5769 35.8717 36.5103 34.2596 34.0928C33.2963 32.6419 33.4233 31.1188 34.0546 29.8552C34.8318 28.3077 36.4024 27.1734 37.7086 26.5111C38.1936 26.2653 38.333 25.6494 37.8476 25.088C37.539 24.7221 36.7905 24.6571 36.2332 24.7587C34.522 25.0727 32.5 26.3577 31.3054 27.9042C29.9589 29.6396 29.2863 31.7464 29.5121 34.1109C29.9176 38.3773 33.4537 40.8417 37.4682 40.8134C40.6625 40.7886 43.6714 39.827 47.2919 36.1759C50.6669 32.7706 53.7416 27.684 56.6207 22.9671C56.7111 22.8164 56.7752 22.7356 57.2127 22.6815C59.0186 22.4571 61.6851 22.2016 63.3941 22.1033C63.7739 22.0826 63.8511 22.0868 64.0035 22.2752C64.4487 22.8333 65.1175 23.3069 65.6531 23.5952C65.9143 23.7361 66.0385 23.8064 66.2437 23.8097C66.4968 23.8152 66.6937 23.6799 66.8211 23.5368C67.0023 23.3391 67.0524 23.0806 66.9544 22.914C66.8521 22.7393 65.6603 22.0831 65.6249 21.8177C65.5988 21.6523 65.781 21.6123 65.781 21.6123C66.6573 21.3393 67.5689 20.7774 68.1213 19.7262C68.6639 18.6914 68.7515 17.3103 67.7588 16.5426C66.8874 15.8682 65.5709 15.9746 64.5205 16.9111C63.4929 17.8203 63.1529 19.1431 63.2917 20.3024C63.3167 20.5034 63.3063 20.571 63.0304 20.5939C61.451 20.7195 59.9291 20.7631 58.2365 20.8521C58.1233 20.8603 58.0874 20.786 58.1532 20.7079C60.1022 17.3441 63.0123 14.9487 66.231 12.5897C66.4444 12.4308 66.3792 12.1286 66.3705 11.8763C72.1821 13.1307 77.7984 15.4652 83.8277 15.4155C86.321 15.3953 88.7079 15.0186 90.9895 13.7752C92.9961 12.6879 93.8104 11.6822 93.8703 10.637C93.9171 9.91454 93.4114 9.45787 92.6913 9.6135C86.5994 11.0038 80.7879 10.9884 74.727 10.26C67.8046 9.42525 61.1621 7.70684 54.2717 7.7285ZM66.4318 17.4772C66.5742 17.4847 66.7074 17.5322 66.8152 17.6239C67.1363 17.8964 66.9843 18.5763 66.6599 19.047C66.3056 19.5663 65.7047 20.0146 65.1566 20.1238C65.0467 20.144 64.9515 20.0971 64.9063 19.8551C64.8171 19.2146 65.0268 18.3568 65.7158 17.7523C65.9315 17.5629 66.1945 17.4646 66.4318 17.4772ZM115.335 17.5999C114.228 17.5999 112.775 17.6019 111.621 17.6019C111.346 17.6019 111.204 17.6352 111.074 17.8891C110.648 18.7001 105.457 26.4287 104.49 27.9299C104.328 28.1581 104.129 28.1263 104.106 27.8658C104.008 26.9746 103.234 25.9503 102.013 25.4599C101.082 25.0848 100.172 25.0171 99.2267 25.1416C97.5194 25.3693 95.9984 26.2649 94.6606 27.2735C92.6452 28.7965 90.9066 30.7681 88.6616 32.2262C87.4359 33.0196 85.758 33.7117 84.6352 32.6796C83.6191 31.7437 83.7333 29.6642 85.2882 28.0566C85.4521 27.8878 85.6486 28.0286 85.6176 28.1799C85.4706 28.9073 85.6514 29.6304 86.2071 30.1377C86.8852 30.7411 87.856 30.8099 88.6866 30.4069C89.6673 29.9247 90.2433 28.9924 90.4121 27.9341C90.6717 26.2932 89.3997 24.8457 87.8094 24.7299C86.5168 24.6398 85.2776 25.0865 84.0704 26.077C83.4647 26.5756 83.12 26.9447 82.597 27.6841C82.4691 27.8665 82.2732 27.885 82.2797 27.6158C82.3401 25.5151 81.4648 24.333 79.7161 24.2942C78.3598 24.2625 76.9096 24.993 75.7797 25.8885C74.541 26.8769 73.4579 28.1864 72.297 29.4173C72.1528 29.5691 72.0265 29.562 71.9862 29.2677C71.9509 27.8758 71.5986 26.5275 70.9498 25.5702C70.7207 25.2371 70.2379 25.0721 69.8319 25.2971C69.6446 25.3992 68.9922 25.697 68.5182 26.0765C68.2825 26.2692 68.1914 26.5482 68.2948 26.9058C68.9207 28.9847 68.783 31.3492 67.934 33.3467C67.1541 35.175 65.6384 36.8253 63.8576 37.3834C62.6841 37.7531 61.4638 37.5722 60.709 36.5385C59.6721 35.1122 60.0914 32.632 61.636 30.5717C63.0004 28.7588 64.9723 27.6065 66.9409 26.8643C67.1728 26.7759 67.22 26.6287 67.1546 26.4332C67.0474 26.111 66.8772 25.6739 66.807 25.4735C66.6269 24.9967 66.1212 24.9187 65.5046 24.9858C64.0748 25.1513 62.7855 25.6378 61.5114 26.3155C58.1751 28.0902 56.503 31.525 55.7694 33.3631C55.4167 34.245 55.1148 34.7966 54.7245 35.2848C54.1988 35.9417 53.5385 36.5391 52.3314 37.5925C52.2225 37.6891 52.1409 37.8905 52.2324 38.0773C52.3559 38.3312 52.9833 39.2115 53.1608 39.2901C53.3573 39.3862 53.5852 39.2521 53.6766 39.1865C54.5213 38.6181 55.532 37.7165 56.0267 37.1049C56.1998 36.8957 56.3785 36.9837 56.4705 37.3015C56.9321 38.9376 58.1406 40.2731 59.8121 40.8317C62.8708 41.8567 66.0438 40.3732 68.4386 37.7909C69.9603 36.1499 70.5096 35.0942 71.093 34.3767C72.0814 33.1595 74.032 30.4369 76.3543 28.689C77.2061 28.0446 78.2147 27.5531 78.7219 27.8791C79.1285 28.1412 79.2597 28.7499 78.6066 29.9294C76.2391 34.2254 72.7534 39.2727 72.1145 40.4976C71.998 40.71 72.0997 40.8766 72.3235 40.8766C73.5627 40.8711 74.7917 40.8737 75.9167 40.8737C76.1034 40.865 76.1879 40.7804 76.2815 40.6488C78.0988 37.8229 79.8093 35.132 81.6424 32.3509C81.7458 32.187 81.84 32.314 81.8438 32.3856C81.8819 33.0305 82.0412 33.9136 82.4265 34.4935C83.1199 35.5649 84.1019 36.0252 85.1915 36.0323C86.058 36.0421 86.496 35.9111 87.4305 35.5644C88.0843 35.3206 88.7029 34.9907 89.2702 34.5835C89.5439 34.3951 89.5917 34.711 89.5846 34.7596C89.1644 37.0034 89.6838 39.6614 91.9283 40.7639C94.6147 42.08 97.5657 40.2305 99.2638 38.5612C99.4298 38.4001 99.6089 38.417 99.6258 38.7632C99.6617 39.4011 99.9513 40.1575 100.482 40.6872C101.905 42.1059 104.777 41.5438 107.659 39.3273C109.509 37.9092 111.445 35.9047 113.194 33.7821C113.258 33.7002 113.307 33.5674 113.182 33.4342C112.915 33.1573 112.53 32.8405 112.266 32.5964C112.145 32.4948 111.968 32.5239 111.867 32.6009C110.074 34.2943 108.461 36.2258 106.129 37.823C105.342 38.368 104.089 38.8082 103.526 38.0513C103.307 37.7575 103.332 37.3505 103.548 36.817C104.229 35.1319 114.993 18.8492 115.552 17.8903L115.553 17.8891C115.649 17.722 115.548 17.5999 115.335 17.5999ZM100.252 27.7795C100.533 27.777 100.797 27.8309 101.038 27.9457C102.363 28.5742 101.94 30.0994 101.347 31.2969C101.327 31.3344 101.315 31.3756 101.311 31.418C101.307 31.4604 101.311 31.5032 101.323 31.5438C101.345 31.6683 101.508 31.789 101.669 31.8463C101.725 31.8671 101.757 31.9075 101.693 32.0385C101.235 33.0132 100.815 33.5752 100.24 34.4216C99.7135 35.2041 99.1191 35.8141 98.3985 36.4017C97.3127 37.2945 95.8052 38.2659 94.5588 37.6128C94.0048 37.3267 93.7658 36.5571 93.7767 35.9341C93.8055 34.1812 94.5877 32.3825 96.0365 30.6143C97.4719 28.8591 99.0302 27.7902 100.252 27.7795Z" fill="var(--fill-0, white)"/>
</g>
</svg>
