<svg preserveAspectRatio="none" width="100%" height="100%" overflow="visible" style="display: block;" viewBox="0 0 113 80" fill="none" xmlns="http://www.w3.org/2000/svg">
<g id="stussy 1" clip-path="url(#clip0_8_487)">
<path id="Vector" d="M113.011 17.8203C113.011 17.6106 112.336 17.1263 112.065 16.8657C111.706 17.0356 111.457 17.367 111.152 17.5313C111.011 17.3784 110.999 17.2027 110.813 17.1149C110.664 17.2126 110.493 17.2701 110.316 17.2821C110.107 17.2821 109.985 17.1999 109.869 17.2112C109.903 17.4945 109.869 17.5313 109.652 17.5313C109.434 17.5313 109.516 17.3642 109.31 17.3642H108.25C107.959 17.3805 107.673 17.4456 107.403 17.5568C107.233 17.6956 107.343 17.9449 107.072 17.9449C106.863 17.9449 106.742 17.7778 106.533 17.7778C106.324 17.7778 106.216 18.1205 106.055 18.2508C105.976 18.2792 105.798 18.2055 105.705 18.3018C105.705 18.9108 105.371 19.4009 105.371 19.7181C105.371 19.9278 105.62 20.3413 105.62 20.551C105.62 20.7606 105.383 20.939 105.227 21.1175C105.51 22.0863 104.49 23.2816 104.261 24.1966C104.222 24.3524 103.877 24.4997 103.877 24.7065C103.877 24.9132 103.996 25.0436 103.933 25.1908C103.651 25.9075 103.651 26.5675 103.029 27.1737C102.71 27.4853 102.134 27.9527 102.134 28.1595C102.134 28.3663 102.3 28.5334 102.3 28.743C102.275 29.1419 102.212 29.5375 102.111 29.9242C101.902 30.0829 101.473 30.2387 101.473 30.4454C101.473 30.6522 101.639 30.6975 101.639 30.9043C101.639 31.1111 101.495 31.1593 101.357 31.2386C101.254 31.1444 101.17 31.032 101.108 30.9072C100.843 31.4397 100.987 32.3008 100.354 32.9835C100.317 32.9411 100.265 32.9139 100.21 32.907C99.7661 32.5869 99.913 31.9071 99.7802 31.5955C99.6496 31.4127 99.4935 31.2496 99.3169 31.1111C99.4779 30.8902 99.8141 30.5446 99.8141 30.3236C99.8141 30.1027 99.5655 28.8252 99.5655 28.624C99.5655 28.0745 100.063 27.3862 100.063 26.9613C100.063 26.7516 99.4694 26.5165 99.314 26.3947C99.5708 26.2476 99.7831 26.0335 99.9284 25.7751C100.074 25.5168 100.146 25.2239 100.139 24.9274C100.139 24.1484 99.557 24.3609 99.557 23.1372C99.557 22.9304 99.7237 22.7208 99.7209 22.5395C99.6305 22.4432 99.5485 22.446 99.4949 22.3752C99.4751 22.1401 99.3931 21.7662 99.3931 21.5565C99.3931 21.3469 100.139 20.2564 100.139 20.0496V17.9959C100.139 17.5682 99.3931 16.5031 99.04 16.2963C98.7575 16.1292 98.3591 16.1858 98.0398 16.1603C97.8844 16.0329 97.7771 15.8544 97.6839 15.8572C97.342 16.0272 96.9041 16.5229 96.6978 16.5229C96.4916 16.5229 96.1158 16.3558 95.9096 16.3558C95.7033 16.3558 94.9405 16.9393 94.4969 17.1234C94.5006 17.264 94.4893 17.4045 94.463 17.5427C94.4122 17.622 94.2483 17.7863 94.1805 17.8741C94.1102 18.1871 94.0099 18.4925 93.881 18.7862C93.5462 19.3157 93.1762 19.822 92.7735 20.3017C92.6294 20.4971 92.587 21.4177 91.9994 21.4546C92.0667 21.5542 92.1497 21.6423 92.2452 21.7152C91.3722 22.2052 91.0586 23.2476 90.5246 24.0125H89.0611C88.852 24.0125 87.5976 23.5111 87.3913 23.5111C87.1851 23.5111 86.88 23.8453 86.6511 23.9275C85.5493 23.0777 83.9304 23.5791 82.95 22.8766C83.0741 22.5421 83.153 22.1924 83.1845 21.837C83.3741 21.8181 83.558 21.7609 83.725 21.6689C83.8921 21.5769 84.0388 21.452 84.1564 21.3016C84.9644 20.3272 86.2499 19.6473 86.1341 18.4888C86.2697 18.3358 86.5099 18.3443 86.6568 18.2508C86.7359 17.7041 87.3913 17.401 87.753 17.2027C87.8886 17.1206 88.1231 17.2027 88.2587 17.0611C88.8605 16.4578 89.5442 15.8742 90.0556 15.3445C90.3551 15.0329 90.3183 14.727 90.7591 14.4154C90.6687 13.9763 90.389 13.475 89.8804 13.3617C89.6968 13.5373 89.6827 13.6931 89.4764 13.6931C89.2702 13.6931 89.0611 13.4438 88.8548 13.4438C88.6486 13.4438 88.5723 13.6109 88.3576 13.6109C88.1429 13.6109 87.9253 13.288 87.6485 13.1124C87.3966 13.3145 87.1091 13.4673 86.8009 13.5628C86.5438 14.3163 85.6707 14.1293 85.0661 14.3814C84.3739 14.186 83.936 14.9281 83.5094 15.5428C83.0783 16.1018 82.5648 16.5918 81.9866 16.996C81.6871 17.2367 81.2887 17.2792 81.009 17.5625C80.8028 17.7721 80.6191 18.1715 80.4101 18.3386C80.1275 18.5794 79.6275 18.6389 79.3393 18.8032C78.8617 19.1199 78.443 19.5177 78.1018 19.9788C77.8419 20.3017 77.5368 21.5169 76.8756 21.2138C76.7485 21.4631 76.5084 21.5339 76.3304 21.7208C76.5818 22.3893 75.3924 22.9276 74.8697 22.7066C74.6013 22.9446 74.3527 23.1088 74.1182 23.3043C73.7198 24.0946 73.5333 24.7461 72.7055 24.8793C72.6095 25.1257 72.358 25.4741 72.358 25.6809C72.358 25.8877 72.8553 26.6808 73.0643 26.6808C73.4424 26.584 73.8348 26.5562 74.2227 26.5987C74.5307 26.6185 74.9347 26.5619 75.0957 26.9698C74.7284 27.5363 74.2651 28.1793 73.6435 28.1793C73.4373 28.1793 72.1461 27.7459 71.4907 27.6524C71.0866 27.5873 70.6431 27.7261 70.2475 27.6524C69.7503 27.5703 69.1598 27.5051 68.671 27.4032C67.9958 27.2559 67.3403 27.0179 66.6933 26.9046C66.617 26.8565 66.5549 26.8083 66.5492 26.746C66.912 26.5243 67.2365 26.2449 67.5098 25.9188C67.6368 25.6923 67.7843 25.478 67.9506 25.2787C68.0749 25.154 68.3631 25.1795 68.5015 25.0605C68.8377 24.5138 69.9424 23.8623 70.4933 23.2306C70.886 22.7718 71.1997 21.6132 72.0275 21.6132C72.2337 21.6132 72.6999 21.3129 72.5275 21.1515C72.7023 20.8875 72.9201 20.6548 73.1717 20.4631C73.4203 20.2875 74.104 20.3555 74.104 19.9504C74.104 19.7408 73.765 19.3839 73.5898 19.1488C73.3753 19.0715 73.1507 19.0257 72.9231 19.0128C72.6405 18.5879 71.1375 18.2877 70.9906 18.2877C70.7843 18.2877 70.0356 19.2876 69.8294 19.2876C69.6231 19.2876 69.4565 19.0383 69.2502 19.0383C68.7614 19.0383 68.3828 19.8881 67.7528 19.9816C67.2596 20.7645 66.7259 21.5209 66.1537 22.2477C66.0802 22.276 66.004 22.2732 65.9079 22.2987C65.2242 23.0352 64.2749 23.6782 63.8709 24.3722C63.7974 24.5082 63.481 24.6555 63.481 24.8509C63.481 25.3297 62.8933 25.2588 62.5006 25.6101C62.4498 25.6611 60.619 27.9272 60.0398 27.9272C59.9843 27.9317 59.9286 27.9209 59.8788 27.8959C59.829 27.8709 59.787 27.8328 59.7573 27.7856C59.7573 27.5505 59.6782 27.219 59.6782 27.0122C59.6782 26.8055 60.0087 26.0973 60.0087 25.8792C60.0087 25.6611 59.5934 24.4232 59.5934 24.2136C59.5934 24.004 59.972 23.5111 60.1443 23.2278C59.9663 23.038 59.8872 22.9445 59.8279 22.8822C59.6621 22.1622 59.546 21.4315 59.4804 20.6954C59.4804 20.6643 59.9776 19.7606 59.9776 19.6558C59.9776 18.8882 59.6273 18.806 59.0142 18.061C58.8645 18.0355 58.6921 18.061 58.6413 18.0157C58.4745 17.8136 58.2445 17.6738 57.9886 17.6191C57.7824 17.6191 57.7287 17.8543 57.5931 17.9279C56.9307 18.2769 56.242 18.5733 55.5335 18.8145C55.3894 19.1299 55.2154 19.4307 55.0136 19.7125C54.8045 19.9193 54.4655 19.9504 54.3638 20.1374C54.1434 20.5226 53.9598 20.9872 53.7309 21.3838C53.5642 21.667 53.2591 21.667 53.2591 21.9871C53.2591 22.1939 53.3749 22.4885 53.2393 22.6216C52.8363 23.0395 52.4642 23.4864 52.1262 23.9586C51.951 24.1994 52.1996 25.0917 51.5611 25.1172C51.4651 26.2503 50.366 27.0292 50.366 27.2275C50.366 27.4258 50.4564 27.5391 50.3491 27.6978C50.1919 27.7727 50.0424 27.8628 49.9027 27.9669C49.6032 28.2501 49.4111 28.8393 49.1822 28.8535L49.0381 28.7118C49.1229 28.3181 49.3207 27.9017 49.4224 27.5788C49.5241 27.2559 49.3376 26.5222 49.7049 26.3097C49.5806 26.2786 49.541 26.3097 49.541 26.1115C49.541 26.0803 50.0383 24.8849 50.0383 24.6555C50.0383 24.426 49.7077 23.6159 49.7077 23.4091C49.7077 23.1258 49.6823 22.9502 50.1513 22.9955C50.3148 22.7323 50.4556 22.4556 50.5723 22.1684C50.8044 21.4434 50.982 20.702 51.1034 19.9504C51.1034 19.7408 50.9367 19.8654 50.9367 19.6672C50.9367 19.4689 51.352 18.7012 51.352 18.4916V17.2566C51.352 17.0469 52.016 15.3757 52.016 15.1661C52.016 14.9564 51.2814 14.4126 50.835 14.1548C50.6453 14.0731 50.4396 14.0353 50.2332 14.0443C50.027 14.0443 49.9874 14.3418 49.801 14.4352C49.6145 14.5287 49.3715 14.4777 49.2161 14.5712C48.976 14.7185 48.7839 15.0443 48.5748 15.0443C48.3657 15.0443 48.4109 14.8771 48.2019 14.8771C47.9928 14.8771 47.6368 15.2964 47.4051 15.4097C47.3333 15.6335 47.2159 15.8399 47.0604 16.0159C46.9842 16.0442 46.8231 16.0442 46.7299 16.0669C46.0575 16.6759 45.6308 17.5908 45.354 18.6446C45.3031 18.7239 45.2579 18.7041 45.1901 18.7069L45.0065 18.5369C44.6055 18.9856 44.2399 19.4648 43.9131 19.9703C43.7775 20.1997 43.7831 20.5085 43.6164 20.7124C43.3763 20.9957 42.896 21.2591 42.6671 21.633C42.3846 22.0806 42.314 22.599 42.0343 23.0494C41.8986 23.2788 41.5822 23.2845 41.4297 23.3723C41.3483 23.5625 41.2877 23.761 41.2488 23.9643C41.0927 24.1375 40.8995 24.2731 40.6838 24.3609C40.3084 25.0069 39.8379 25.5923 39.2881 26.0973L39.1581 25.9585V25.6611C39.1581 25.4515 39.387 25.1852 39.4576 24.9132C39.6243 24.3099 39.6893 23.5252 40.1215 22.9955C40.0641 22.8074 40.0535 22.6081 40.0905 22.4148C40.5369 20.9192 41.0539 19.4405 41.4184 18.0072C41.6095 17.4115 41.8407 16.8294 42.1105 16.2651C42.379 15.5343 42.5574 14.7733 42.6417 13.999C42.6417 12.628 43.5543 11.9397 43.5543 11.3788C43.5543 11.1607 43.5543 11.0445 44.0515 11.0445C44.2606 11.0445 45.0488 11.3788 45.2551 11.3788C45.4613 11.3788 46.1027 11.0049 46.4248 10.9312C46.8602 10.834 47.3007 10.7611 47.7442 10.7131C47.9532 10.7131 49.4874 11.0445 49.6964 11.0445C49.9055 11.0445 50.3604 10.7953 50.5666 10.7953C50.7729 10.7953 51.1882 11.3788 51.3972 11.3788C51.6063 11.3788 51.8267 11.0474 51.9849 10.9879C52.1431 10.9284 52.3974 11.0502 52.5726 11.0162C52.9399 10.7382 53.3816 10.5764 53.8411 10.5517C54.0474 10.5517 54.5051 10.9681 54.7113 10.9681C54.9175 10.9681 55.1266 10.716 55.3357 10.716C55.5448 10.716 56.2483 11.1324 56.4658 11.1324C56.6834 11.1324 56.9631 10.8831 57.1721 10.8831C57.3812 10.8831 57.5451 11.0502 57.7372 11.0502C57.9293 11.0502 58.6243 10.716 59.0283 10.5517C59.2965 10.6091 59.5738 10.6091 59.842 10.5517C59.9944 10.6503 60.1695 10.7079 60.3506 10.7188C60.5568 10.7188 61.1388 10.3024 61.3451 10.3024C61.5513 10.3024 61.5711 10.546 61.6643 10.6026C62.0128 10.6313 62.3525 10.7275 62.6645 10.8859H63.6844C63.8494 10.758 64.0436 10.6734 64.2495 10.6395C64.6413 10.7289 65.028 10.8395 65.4078 10.9709C65.8256 10.9092 66.2501 10.9092 66.6679 10.9709C66.9278 10.7981 67.233 10.4044 67.4449 10.4044C67.6567 10.4044 68.2331 10.9879 68.4394 10.9879C68.6456 10.9879 68.8123 10.8208 69.0214 10.8208C69.2304 10.8208 69.5186 10.9879 69.7277 10.9879C70.4933 10.9879 69.9339 10.4044 70.5159 10.4044C70.725 10.4044 70.612 10.4044 70.6855 10.4582V10.6763L70.5159 10.8604C70.5672 10.9139 70.6067 10.9776 70.6318 11.0474C70.9143 10.8746 71.2618 10.4808 71.4794 10.4808C71.7272 10.4744 71.9744 10.5088 72.2111 10.5828C72.4089 10.6565 72.5586 10.8972 72.7762 10.8972C72.9937 10.8972 74.4713 10.5658 74.7002 10.58C74.7774 10.6623 74.872 10.7262 74.9772 10.7669C75.0823 10.8076 75.1953 10.8241 75.3076 10.8151C75.5139 10.8151 76.1778 10.648 76.3869 10.648C76.5959 10.648 76.8022 10.8151 77.0084 10.8151C77.2147 10.8151 77.5876 10.3165 77.7967 10.3165C78.0058 10.3165 78.2177 10.4837 78.3843 10.4497C78.5905 10.3825 78.8107 10.3707 79.0229 10.4157C79.2206 10.5092 79.3675 10.7613 79.5314 10.7811C79.8648 10.8349 80.2801 10.7103 80.6107 10.7528C80.8932 10.7839 81.0712 11.0644 81.2774 11.0644C81.4837 11.0644 81.6928 10.8151 81.9018 10.8151C82.1109 10.8151 82.0855 10.8916 82.1844 10.9482C82.6081 10.9794 83.1195 10.8038 83.5151 10.9171C83.7213 10.9709 83.84 11.2287 84.0123 11.3108H85.1226C85.4617 10.7953 85.1226 10.4837 85.6877 10.4837C86.0264 10.5104 86.357 10.6008 86.6624 10.7499C86.9845 10.9171 87.0128 11.1494 87.1795 11.1494C87.3461 11.1494 87.7615 10.7329 87.9677 10.7329C88.1739 10.7329 88.383 11.0644 88.5893 11.0644C88.7955 11.0644 89.4595 10.5658 89.6685 10.5658C89.8776 10.5658 92.2113 10.3987 92.4062 10.3987C92.6421 10.401 92.8713 10.4773 93.0617 10.6168C93.2482 10.5658 93.3979 10.5375 93.4601 10.58C93.7044 10.7839 93.9958 10.9232 94.3076 10.9851C94.641 10.9851 95.4377 10.1608 95.4377 9.94264C95.3306 9.50416 95.1148 9.09984 94.8105 8.76708C94.4913 8.48382 94.0025 8.4045 93.5589 8.23738C93.3725 8.50365 93.2538 8.8294 92.9939 8.87189C91.6971 9.09001 90.3099 8.92288 88.8464 9.09001C88.6373 9.10984 88.5045 9.40443 88.3661 9.47242H88.205C88.1411 9.3277 88.0564 9.19314 87.9536 9.07301H86.702C86.4336 9.07301 85.6058 9.00503 85.1876 8.73876C84.7582 9.44692 83.5998 9.03902 83.6055 10.0729C83.5687 10.0021 83.484 10.0021 83.4105 9.92847C83.4105 9.6962 83.4953 9.52907 83.484 9.41576L79.1076 9.22597C78.8723 9.33994 78.6236 9.42369 78.3674 9.47525C78.1583 9.47525 76.9152 8.89455 76.709 8.89455C76.2513 8.89455 75.6099 9.56023 75.3387 9.56023C75.1324 9.56023 74.3442 9.06168 74.1351 9.06168C73.926 9.06168 73.005 9.31095 72.8072 9.31095C72.6095 9.31095 72.4739 9.14383 72.2676 9.14383C72.0614 9.14383 71.6347 9.39593 71.3296 9.48091C71.0669 9.12117 70.8606 9.06168 70.8182 9.06168C70.6092 9.06168 70.2786 9.22881 70.0695 9.22881C69.8605 9.22881 69.787 8.97953 69.5723 8.97953C69.3576 8.97953 69.1994 9.14666 68.9903 9.14666C68.7812 9.14666 68.0382 8.56596 67.8291 8.56596C67.3008 8.56596 67.5466 9.23164 66.9589 9.23164C66.7498 9.23164 66.5012 9.06451 66.3345 9.06451C64.9219 9.14666 64.8428 9.06451 64.7439 9.06451C64.6836 9.13028 64.6076 9.1796 64.5231 9.20784C64.4386 9.23608 64.3483 9.24232 64.2608 9.22597C63.7652 9.17297 63.2673 9.14555 62.769 9.14383C62.6446 9.16257 62.5296 9.2212 62.4413 9.31095C62.0829 9.01117 61.6523 8.81093 61.1925 8.73026C60.9834 8.73026 59.5736 9.22881 59.3674 9.22881C59.1611 9.22881 58.8277 9.06168 58.6215 9.06168C58.4153 9.06168 58.3729 9.22881 58.2909 9.22881C57.9836 9.22222 57.6761 9.23262 57.3699 9.25997C57.336 9.42993 57.2936 9.47808 57.0874 9.47808C56.8811 9.47808 55.8838 9.31095 55.6747 9.31095C55.4657 9.31095 55.0532 9.47808 54.8441 9.47808C54.4401 9.47808 54.1604 8.97953 53.8072 8.97953C53.601 8.97953 52.2731 9.56306 52.0668 9.56306C51.8606 9.56306 51.5272 9.22881 51.3181 9.22881C51.1091 9.22881 50.7531 9.46109 50.4706 9.5319C50.1598 9.61688 49.7953 9.42993 49.558 9.50074C49.3517 9.60569 49.1322 9.68193 48.9054 9.72736C48.6991 9.72736 48.1171 9.3931 47.9109 9.3931C47.7046 9.3931 47.4532 9.64238 47.2469 9.64238C47.0407 9.64238 46.8316 9.30812 46.6253 9.30812C46.4191 9.30812 46.5434 9.47525 46.3428 9.47525C46.1422 9.47525 45.5122 9.56023 45.3059 9.56023C44.7974 9.56023 44.3792 9.62255 43.8114 9.0985C43.9696 8.87472 44.2917 8.84357 44.4358 8.62545C44.6568 8.28816 44.8263 7.91961 44.9387 7.53204C45.0046 7.23253 45.0489 6.92865 45.0714 6.62276C45.1235 6.55091 45.1875 6.48862 45.2607 6.43864C45.5433 5.79562 45.8795 5.15544 46.1083 4.54359C46.3061 4.00255 46.5321 2.97996 47.0915 2.86665C47.2187 2.54939 47.8007 2.11883 47.8007 1.90921C47.8007 1.6996 47.7131 1.6826 47.6764 1.62595C47.5019 1.51279 47.3512 1.36652 47.2328 1.19538C47.0972 0.965937 47.1282 0.696834 47.0124 0.461724C46.8338 0.26439 46.5956 0.131082 46.3343 0.0821471C46.1253 0.0821471 46.2496 0.331421 46.0518 0.331421C45.854 0.331421 46.0123 0.164294 45.8032 0.164294C45.5941 0.164294 45.3059 0.413568 45.0997 0.413568C44.8934 0.413568 44.9217 0.246441 44.7211 0.246441C44.5205 0.246441 44.5544 0.413568 44.3482 0.413568C44.1419 0.413568 44.2182 0.348417 44.2182 0.348417C44.2182 0.286099 44.2945 0.0906451 44.2013 0H43.6955C43.4893 0 43.2491 0.337087 43.0994 0.433397C42.9782 0.441739 42.8613 0.481782 42.7604 0.549536C41.4749 0.682671 41.1499 2.9318 40.7149 3.84675C40.6018 4.08753 40.1498 4.21217 40.0198 4.51526C39.9201 4.83172 39.8893 5.16594 39.9294 5.49536C39.5 5.3339 39.2514 5.98824 39.1468 6.08172C38.9604 6.26868 38.6185 6.34799 38.5253 6.61709C38.206 7.51222 37.381 9.56306 36.2198 9.56306C36.0136 9.56306 35.1406 9.14666 34.9343 9.14666C34.6378 9.15241 34.3425 9.18751 34.0528 9.25147C33.7195 9.34495 33.3154 9.72736 33.1092 9.72736C32.9029 9.72736 32.7645 9.48941 32.5865 9.31379H30.1737C29.9675 9.31379 29.4589 9.06168 29.2499 9.06168C29.0408 9.06168 27.0122 9.56023 26.8032 9.56023C26.5941 9.56023 25.5177 9.14383 25.3114 9.14383C25.1052 9.14383 24.4412 9.47525 24.2322 9.47525C24.0231 9.47525 23.7349 9.22597 23.5258 9.22597C23.3168 9.22597 22.6782 9.56023 21.8674 9.56023C20.7373 9.56023 21.0396 8.9767 20.3333 8.9767C20.127 8.9767 20.0507 9.19482 19.8756 9.19482C19.4877 9.16 19.0979 9.1496 18.7087 9.16366C18.5071 9.22628 18.3013 9.27456 18.0928 9.30812C17.8837 9.30812 17.3865 8.89172 17.1774 8.89172C16.6915 8.89172 15.9343 8.94271 15.9343 9.5574C15.9234 9.66305 15.9329 9.76983 15.9626 9.87182C16.2818 10.1324 16.553 10.512 16.9571 10.6876C17.5635 10.9524 18.1935 11.1591 18.8387 11.3051C19.0478 11.3051 19.4207 10.5545 19.6269 10.5545C19.8332 10.5545 20.2909 11.2202 20.4971 11.2202C20.7034 11.2202 21.4521 10.8859 21.6583 10.8859C21.8646 10.8859 22.6556 11.3051 22.8619 11.3051C23.0681 11.3051 23.1925 11.189 23.3591 11.189C23.8033 11.2145 24.2485 11.2145 24.6927 11.189C24.8565 11.1692 25.0148 10.9284 25.1108 10.9057C25.3481 10.8519 25.6052 10.9681 25.8623 10.9341C25.9528 10.8774 25.9725 10.8009 26.1816 10.8009C26.3907 10.8009 26.4302 11.1352 26.6365 11.1352C26.8427 11.1352 26.8851 10.9709 27.0942 10.9709C27.3032 10.9709 27.84 11.3023 28.0491 11.3023C28.2582 11.3023 29.7076 10.8009 29.9138 10.8009C30.12 10.8009 31.2417 11.2173 31.4508 11.2173C31.6927 11.191 31.9332 11.1523 32.1712 11.1012C32.2616 11.0445 32.2079 10.8831 32.417 10.8831H33.5471C33.7534 10.8831 33.9709 11.0502 34.18 11.0502C34.389 11.0502 35.1349 10.8831 35.3412 10.8831C35.5474 10.8831 35.6039 10.8831 35.6745 10.9397V11.1607C35.3086 11.5106 35.0023 11.9183 34.7676 12.3674C34.6094 12.475 34.4484 12.3872 34.2647 12.4892C34.273 12.6283 34.2405 12.7668 34.1712 12.8876C34.102 13.0084 33.9989 13.1062 33.8748 13.169C33.8739 13.333 33.855 13.4964 33.8183 13.6563C33.666 14.1127 33.477 14.5561 33.2533 14.9819C33.0047 15.3559 32.4707 15.4862 32.1486 15.8062C31.9621 15.9932 32.0045 16.4266 31.9226 16.656C31.7625 17.1 31.5591 17.527 31.3151 17.9307C30.7501 17.6815 30.3009 18.9193 30.1059 19.1375C29.846 19.4207 29.5041 19.653 29.4024 19.9873C29.2916 20.4424 29.1364 20.8855 28.9391 21.3101C28.8557 21.436 28.7306 21.5284 28.5859 21.5707C28.3034 22.0183 28.278 22.344 27.7553 22.4857C27.4954 22.9361 27.5236 23.6867 26.8229 23.6187C26.5574 24.6441 25.2606 25.6611 25.3679 26.627C25.0006 26.8593 24.4554 27.2417 24.2576 27.7091C23.941 28.4497 23.5768 29.1688 23.167 29.8619C22.6924 29.7741 22.1951 29.7146 21.7798 29.6608C21.6131 29.641 21.4436 29.3577 21.2345 29.3577C21.0255 29.3577 20.8192 29.5248 20.613 29.5248C20.4067 29.5248 19.7823 29.1084 19.5761 29.1084C19.3698 29.1084 19.0478 29.2755 18.7878 29.2755C15.1799 29.2755 17.1266 29.3577 16.2988 29.3577C16.0897 29.3577 15.9993 29.1254 15.8721 28.9696C15.3071 28.9441 14.629 29.0801 14.0696 28.913C13.9029 28.8705 13.643 28.4427 13.352 28.4427C13.1457 28.4427 13.1853 28.6099 12.9791 28.6099C12.7728 28.6099 11.993 28.5277 11.606 28.4654C11.6907 28.2501 11.7698 28.0943 11.8348 27.964C12.6372 28.1765 13.1938 27.2474 14.16 26.7148C14.3069 26.6412 14.5923 26.7148 14.7251 26.6638C15.3568 26.3819 16.0132 26.1591 16.6858 25.9982C17.8254 25.0923 19.1307 24.4187 20.5282 24.0153C20.7853 23.953 21.0339 23.5451 21.2628 23.4233C21.4973 23.0182 22.924 22.1344 23.297 22.1344C23.5032 22.1344 23.7123 22.3015 23.9185 22.3015C24.1248 22.3015 24.4836 21.6132 24.6842 21.4036C24.9306 21.4036 25.1755 21.3654 25.4103 21.2903C25.5346 20.9419 25.7861 20.5141 25.7861 20.3045C25.7861 19.4207 25.1758 19.9136 24.9385 18.5681C24.5797 18.5681 24.04 18.3925 23.8338 18.3925C23.3168 18.3925 23.1698 18.6757 22.6613 18.976H21.5312C21.3249 18.976 21.4803 18.8089 21.2713 18.8089C21.0622 18.8089 20.6695 19.2281 20.4237 19.3754C20.2626 19.4037 20.0988 19.3216 19.9208 19.3471C19.3557 19.8938 18.7313 20.6246 17.9431 20.956C17.6408 21.0807 17.1661 21.0552 16.8751 21.2619C16.4513 21.5849 15.9936 22.2647 15.5359 22.4517C15.3918 22.514 15.2223 22.3865 15.0472 22.4177C14.7646 22.4715 14.5725 22.8851 14.3663 23.0409C13.9086 23.3836 13.3774 23.4856 12.8802 23.7009C12.6344 23.7798 12.4081 23.9102 12.2162 24.0833C12.1908 24.1739 12.1089 24.3382 12.0834 24.4119C11.4054 24.9982 10.2696 24.9161 9.56046 25.1654C8.99541 25.375 8.35124 25.8452 7.81161 26.1653C7.31225 26.5028 6.74688 26.7297 6.15317 26.831C5.81979 27.2899 4.60774 27.4711 4.47213 27.4711C4.26588 27.4711 4.35064 27.304 4.14157 27.304C3.9325 27.304 3.61042 27.7601 3.34202 27.913C2.78842 28.2637 2.20732 28.5688 1.60447 28.8252C1.37845 28.9073 1.02246 28.8563 0.756883 28.9668C0.505433 29.3719 -0.000292623 30.0262 -0.000292623 30.2245C-0.0169015 30.566 0.019314 30.9081 0.107068 31.2386C0.242682 31.604 0.672125 31.7485 0.937701 32.0884C1.12134 32.0884 1.37279 31.9269 1.57904 31.9269C1.81595 31.9627 2.0494 32.0187 2.27689 32.094C2.44358 32.1252 2.69785 31.9496 3.52566 32.0119C4.61339 32.1054 5.66157 32.4566 6.76061 32.5784C7.30024 32.6294 7.4076 32.7739 7.63645 32.7739C7.86529 32.7739 8.67615 32.4425 8.8824 32.4425C9.08864 32.4425 9.80626 32.6691 10.3233 32.7937C10.4607 32.8012 10.5984 32.8012 10.7358 32.7937C10.9025 32.8475 10.9985 33.0232 11.2048 33.0232C11.411 33.0232 12.0354 32.6068 12.2417 32.6068C12.4479 32.6068 14.855 33.1081 15.0669 33.1081C15.2788 33.1081 15.9371 32.941 16.1462 32.941C16.3553 32.941 17.378 33.1166 17.9685 33.1591C18.4658 33.1903 19.0421 33.1081 19.5394 33.2129C19.7767 33.2611 20.0423 33.533 20.2005 33.5727C20.482 33.6424 20.7516 33.7542 21 33.9041C20.839 34.21 20.6412 34.584 20.4774 34.8757C20.3135 35.1675 20.0225 35.1958 19.7823 35.3743C19.7598 35.5984 19.7598 35.8243 19.7823 36.0484C19.6665 36.2014 18.3499 37.5271 18.3499 38.0568C18.3499 38.2636 18.5166 38.3061 18.5166 38.5129C18.5166 38.5129 17.734 39.9292 17.3865 40.2124C17.5899 41.0622 16.8553 41.558 16.6293 42.3284C16.4115 42.33 16.2008 42.407 16.0332 42.5466C16.109 42.7782 16.1383 43.0227 16.1194 43.2658C16.1004 43.5089 16.0337 43.7458 15.923 43.9629C15.7478 44.3056 15.1913 44.6201 15.1404 44.9742C15.1206 45.1498 15.2393 45.399 15.1743 45.5407C14.8186 46.2737 14.5027 47.0255 14.2278 47.7926C14.0724 48.2714 14.2278 48.9257 14.0131 49.3676C13.551 50.3651 13.2962 51.4465 13.2644 52.5458C13.2644 52.9623 12.9649 53.6251 12.9649 53.8347C12.9649 54.0443 13.1316 54.1406 13.1655 54.2086C13.8238 54.4126 14.9568 55.0811 15.163 55.0811C15.3692 55.0811 15.5162 54.9111 15.6602 54.8176C15.697 54.7213 15.6885 54.5712 15.7563 54.4976C16.7875 54.5712 16.7282 53.8347 17.4006 53.8347C17.6097 53.8347 17.9403 54.0018 18.1465 54.0018C18.6127 54.0018 19.5591 53.6676 19.9858 53.5231C20.5508 53.3362 21.1922 53.2937 21.7318 53.0557C22.2177 52.8376 23.4269 52.1379 24.1389 51.7725C24.4183 51.6056 24.7241 51.4878 25.043 51.4241H26.2466C26.4557 51.4241 27.0744 50.5262 27.5095 50.4468C29.0662 50.1324 30.8998 48.6736 32.66 47.9456C33.0555 47.7898 33.937 47.9598 34.2167 47.7218C35.1801 46.872 36.5843 46.4046 37.4743 45.8948C37.9517 45.6115 38.2314 45.0875 38.5507 44.7844C38.7061 44.7674 38.8756 44.8495 39.0479 44.8127L42.7462 42.0169C42.7366 42.316 42.7886 42.614 42.8988 42.8921C43.6616 43.1754 44.8765 43.6853 45.0884 43.6853C45.3003 43.6853 46.0236 43.2802 46.3965 43.1527C47.5266 42.776 49.3178 40.8725 49.2218 39.5638C49.2218 39.3881 49.5326 39.2352 49.5326 39.0256C49.5253 38.9031 49.4956 38.7831 49.445 38.6715C49.8462 38.4194 49.7275 38.0001 50.2417 37.6461C50.3236 37.3893 50.3915 37.1283 50.4451 36.8642C50.4451 36.6575 50.3604 36.6688 50.383 36.581C50.5694 35.8332 51.6911 36.2411 51.6911 35.3233C51.6911 35.1137 51.3577 34.7397 51.3577 34.533C51.3577 34.4905 51.9793 33.6435 52.0414 33.0911C52.0979 33.0203 52.2646 32.9325 52.3239 32.8475C52.6065 32.281 52.2053 31.7145 52.9851 31.4312C53.0472 30.995 53.5219 29.7826 53.8976 29.7826C54.1067 29.7826 54.0643 29.8676 54.118 29.8562C54.1346 30.0704 54.1648 30.2833 54.2084 30.4936C54.2706 31.1593 54.1265 31.8391 54.2706 32.4963C54.2932 32.6011 54.5248 32.6747 54.57 32.7456C54.5192 33.0656 54.7678 33.5954 54.7678 33.8191C54.7678 34.0429 54.5192 34.2355 54.5192 34.4027C54.6011 35.9011 54.6124 35.9521 54.5192 36.0569C54.6078 36.3325 54.6628 36.6179 54.6831 36.9067C54.6831 37.1163 54.5164 37.7792 54.5164 37.9888C54.5164 38.1984 55.0955 38.9434 55.0955 39.153C55.0955 39.3626 55.0955 39.289 55.0447 39.3627C54.9666 39.3406 54.8958 39.2979 54.8396 39.2391C54.7835 39.1804 54.7441 39.1076 54.7254 39.0284L54.5983 39.9887C54.7537 40.6997 54.6181 41.1756 54.7057 41.9149C54.7742 42.0098 54.8594 42.0913 54.9571 42.1557C55.1803 42.2123 55.4939 42.0338 55.5984 42.3823C55.0758 42.6967 55.0984 43.0508 55.0984 43.6031C55.0984 43.8128 55.5137 45.5152 55.5137 45.7248C55.5137 45.9344 55.2651 46.5576 55.2651 46.7672C55.2651 46.9768 55.4826 47.7275 55.5476 48.1439C55.5792 48.2514 55.6327 48.3512 55.7047 48.437C55.7766 48.5228 55.8655 48.5927 55.9657 48.6424C56.1695 48.7207 56.3861 48.7601 56.6042 48.7586C56.8105 48.7586 56.9772 48.5943 57.1439 48.5943C58.1384 48.5943 58.3333 48.5801 58.4294 48.4753C58.3668 48.3522 58.3432 48.2129 58.3616 48.0759C58.6639 47.838 59.0481 47.7218 59.3278 47.5094C59.4634 47.4046 59.4945 47.178 59.568 47.1185C59.7234 47.0986 59.9748 47.0986 60.1556 47.0618C60.3336 46.8324 60.4975 46.5831 60.6529 46.365C60.9427 46.3354 61.2275 46.2687 61.5005 46.1667V45.4047C61.5005 45.1951 61.0908 44.8382 61.0908 44.6456C61.0908 44.4529 60.8422 43.0621 60.7433 42.2831C60.133 42.3284 60.1782 41.9319 60.1782 41.7336C60.1809 41.4014 60.2159 41.0703 60.2828 40.745C60.3647 40.4022 60.5935 40.0283 60.5935 39.8215C60.5935 39.6148 60.1584 38.5808 60.1189 37.969C60.0878 37.4903 60.0144 36.9917 59.9805 36.4818C59.8925 36.362 59.7921 36.2518 59.681 36.1532C59.7629 35.9266 60.0144 35.5386 60.0144 35.3318C60.0144 35.125 59.7657 35.2496 59.7657 35.0485C59.7657 34.8474 60.0144 34.482 60.0144 34.2582C60.0144 34.0344 60.0991 33.635 60.0991 33.4282C60.0991 33.2214 59.8505 33.2186 59.8505 33.0118C59.8505 32.805 59.6923 32.3377 59.6527 32.0062C59.6132 31.6748 59.681 31.3377 59.616 31.0148C59.5877 30.9836 59.5171 31.0969 59.5171 30.8902C59.5171 30.6834 59.6782 30.6069 59.746 30.4738H60.9608C61.1671 30.4738 61.1982 30.6352 61.2914 30.6919C61.8819 30.723 62.4611 30.9525 62.9583 31.0261C63.5234 31.1083 64.1223 31.0261 64.6196 31.0771C65.0122 31.1066 65.3991 31.1896 65.7695 31.3236C66.1311 31.4595 66.4249 31.689 66.682 31.774C66.9391 31.8589 67.1849 31.7031 67.4364 31.7428C67.6878 31.7824 67.8178 31.9722 68.024 31.9722C68.2303 31.9722 68.9366 31.6408 69.1542 31.6408C69.3717 31.6408 69.4141 31.8759 69.5949 32.0544H70.6798C70.9886 32.0932 71.2875 32.1893 71.5613 32.3377C71.3296 32.4708 70.9962 32.383 70.7646 32.4906C70.4057 32.9778 69.8435 33.3404 69.513 33.8106C69.4241 33.9386 69.3849 34.0948 69.4028 34.2497C69.4028 34.4593 69.4875 34.567 69.4621 34.6378C69.253 34.7964 68.8208 35.0797 68.8208 35.2893C68.8208 35.4989 68.9055 35.4819 68.8773 35.5725C68.773 35.6796 68.6517 35.7686 68.5185 35.836C68.2896 36.1193 68.1427 36.969 67.5805 36.969V37.2523C67.5805 37.4393 66.9928 37.7934 66.9928 38.2409C66.9928 38.4505 66.7442 39.8215 66.7442 40.0283C66.7381 40.177 66.7466 40.326 66.7696 40.4731C67.0917 40.7563 67.3347 41.3059 67.6935 41.3597C69.0101 41.5551 69.5214 41.422 70.0187 41.4645C70.4538 41.4956 70.9765 41.6939 71.1827 41.6939C71.3889 41.6939 71.5811 41.3682 71.7788 41.2945C71.9766 41.2209 72.3948 41.2634 72.6123 41.1586C72.8948 41.0113 72.9796 40.6827 73.1774 40.6317C73.5701 40.5184 74.1238 40.7988 74.5081 40.66C75.0477 40.4646 75.4941 40.0482 75.9207 39.881C76.3473 39.7139 76.7683 39.6601 77.1667 39.4958C77.3531 39.4136 77.469 39.238 77.5735 39.2125C77.9041 39.1474 78.3052 39.289 78.5002 39.153C79.5597 38.425 80.5287 38.0936 81.4837 37.5441C81.7662 37.377 82.1844 37.3855 82.4838 37.156C82.837 36.8954 82.9472 36.4705 83.2269 36.3062C83.6026 36.0768 84.0886 36.0853 84.4728 35.836C84.713 35.6802 85.9137 34.3743 86.524 34.3743C86.7302 34.3743 86.6539 34.4395 86.6539 34.4395C86.5664 35.3714 85.7357 37.0795 85.7357 38.4052C85.7357 38.6148 85.651 39.238 85.651 39.4448C85.651 39.4986 85.6934 40.5269 86.3545 40.5269C86.5635 40.5269 86.6737 40.2436 86.7783 40.2153C87.1324 40.1562 87.4902 40.1222 87.849 40.1133C88.0581 40.1133 88.8464 40.2804 89.0526 40.2804C90.2562 40.2804 89.8211 39.5184 91.3552 39.5241C91.683 38.9264 92.5447 39.0567 93.1804 38.7451C93.9149 38.3797 93.8245 38.0313 94.2398 38.0313C94.3957 38.0341 94.5468 38.0856 94.6721 38.1786C94.6975 38.493 95.0281 38.9462 95.0281 39.153C95.0281 39.3598 94.8642 39.4561 94.8642 39.5694C94.8642 39.7451 94.8642 42.5834 94.9659 42.7675C95.0513 42.7579 95.1338 42.7311 95.2085 42.6887C95.2833 42.6464 95.3488 42.5894 95.401 42.5211L95.6129 42.742V42.963C95.5364 43.025 95.4743 43.103 95.4309 43.1915C95.3874 43.2801 95.3638 43.377 95.3615 43.4757C95.3615 43.6853 95.2795 44.5181 95.2795 44.7249C95.2574 44.927 95.2989 45.1311 95.3982 45.3084C95.4688 45.3424 95.6129 45.3481 95.6129 45.5548C95.6129 45.7616 95.1976 46.0959 95.1976 46.3027C95.1976 46.5095 95.4462 47.7587 95.4462 47.9683C95.4462 48.0901 95.3417 49.1013 95.9039 49.1013C96.1102 49.1013 96.1864 48.9342 96.4012 48.9342C96.6159 48.9342 98.0596 49.1835 98.2659 49.1835C98.6614 49.1835 99.2914 48.7331 99.6785 48.8322C99.6389 48.7833 99.5875 48.7454 99.5291 48.7221C99.4708 48.6988 99.4074 48.6908 99.3451 48.6991V48.498L99.4892 48.3507H99.7039C99.7717 48.498 99.9328 48.7671 100.139 48.7671C100.345 48.7671 100.537 48.4442 100.732 48.3705C100.981 48.3277 101.234 48.3088 101.487 48.3139C101.804 47.8542 102.01 47.3265 102.088 46.7729C102.088 46.5633 102.17 46.229 102.17 46.0222C102.17 45.8154 102.004 45.8126 102.004 45.603C102.004 45.3934 102.459 44.4104 102.634 43.8269C102.675 43.5532 102.692 43.2765 102.685 42.9998C102.823 42.844 103.024 42.7647 103.128 42.5891C103.279 42.3281 103.375 42.0389 103.411 41.7393C103.411 41.5296 103.162 41.4078 103.159 41.2577C103.414 41.0479 103.628 40.7935 103.792 40.507C103.846 40.3597 103.77 40.0736 103.843 39.9263C103.939 39.7281 104.159 39.5326 104.159 39.3258C104.159 39.119 103.993 39.1899 103.993 38.9802V38.5525C104.168 38.5125 104.329 38.4254 104.459 38.3004C104.535 37.9803 104.713 37.6857 104.679 37.377C105.244 36.36 105.261 35.0882 106.066 34.3035C106.066 34.1222 105.903 33.9551 105.903 33.737C105.903 33.5189 105.903 33.5585 105.959 33.4849C106.027 33.4849 106.194 33.5699 106.242 33.5585C106.305 34.4383 106.305 35.3216 106.242 36.2014C106.303 36.2907 106.379 36.3683 106.468 36.4308C106.151 36.547 106.276 37.0767 106.185 37.2523C106.006 37.6217 105.902 38.0233 105.88 38.4335C105.959 39.1559 105.995 39.8824 105.987 40.609C106.143 40.7931 106.213 40.8045 106.213 41.0141C106.213 41.2237 106.213 41.1501 106.165 41.2237C106.027 41.1416 105.925 40.9744 105.812 40.9858C105.812 41.1812 105.719 41.388 105.719 41.5976C105.719 42.0055 106.216 42.1641 106.216 42.4304C106.216 42.6372 106.05 42.5551 106.05 42.7618C106.05 42.9686 106.216 43.3029 106.216 43.5125C106.216 43.7221 105.968 43.7193 105.968 43.9289C105.968 44.1385 106.216 44.4274 106.216 44.6371C106.216 44.8467 105.968 45.011 105.968 45.1781C105.953 45.8891 106.009 46.5998 106.134 47.2998C106.106 47.539 106.04 47.7723 105.939 47.9909C105.866 48.1779 105.47 48.3393 105.47 48.5575C105.47 48.7756 106.225 49.3733 106.468 49.6679C106.244 49.7245 105.801 49.8888 105.801 50.0956C105.805 50.4107 105.78 50.7254 105.727 51.036C105.898 51.0587 106.063 51.1094 106.216 51.1862C105.75 51.7017 105.719 51.7895 105.719 52.0926C105.719 52.2994 105.883 53.0076 105.911 53.4155C105.99 53.4608 106.131 53.4636 106.131 53.6732C106.131 54.7638 105.468 54.8998 105.468 55.7949C105.468 56.0017 105.634 56.3784 105.634 56.5852C105.634 57.4888 105.055 56.8968 105.055 57.418C105.067 57.6505 105.123 57.8785 105.222 58.0894C105.222 58.163 105.14 58.248 105.222 59.3272C105.14 59.7351 104.888 60.4603 104.888 60.6614C104.888 60.8625 105.304 61.2846 105.304 61.4914C105.269 61.7719 105.203 62.0475 105.106 62.3129C105.024 62.5735 104.637 62.8794 104.637 63.072C104.637 63.2646 105.134 64.1144 105.134 64.3184C105.134 64.5223 104.967 64.4345 104.967 64.6385V65.7432C104.867 66.3117 104.722 66.8714 104.535 67.4173C104.628 67.5193 104.789 67.5958 104.837 67.6723C104.95 68.4116 105.12 69.7798 105.12 69.9865C105.12 70.1933 104.724 70.284 104.569 70.3746C104.482 70.6098 104.443 70.8604 104.456 71.1111C104.456 71.3179 104.705 72.5671 104.739 73.3291C104.806 73.4254 104.965 73.5642 104.973 73.6265C104.897 73.6472 104.829 73.6937 104.783 73.7582C104.737 73.8227 104.714 73.9013 104.719 73.9806C104.719 74.1874 105.052 74.5613 105.052 74.7709C105.052 74.9805 104.637 76.1872 104.637 76.394C104.637 76.6008 104.733 76.5866 104.829 76.6773C105.098 76.6403 105.37 76.6356 105.64 76.6631C105.629 76.8137 105.602 76.9627 105.561 77.1078C105.258 77.1078 104.996 77.0115 104.733 77.0257C104.679 77.6285 104.594 78.228 104.476 78.8216C104.959 79.0681 105.589 80.0085 106.131 80.0085C106.338 80.0085 107.262 79.7904 107.756 79.7252C107.923 79.7054 108.039 79.4845 108.256 79.442C108.821 79.3173 109.443 79.4618 109.92 79.306C110.22 79.2125 110.282 78.6743 110.485 78.6743C110.857 78.683 111.228 78.6507 111.593 78.578C111.682 78.1845 111.741 77.7849 111.771 77.3826C111.771 77.1758 111.022 76.1334 111.022 75.9266C111.022 75.7198 111.189 75.6434 111.189 75.4252C111.189 75.2071 111.022 75.261 111.022 75.0513C111.022 74.8417 111.519 74.346 111.519 74.1364C111.519 73.9268 111.189 73.3036 111.189 73.0968C111.189 72.89 111.355 72.5133 111.355 72.3065C111.355 72.0997 110.61 71.0148 110.61 70.808C110.61 70.6012 111.273 69.1084 111.273 68.8931C111.273 68.6779 111.107 68.6864 111.107 68.4767C111.107 68.2671 111.273 67.5618 111.273 67.3437C111.273 66.7771 111.028 66.9443 110.528 66.2276L110.652 66.0945C110.79 66.2474 110.819 66.4259 111.025 66.4259C111.231 66.4259 111.262 66.3296 111.355 66.2276C111.271 65.9443 111.44 65.5959 111.44 65.3778C111.44 65.1597 111.104 64.528 110.937 64.2447C111.22 64.2447 111.525 63.3298 111.525 63.0579C111.525 62.8482 111.44 62.7349 111.457 62.6613C111.474 62.5876 111.607 62.6811 111.607 62.4772C111.607 62.2732 111.44 62.4772 111.44 62.2675C111.44 62.0579 111.593 62.1741 111.683 62.0778V61.7945C111.419 61.7034 111.191 61.5296 111.033 61.2988C110.823 60.945 110.678 60.5565 110.604 60.1515C110.746 59.7085 110.936 59.282 111.169 58.8797C111.324 58.8627 111.485 58.8627 111.596 58.8514C111.596 58.4888 111.774 58.0724 111.774 57.8656C111.774 57.6588 111.525 56.8657 111.525 56.6589C111.525 56.4521 111.742 56.1575 111.689 55.2425C111.669 54.8261 111.525 54.3276 111.488 53.8914C111.338 53.7922 111.11 53.8687 111.11 53.6619C111.11 53.4551 111.025 53.203 111.025 52.9962C111.025 52.7895 111.183 52.7696 111.242 52.6677C111.199 52.5391 111.188 52.4022 111.208 52.2683C111.35 52.1096 111.593 51.9595 111.658 51.764C111.742 51.4473 111.781 51.1202 111.774 50.7924C111.774 50.0333 110.943 49.4101 110.943 49.0928C110.943 48.7161 111.661 48.4725 111.74 48.3592C111.771 48.1014 111.937 47.7643 111.937 47.5547C111.881 46.9784 111.6 46.4477 111.155 46.0789C110.968 46.144 110.734 46.0562 110.59 46.0789C111.011 44.7645 111.593 45.3849 111.593 44.2631V43.2037C111.593 43.0904 112.672 41.8214 112.672 41.405C112.672 41.1982 112.449 41.1217 112.356 40.9291C112.127 40.4617 112.124 39.8952 111.887 39.5326C111.805 39.3995 111.669 39.3485 111.604 39.2493C111.644 38.9321 111.367 38.7395 111.321 38.6318C111.386 38.6092 112.488 38.5525 112.488 37.9492C112.488 37.7395 112.322 37.4903 112.322 37.2835C112.322 37.0767 112.488 36.9096 112.488 36.6999C112.488 36.4903 111.991 35.6179 111.991 35.4083C111.991 35.1986 112.158 35.1476 112.146 34.9409V34.1676C112.081 34.1979 112.009 34.2095 111.938 34.201C111.866 34.1925 111.799 34.1642 111.742 34.1194C112.062 33.7936 112.065 33.8899 112.308 33.8135V32.9637C112.308 32.7569 112.115 32.2923 112.146 32.0431C112.203 31.7369 112.22 31.4245 112.197 31.1139C112.166 30.9496 111.98 30.7485 111.98 30.5474C111.98 30.3463 112.313 30.1735 112.313 29.9639C112.313 29.7543 112.076 29.471 112.065 29.2132C112.002 28.3804 112.146 28.134 112.141 27.0292C111.686 26.8055 111.731 26.593 111.731 26.5534C111.731 25.9868 111.994 26.3352 112.392 25.6497C112.392 25.5563 112.31 25.4741 112.392 23.9501C112.192 23.7887 112.017 23.7802 111.898 23.5592C112.135 23.3326 112.562 23.0522 112.562 22.8454C112.562 22.6386 112.313 21.4716 112.313 21.2648C112.313 21.058 112.48 21.058 112.48 20.8484C112.328 20.53 112.216 20.1942 112.146 19.8485C112.135 19.5308 112.169 19.2131 112.248 18.9052C112.406 18.5171 113.011 18.3301 113.011 17.8203ZM28.5916 29.9412C28.6848 29.8081 28.6707 29.5248 28.7215 29.3747C28.7526 29.2784 29.0041 29.2104 29.086 29.0376C29.7471 27.6949 30.1907 27.8082 30.1907 26.8083C30.1907 26.5987 30.3574 26.5449 30.3884 26.4712C30.6145 26.3154 31.2134 26.3013 31.4084 25.8735C31.5835 25.4883 31.6259 24.9416 31.7926 24.545C31.8745 24.3467 32.2108 24.2872 32.3266 24.1201C32.7306 23.5536 33.5019 22.463 33.4369 21.7888C34.3438 21.5849 33.9426 20.4688 34.3834 20.1147C34.5868 20.0184 34.9485 20.0524 35.0615 19.721C35.1745 19.3896 35.2592 18.976 35.344 18.6417C35.5305 18.6106 35.796 18.6417 35.909 18.5086C36.3554 18.0016 36.6521 17.3755 37.0957 16.6957C37.1752 16.7462 37.2429 16.8134 37.2941 16.8926C37.3453 16.9718 37.3788 17.0612 37.3923 17.1546C37.3639 17.721 37.2397 18.2785 37.025 18.8032C36.9516 18.959 36.6945 19.1573 36.6634 19.3244C36.217 21.3724 36.3102 20.3442 36.3102 21.6868C36.3102 21.8965 35.8525 22.565 35.6972 22.9899C35.6152 23.2193 35.6972 23.5904 35.6152 23.902C35.5418 24.1711 35.2479 24.3722 34.9993 24.7518C34.7888 25.1428 34.6699 25.5768 34.6518 26.0208C34.6518 26.2304 34.8976 26.3041 34.9852 26.4769C34.8976 26.661 34.7027 26.9103 34.5868 27.1624C34.5557 27.236 34.6518 27.4003 34.6179 27.5731C34.406 27.913 34.2789 27.7657 34.0528 27.7601C33.8972 28.0618 33.7922 28.3872 33.7421 28.7232C33.7421 28.9328 33.9059 29.0971 33.9059 29.2897C33.9059 29.4823 33.3239 30.3038 33.1431 30.8222C32.5046 30.8222 31.6796 30.4851 30.962 30.5786C30.5989 30.5203 30.2289 30.5203 29.8658 30.5786C29.8247 30.5237 29.7706 30.48 29.7085 30.4513C29.6463 30.4226 29.5781 30.4099 29.5098 30.4143C29.3035 30.4143 29.2612 30.6635 29.0549 30.6635C28.8487 30.6635 28.7724 30.4143 28.5577 30.4143C28.3429 30.4143 28.309 30.4964 28.1056 30.4709C28.2949 30.2698 28.5068 30.0687 28.5916 29.9412ZM43.2633 37.36C42.8734 37.7339 42.3987 38.3939 41.8704 38.7055C41.5879 38.8839 41.1047 38.9661 40.794 39.1729C40.616 39.2862 40.5595 39.5609 40.4436 39.7989C40.3218 40.0892 40.1272 40.3429 39.8786 40.5354C39.3502 40.8186 38.6383 40.7818 38.141 41.1671C37.5392 41.6373 36.8131 41.895 36.2311 42.3313C36.0136 42.4984 35.9062 42.8978 35.6378 43.2009C35.4214 43.1498 35.196 43.1498 34.9795 43.2009C34.8185 43.3114 34.6603 43.5918 34.4851 43.6966C34.0332 43.9812 33.5611 44.2321 33.0725 44.4473C32.7617 44.5719 32.369 44.7305 31.9113 44.9458C31.123 45.3112 30.1709 45.7673 29.2555 46.195C28.778 46.4131 28.1254 46.4613 27.6846 46.7417C26.8145 47.3083 25.8369 47.8181 25.2747 48.3563C24.6785 48.3932 24.0965 48.6396 23.5287 48.6623C23.458 48.7161 23.2885 48.8861 23.1953 48.9455C22.893 48.9455 22.4466 49.0702 22.3477 49.4328C21.9134 49.5596 21.473 49.6645 21.0283 49.7472C20.6864 49.8208 20.0649 50.3137 19.8586 50.3137C19.6828 50.2927 19.5096 50.2538 19.3416 50.1976C19.3416 50.1976 19.3162 50.1239 19.1721 50.3024V49.5149C19.6806 48.5688 19.9151 47.3593 20.257 46.3508C20.5395 45.5605 21.0565 44.7929 21.2854 44.1074C21.5368 43.368 21.5679 43.4332 21.5679 42.9969C21.5679 42.7873 22.7235 41.1302 23.119 40.1926C23.2122 39.9632 23.1472 39.5921 23.2518 39.2777C23.3846 38.8839 23.944 38.7111 23.8168 38.1956C24.6305 37.5554 24.8113 37.4591 24.8113 36.7141C24.8113 36.3062 25.6843 35.615 25.3933 34.7029C25.6532 34.5166 25.8837 34.2922 26.0771 34.0372C26.5517 34.0089 27.34 33.754 27.5462 33.754C27.7525 33.754 27.8796 34.0033 28.0858 34.0033C28.2921 34.0033 28.3175 33.8786 28.4955 33.8588C28.8261 33.8078 29.2442 33.9211 29.651 33.8928C29.7245 33.8446 29.7867 33.6718 29.9957 33.6718C30.2048 33.6718 30.3348 33.9551 30.4986 33.9749C30.9139 34.0259 31.6542 34.2582 31.8632 34.2582C32.0723 34.2582 32.1458 34.0967 32.3181 34.0061C32.5018 34.0967 32.6939 34.2582 32.6939 34.465C32.6939 34.6718 32.1938 35.2156 32.1938 35.4196C32.1938 35.6235 32.3605 35.921 32.3605 36.1278C32.3605 36.3345 31.9254 36.5413 31.9254 36.7481C31.9254 36.9549 32.0921 36.9152 32.0921 37.122C32.0921 37.3288 31.9254 36.8727 31.9197 37.8925C31.7361 37.9916 31.5327 37.9407 31.4197 38.0851C31.2021 38.3684 31.2021 38.7933 31.1371 39.1247C31.08 39.3608 30.9946 39.589 30.8829 39.8045C30.8292 39.8924 30.7416 39.898 30.6568 39.9802C30.5721 40.0623 30.6568 40.1586 30.6568 40.3654C30.6568 40.8866 30.0607 41.0311 29.7443 41.5268C30.3517 42.0735 29.7189 42.6825 30.3828 43.2094C30.6201 43.2377 30.9987 43.3199 31.2078 43.3227H32.5074C32.74 42.9339 33.0158 42.5728 33.3296 42.2463C33.4539 42.1443 33.7873 42.2038 33.9935 42.048C35.6519 40.7818 36.7482 39.0822 36.9883 37.2835C37.09 36.5243 37.7229 35.9295 38.2201 35.3686C38.3247 35.244 38.6241 35.2496 38.8332 35.2496C39.0423 35.2496 40.2854 35.3318 40.4917 35.3318C40.6926 35.3539 40.8918 35.3899 41.0878 35.4394C41.2658 35.5895 41.3703 35.8303 41.5681 35.8303C41.8313 35.7755 42.0879 35.6929 42.3337 35.5839C42.636 36.3005 43.3537 35.9125 43.3537 36.7028C43.3407 36.9239 43.3104 37.1436 43.2633 37.36ZM44.2662 28.5589C44.2352 28.7232 43.9442 28.9328 43.9018 29.1424C43.7789 29.7031 43.6892 30.2706 43.6334 30.842C43.6334 31.0516 43.8001 31.4652 43.8001 31.6748C43.7878 31.906 43.7241 32.1315 43.6136 32.3348H43.0768C42.9109 32.1445 42.7141 31.9836 42.4948 31.8589C42.4213 31.8278 42.2264 31.9524 42.0823 31.8901C41.6786 31.7499 41.2662 31.6363 40.8476 31.5502C40.7699 31.4575 40.7278 31.3399 40.729 31.2187C40.729 30.74 41.8591 29.7826 42.1162 29.3662C42.4383 28.8478 42.3987 28.049 42.6643 27.542C42.9016 27.0944 43.4865 26.8593 44.1052 26.4401C44.2059 26.848 44.2702 27.2642 44.2973 27.6836C44.3058 27.9757 44.2954 28.2681 44.2662 28.5589ZM79.5371 34.6831C79.3393 34.7652 79.2178 35.108 79.0116 35.21C78.2318 35.5952 77.3164 36.0966 76.3812 36.4592C75.5644 36.7436 74.7224 36.9494 73.8667 37.0739H73.0191C72.9259 36.9804 72.9118 37.0342 72.9118 36.8246C72.9118 36.615 73.1519 36.4592 73.2141 36.2581C73.3808 35.7992 73.6605 34.7964 74.0221 34.4338C74.3782 34.0936 74.6334 33.6613 74.7595 33.1846C74.8482 32.9566 74.9919 32.7542 75.1777 32.5954C75.5223 32.5699 76.0252 32.4878 76.2315 32.4878C76.4377 32.4878 78.7742 33.3178 78.9692 33.3178C79.1641 33.3178 79.1754 33.1506 79.3845 33.1506C79.5936 33.1506 79.8422 33.4339 80.0089 33.4339C80.362 33.4566 80.8988 33.2809 81.2944 33.6973C80.9667 34.2922 80.0456 34.4536 79.5371 34.6831ZM88.4311 29.9157C88.2552 29.8751 88.0824 29.8221 87.914 29.7571C87.6315 29.9979 87.4874 30.8165 87.2755 31.2442C87.2024 31.2534 87.1346 31.2874 87.0834 31.3406C85.5606 30.0715 84.0914 29.8336 82.5968 29.7288C82.3906 29.7288 82.1759 29.4058 82.0092 29.3634C81.4627 29.2303 80.9076 29.1356 80.3479 29.0801H79.1076C78.6499 29.0801 78.2261 28.913 78.2261 28.4966C78.2261 28.2898 78.4832 28.015 78.5962 27.8592C79.4919 27.6043 79.4721 26.9188 80.2575 26.9188C80.4638 26.9188 81.1531 27.2304 81.6702 27.2502C82.2277 27.2615 82.7845 27.2054 83.3286 27.0831C83.5377 27.0831 84.0349 27.3323 84.2412 27.3323C84.4474 27.3323 84.5237 27.0831 84.7384 27.0831C84.9531 27.0831 84.9447 27.2502 85.1537 27.2502C85.3628 27.2502 85.4363 27.0831 85.651 27.0831C85.8657 27.0831 86.5664 27.3862 87.0636 27.5505C87.5558 27.6803 88.0712 27.6939 88.5695 27.5901C88.5836 27.7034 88.6684 27.7034 88.6684 27.9102C88.6882 28.5844 88.1881 28.6269 88.4311 29.9157ZM94.5054 34.5839C94.5192 34.6711 94.5091 34.7603 94.4763 34.8421C94.4434 34.9239 94.389 34.9952 94.3189 35.0485C93.6465 35.2468 92.3412 35.8332 92.1435 35.8332C91.9457 35.8332 91.8948 35.7482 91.7875 35.7425C91.7875 35.7425 91.6858 35.7425 91.6858 35.5414C91.6858 35.3403 91.892 34.6208 91.9683 34.1251C91.9881 33.9494 92.3102 33.7936 92.3299 33.6265C92.3808 33.2951 92.361 32.9637 92.3836 32.6209C92.4514 32.5274 92.6153 32.366 92.6661 32.2895C92.6603 32.0715 92.6423 31.854 92.6125 31.638C92.6849 31.0917 92.9387 30.5858 93.3329 30.2018C93.4475 29.8221 93.6019 29.4556 93.7934 29.1084C93.898 29.1084 93.9799 29.1849 94.0986 29.2047C93.9799 29.5758 94.5195 29.8931 94.5195 30.2245C94.5195 30.4341 94.3528 30.5078 94.3528 30.7259C94.3528 30.944 94.6015 31.0573 94.6015 31.2669C94.6015 31.4765 94.1862 32.7201 94.1862 32.9297C94.1862 33.1393 94.4969 34.3743 94.4969 34.5839H94.5054ZM52.4709 5.21493C53.019 5.21493 53.423 6.03923 53.423 6.25735C53.3747 6.64764 53.2489 7.02426 53.0529 7.36492C52.8669 7.60096 52.5981 7.75698 52.3013 7.80115C52.0951 7.80115 52.112 7.7105 52.0358 7.65385C51.7984 7.63402 51.547 7.719 51.2814 7.67934C51.1854 7.53204 50.8463 7.3026 50.8463 7.09581C50.8463 6.88903 51.0215 6.81255 51.1514 6.65958C51.1439 6.4848 51.1251 6.3107 51.0949 6.13838C51.1006 5.41321 52.0245 5.21493 52.4709 5.21493ZM58.1214 4.88351C58.3806 4.91548 58.6349 4.97922 58.8786 5.07329C58.9944 5.10445 59.7262 6.11005 59.7262 6.42447C59.706 6.60115 59.6662 6.77501 59.6075 6.94285C59.2967 7.20346 58.9408 7.62835 58.7317 7.62835C58.5226 7.62835 58.4831 7.37908 58.2768 7.37908C58.0706 7.37908 57.9943 7.54621 57.7796 7.54621C57.5128 7.50095 57.2684 7.36849 57.0845 7.16946C56.8966 6.91353 56.7788 6.61275 56.7427 6.297C56.7372 6.19612 56.7521 6.09517 56.7866 6.00023C56.8211 5.90529 56.8744 5.81835 56.9433 5.74464C57.2435 5.52162 57.5216 5.27025 57.7739 4.99398C57.8732 4.92367 57.9914 4.88515 58.1129 4.88351H58.1214Z" fill="var(--fill-0, white)"/>
</g>
<defs>
<clipPath id="clip0_8_487">
<rect width="113" height="80" fill="white"/>
</clipPath>
</defs>
</svg>
