<svg preserveAspectRatio="none" width="100%" height="100%" overflow="visible" style="display: block;" viewBox="0 0 12.0002 14.0001" fill="none" xmlns="http://www.w3.org/2000/svg">
<g id="a">
<g id="Vector">
<mask id="path-1-inside-1_60_815" fill="white">
<path d="M8.63329 0.00133821C7.88426 0.0521986 7.0097 0.530019 6.49851 1.15239C6.03439 1.71587 5.6512 2.55373 5.79985 3.36883C6.61743 3.39426 7.46226 2.9044 7.9528 2.274C8.41114 1.68509 8.75964 0.851243 8.63329 0M8.90995 3.27648C7.6489 3.27648 7.11623 3.87744 6.24167 3.87744C5.33986 3.87744 4.65359 3.27648 3.56348 3.27648C2.49155 3.27648 1.35272 3.92964 0.63094 5.04455L0.617727 5.06597C0.311975 5.547 0.108638 6.17328 0.0371641 6.85411C-0.0255995 7.40822 -0.00908283 8.01319 0.0883658 8.64092C0.19184 9.27499 0.357165 9.8782 0.578087 10.4277C0.841877 11.09 1.15998 11.6911 1.52367 12.2145C2.10175 13.0778 2.86152 13.992 3.83931 14C4.75434 14.0094 5.01283 13.4151 6.25406 13.4084C7.49529 13.4017 7.72983 14.0067 8.64403 13.9973C9.58135 13.9906 10.3535 13.0604 10.9291 12.2145L11.0926 11.9696C11.4052 11.5072 11.6854 10.9906 11.9284 10.4291L12.0002 10.2711C11.1777 9.96061 10.5938 9.3543 10.2784 8.64092C10.0306 8.08145 9.94802 7.45507 10.0463 6.85411C10.1545 6.18757 10.484 5.55182 11.0538 5.0673C11.227 4.92144 11.4071 4.79792 11.5923 4.6979C10.8721 3.79847 9.86214 3.27782 8.90995 3.27782"/>
</mask>
<path d="M8.63329 0.00133821C7.88426 0.0521986 7.0097 0.530019 6.49851 1.15239C6.03439 1.71587 5.6512 2.55373 5.79985 3.36883C6.61743 3.39426 7.46226 2.9044 7.9528 2.274C8.41114 1.68509 8.75964 0.851243 8.63329 0M8.90995 3.27648C7.6489 3.27648 7.11623 3.87744 6.24167 3.87744C5.33986 3.87744 4.65359 3.27648 3.56348 3.27648C2.49155 3.27648 1.35272 3.92964 0.63094 5.04455L0.617727 5.06597C0.311975 5.547 0.108638 6.17328 0.0371641 6.85411C-0.0255995 7.40822 -0.00908283 8.01319 0.0883658 8.64092C0.19184 9.27499 0.357165 9.8782 0.578087 10.4277C0.841877 11.09 1.15998 11.6911 1.52367 12.2145C2.10175 13.0778 2.86152 13.992 3.83931 14C4.75434 14.0094 5.01283 13.4151 6.25406 13.4084C7.49529 13.4017 7.72983 14.0067 8.64403 13.9973C9.58135 13.9906 10.3535 13.0604 10.9291 12.2145L11.0926 11.9696C11.4052 11.5072 11.6854 10.9906 11.9284 10.4291L12.0002 10.2711C11.1777 9.96061 10.5938 9.3543 10.2784 8.64092C10.0306 8.08145 9.94802 7.45507 10.0463 6.85411C10.1545 6.18757 10.484 5.55182 11.0538 5.0673C11.227 4.92144 11.4071 4.79792 11.5923 4.6979C10.8721 3.79847 9.86214 3.27782 8.90995 3.27782" fill="var(--fill-0, black)"/>
<path d="M6.49851 1.15239L7.27038 1.78816L7.27126 1.7871L6.49851 1.15239ZM5.79985 3.36883L4.81607 3.54824L4.96105 4.34323L5.76876 4.36835L5.79985 3.36883ZM7.9528 2.274L7.16364 1.65981L7.16359 1.65987L7.9528 2.274ZM0.63094 5.04455L-0.208504 4.50111L-0.2144 4.51021L-0.220096 4.51944L0.63094 5.04455ZM0.617727 5.06597L1.46175 5.60244L1.46876 5.59107L0.617727 5.06597ZM0.0371641 6.85411L1.03084 6.96666L1.0317 6.95852L0.0371641 6.85411ZM0.0883658 8.64092L-0.899827 8.79433L-0.898579 8.80198L0.0883658 8.64092ZM0.578087 10.4277L1.50711 10.0577L1.50591 10.0547L0.578087 10.4277ZM1.52367 12.2145L2.35458 11.6581L2.3498 11.651L2.34489 11.6439L1.52367 12.2145ZM3.83931 14L3.84955 13.0001L3.84753 13L3.83931 14ZM8.64403 13.9973L8.63689 12.9973L8.63378 12.9974L8.64403 13.9973ZM10.9291 12.2145L11.7559 12.7771L11.7608 12.7698L10.9291 12.2145ZM11.0926 11.9696L10.2641 11.4096L10.2609 11.4144L11.0926 11.9696ZM11.9284 10.4291L11.0181 10.015L11.0143 10.0234L11.0106 10.032L11.9284 10.4291ZM12.0002 10.2711L12.9105 10.6852L13.3528 9.71286L12.3534 9.33557L12.0002 10.2711ZM10.2784 8.64092L11.1929 8.23648L11.1927 8.23601L10.2784 8.64092ZM10.0463 6.85411L11.0332 7.0155L11.0334 7.01432L10.0463 6.85411ZM11.0538 5.0673L10.4097 4.30238L10.406 4.30547L11.0538 5.0673ZM11.5923 4.6979L12.0675 5.57775L13.1218 5.00829L12.3729 4.07289L11.5923 4.6979ZM8.63329 0.00133821L8.56555 -0.996364C7.51234 -0.92485 6.39241 -0.293961 5.72575 0.517681L6.49851 1.15239L7.27126 1.7871C7.62699 1.354 8.25617 1.02925 8.70104 0.999041L8.63329 0.00133821ZM6.49851 1.15239L5.72663 0.51662C5.16314 1.20074 4.59402 2.33063 4.81607 3.54824L5.79985 3.36883L6.78362 3.18942C6.70838 2.77682 6.90563 2.231 7.27038 1.78816L6.49851 1.15239ZM5.79985 3.36883L5.76876 4.36835C6.97272 4.4058 8.10051 3.71252 8.74201 2.88812L7.9528 2.274L7.16359 1.65987C6.824 2.09628 6.26213 2.38273 5.83094 2.36932L5.79985 3.36883ZM7.9528 2.274L8.74196 2.88819C9.30822 2.16061 9.80131 1.05811 9.62245 -0.146825L8.63329 0L7.64413 0.146825C7.71798 0.644379 7.51406 1.20956 7.16364 1.65981L7.9528 2.274ZM8.90995 3.27648V2.27648C8.10086 2.27648 7.51955 2.47549 7.07935 2.64078C6.62029 2.81315 6.45801 2.87744 6.24167 2.87744V3.87744V4.87744C6.8999 4.87744 7.44123 4.64124 7.7824 4.51314C8.14244 4.37795 8.45798 4.27648 8.90995 4.27648V3.27648ZM6.24167 3.87744V2.87744C5.99716 2.87744 5.7718 2.80036 5.3096 2.63525C4.88281 2.48278 4.29622 2.27648 3.56348 2.27648V3.27648V4.27648C3.92085 4.27648 4.22245 4.37066 4.63677 4.51867C5.01569 4.65404 5.58436 4.87744 6.24167 4.87744V3.87744ZM3.56348 3.27648V2.27648C2.09624 2.27648 0.664808 3.15212 -0.208504 4.50111L0.63094 5.04455L1.47038 5.588C2.04063 4.70715 2.88686 4.27648 3.56348 4.27648V3.27648ZM0.63094 5.04455L-0.220096 4.51944L-0.23331 4.54086L0.617727 5.06597L1.46876 5.59107L1.48198 5.56966L0.63094 5.04455ZM0.617727 5.06597L-0.226221 4.52954C-0.629925 5.16468 -0.872969 5.94573 -0.957371 6.7497L0.0371641 6.85411L1.0317 6.95852C1.09024 6.40083 1.25387 5.92932 1.46167 5.60239L0.617727 5.06597ZM0.0371641 6.85411L-0.956482 6.74156C-1.0304 7.39416 -1.00928 8.08911 -0.899798 8.79432L0.0883658 8.64092L1.07653 8.48751C0.991111 7.93728 0.979202 7.42228 1.03081 6.96666L0.0371641 6.85411ZM0.0883658 8.64092L-0.898579 8.80198C-0.784247 9.50258 -0.600311 10.1775 -0.349741 10.8007L0.578087 10.4277L1.50591 10.0547C1.31464 9.57894 1.16793 9.0474 1.07531 8.47986L0.0883658 8.64092ZM0.578087 10.4277L-0.350932 10.7978C-0.0622358 11.5226 0.290536 12.1923 0.702445 12.7851L1.52367 12.2145L2.34489 11.6439C2.02943 11.1899 1.74599 10.6574 1.50711 10.0577L0.578087 10.4277ZM1.52367 12.2145L0.692757 12.7709C0.996082 13.2239 1.38824 13.755 1.8719 14.1795C2.35814 14.6063 3.01516 14.9933 3.8311 15L3.83931 14L3.84753 13C3.68567 12.9987 3.47392 12.9245 3.1913 12.6765C2.90611 12.4261 2.62934 12.0684 2.35458 11.6581L1.52367 12.2145ZM3.83931 14L3.82907 14.9999C4.53649 15.0072 5.02298 14.7605 5.32985 14.6243C5.60424 14.5026 5.83431 14.4107 6.25945 14.4084L6.25406 13.4084L6.24867 12.4084C5.43258 12.4128 4.91279 12.6214 4.51886 12.7961C4.15742 12.9565 4.05716 13.0022 3.84955 13.0001L3.83931 14ZM6.25406 13.4084L6.25945 14.4084C6.67789 14.4061 6.89627 14.4952 7.15761 14.6141C7.45547 14.7496 7.94072 15.0046 8.65428 14.9973L8.64403 13.9973L8.63378 12.9974C8.43313 12.9994 8.34401 12.9566 7.98575 12.7936C7.59097 12.614 7.07146 12.404 6.24867 12.4084L6.25406 13.4084ZM8.64403 13.9973L8.65117 14.9973C9.46071 14.9915 10.1135 14.5879 10.586 14.1686C11.0621 13.7461 11.4545 13.22 11.7559 12.7771L10.9291 12.2145L10.1024 11.652C9.82814 12.055 9.54665 12.4169 9.25847 12.6727C8.96665 12.9316 8.76467 12.9964 8.63689 12.9973L8.64403 13.9973ZM10.9291 12.2145L11.7608 12.7698L11.9243 12.5248L11.0926 11.9696L10.2609 11.4144L10.0974 11.6593L10.9291 12.2145ZM11.0926 11.9696L11.9211 12.5296C12.2716 12.0111 12.5809 11.4393 12.8462 10.8261L11.9284 10.4291L11.0106 10.032C10.79 10.542 10.5388 11.0033 10.2641 11.4096L11.0926 11.9696ZM11.9284 10.4291L12.8386 10.8432L12.9105 10.6852L12.0002 10.2711L11.09 9.85704L11.0181 10.015L11.9284 10.4291ZM12.0002 10.2711L12.3534 9.33557C11.7982 9.12598 11.4074 8.72147 11.1929 8.23648L10.2784 8.64092L9.36379 9.04535C9.78026 9.98714 10.5572 10.7952 11.647 11.2067L12.0002 10.2711ZM10.2784 8.64092L11.1927 8.23601C11.0224 7.85136 10.9668 7.42156 11.0332 7.0155L10.0463 6.85411L9.05941 6.69272C8.92926 7.48858 9.03883 8.31154 9.364 9.04583L10.2784 8.64092ZM10.0463 6.85411L11.0334 7.01432C11.1056 6.56917 11.3226 6.1514 11.7016 5.82914L11.0538 5.0673L10.406 4.30547C9.6454 4.95223 9.20333 5.80597 9.05921 6.6939L10.0463 6.85411ZM11.0538 5.0673L11.6979 5.83222C11.8229 5.72704 11.9467 5.64299 12.0675 5.57775L11.5923 4.6979L11.117 3.81804C10.8674 3.95286 10.6312 4.11584 10.4097 4.30239L11.0538 5.0673ZM11.5923 4.6979L12.3729 4.07289C11.4976 2.97967 10.2172 2.27782 8.90995 2.27782V3.27782V4.27782C9.50711 4.27782 10.2467 4.61727 10.8116 5.3229L11.5923 4.6979Z" fill="var(--stroke-0, black)" mask="url(#path-1-inside-1_60_815)"/>
</g>
</g>
</svg>
