<svg fill="none" height="29" viewBox="0 0 96 29" width="96" xmlns="http://www.w3.org/2000/svg"><g fill="#fff"><path d="m7.344 12.29c1.494-.018 2.538-.702 3.15-2.052l1.728 1.008c-.936 1.818-2.628 2.916-4.878 2.916-1.8 0-3.258-.63-4.392-1.89s-1.692-2.808-1.692-4.662.558-3.402 1.692-4.662 2.592-1.89 4.392-1.89c2.25 0 3.942 1.116 4.878 2.934l-1.728 1.008c-.612-1.368-1.656-2.052-3.15-2.052-1.224 0-2.196.45-2.916 1.332s-1.08 1.998-1.08 3.33.36 2.448 1.08 3.33 1.692 1.332 2.916 1.35zm14.0238 1.386v.324h-1.44c-.432 0-.648-.306-.648-.9-.72.72-1.314 1.062-2.61 1.062-2.016 0-3.51-.972-3.51-2.934.072-1.638.738-2.43 1.998-2.754.882-.27 1.512-.306 2.646-.36.954-.036 1.422-.342 1.422-.918 0-.648-.756-1.242-1.836-1.242-1.044 0-1.836.378-2.376 1.134l-1.278-1.116c.81-1.08 2.16-1.656 3.654-1.656 2.25 0 3.672 1.242 3.672 3.528v5.454c0 .252.108.378.306.378zm-4.698-1.08c1.062 0 1.764-.252 2.106-.738s.522-1.206.522-2.124v-.54c-.198.27-.72.396-1.026.45-.144.018-.378.018-.702.036-.306.018-.486.018-.504.018-1.296.054-1.944.576-1.944 1.53 0 .63.45 1.368 1.548 1.368zm11.0997-8.28c.18 0 .414.018.702.072v1.692c-.162-.054-.396-.072-.702-.072-.9 0-1.638.324-2.214.99-.576.648-.864 1.746-.864 3.294v3.708h-1.944v-9.522h1.944l.432 1.098c.828-.846 1.71-1.26 2.646-1.26zm5.3196 6.66c0 1.026.468 1.404 1.386 1.404.378 0 .774-.054.936-.072l.108-.036v1.674c-.864.144-1.53.216-1.998.216-1.602 0-2.376-.738-2.376-3.024v-4.95h-1.8v-1.71h1.8v-3.258h1.944v3.258h2.43v1.71h-2.43zm12.6084-1.908v.9h-7.344c.198 1.656 1.08 2.448 2.808 2.448 1.26 0 2.142-.45 2.664-1.332l1.458.864c-.774 1.314-2.322 2.214-4.122 2.214-1.458 0-2.61-.432-3.456-1.314s-1.26-2.088-1.26-3.6c0-1.44.432-2.628 1.278-3.546.864-.918 2.016-1.386 3.438-1.386 1.35 0 2.43.432 3.24 1.314.81.864 1.242 2.016 1.296 3.438zm-7.29-.846h5.508c-.234-1.368-1.314-2.214-2.754-2.214-1.386 0-2.448.792-2.754 2.214zm14.1289-3.906c.18 0 .414.018.702.072v1.692c-.162-.054-.396-.072-.702-.072-.9 0-1.638.324-2.214.99-.576.648-.864 1.746-.864 3.294v3.708h-1.944v-9.522h1.944l.432 1.098c.828-.846 1.71-1.26 2.646-1.26zm2.592 1.386c.846-.918 1.98-1.386 3.366-1.386 1.062 0 1.962.45 2.682 1.332v-4.428h1.962v12.78h-1.962l-.324-.828c-.684.666-1.476.99-2.358.99-1.386 0-2.502-.468-3.384-1.404-.918-.99-1.368-2.16-1.368-3.528s.468-2.538 1.386-3.528zm3.366 6.714c.756 0 1.422-.306 1.998-.918.54-.576.81-1.332.81-2.268 0-.918-.27-1.674-.792-2.268-.54-.594-1.206-.9-2.016-.9-.846 0-1.512.324-2.034.972-.504.63-.756 1.368-.756 2.196 0 .846.252 1.602.774 2.232s1.206.954 2.016.954zm15.7148-3.348v.9h-7.344c.198 1.656 1.08 2.448 2.808 2.448 1.26 0 2.142-.45 2.664-1.332l1.458.864c-.774 1.314-2.322 2.214-4.122 2.214-1.458 0-2.61-.432-3.456-1.314s-1.26-2.088-1.26-3.6c0-1.44.432-2.628 1.278-3.546.864-.918 2.016-1.386 3.438-1.386 1.35 0 2.43.432 3.24 1.314.81.864 1.242 2.016 1.296 3.438zm-7.29-.846h5.508c-.234-1.368-1.314-2.214-2.754-2.214-1.386 0-2.448.792-2.754 2.214zm16.8109 5.454v.324h-1.44c-.432 0-.648-.306-.648-.9-.72.72-1.314 1.062-2.61 1.062-2.016 0-3.51-.972-3.51-2.934.072-1.638.738-2.43 1.998-2.754.882-.27 1.512-.306 2.646-.36.954-.036 1.422-.342 1.422-.918 0-.648-.756-1.242-1.836-1.242-1.044 0-1.836.378-2.376 1.134l-1.278-1.116c.81-1.08 2.16-1.656 3.654-1.656 2.25 0 3.672 1.242 3.672 3.528v5.454c0 .252.108.378.306.378zm-4.698-1.08c1.062 0 1.764-.252 2.106-.738s.522-1.206.522-2.124v-.54c-.198.27-.72.396-1.026.45-.144.018-.378.018-.702.036-.306.018-.486.018-.504.018-1.296.054-1.944.576-1.944 1.53 0 .63.45 1.368 1.548 1.368z"/><path d="m3.135 27h-1.645v-4.97h1.645c.693 0 1.267.238 1.715.707.455.469.679 1.057.679 1.778s-.224 1.316-.672 1.785-1.022.7-1.722.7zm-.84-.728h.84c.483 0 .868-.161 1.155-.483.287-.329.434-.749.434-1.274s-.147-.945-.434-1.267c-.287-.329-.672-.49-1.155-.49h-.84zm3.84847.728v-3.703h.763v3.703zm.791-4.97v.826h-.819v-.826zm4.16553 1.267v3.213c0 1.253-.679 1.813-1.77104 1.813-.791 0-1.372-.175-1.743-.532l.49-.574c.301.287.714.434 1.239.434.70004 0 1.02204-.357 1.02204-1.141-.161.343-.53204.581-1.04304.581-.518 0-.931-.189-1.246-.567-.308-.385-.462-.84-.462-1.372 0-.511.161-.959.483-1.344s.749-.574 1.281-.574c.329 0 .623.112.88204.343l.105-.28zm-1.75004 3.115c.322 0 .574-.119.76304-.364.189-.245.28-.539.28-.896 0-.343-.091-.63-.28-.875-.18904-.245-.44104-.364-.76304-.364-.7 0-1.001.532-1.001 1.239 0 .343.077.637.238.889.161.245.42.371.763.371zm2.58714.588v-3.703h.763v3.703zm.791-4.97v.826h-.819v-.826zm1.8205 3.794c0 .399.182.546.539.546.147 0 .301-.021.364-.028l.042-.014v.651c-.336.056-.595.084-.777.084-.623 0-.924-.287-.924-1.176v-1.925h-.7v-.665h.7v-1.267h.756v1.267h.945v.665h-.945zm4.4342 1.05v.126h-.56c-.168 0-.252-.119-.252-.35-.28.28-.511.413-1.015.413-.784 0-1.365-.378-1.365-1.141.028-.637.287-.945.777-1.071.343-.105.588-.119 1.029-.14.371-.014.553-.133.553-.357 0-.252-.294-.483-.714-.483-.406 0-.714.147-.924.441l-.497-.434c.315-.42.84-.644 1.421-.644.875 0 1.428.483 1.428 1.372v2.121c0 .098.042.147.119.147zm-1.827-.42c.413 0 .686-.098.819-.287s.203-.469.203-.826v-.21c-.077.105-.28.154-.399.175-.056.007-.147.007-.273.014-.119.007-.189.007-.196.007-.504.021-.756.224-.756.595 0 .245.175.532.602.532zm3.1266.546h-.763v-4.97h.763zm4.4479 0h-1.645v-4.97h1.645c.693 0 1.267.238 1.715.707.455.469.679 1.057.679 1.778s-.224 1.316-.672 1.785-1.022.7-1.722.7zm-.84-.728h.84c.483 0 .868-.161 1.155-.483.287-.329.434-.749.434-1.274s-.147-.945-.434-1.267c-.287-.329-.672-.49-1.155-.49h-.84zm7.2154-1.19v.35h-2.856c.077.644.42.952 1.092.952.49 0 .833-.175 1.036-.518l.567.336c-.301.511-.903.861-1.603.861-.567 0-1.015-.168-1.344-.511s-.49-.812-.49-1.4c0-.56.168-1.022.497-1.379.336-.357.784-.539 1.337-.539.525 0 .945.168 1.26.511.315.336.483.784.504 1.337zm-2.835-.329h2.142c-.091-.532-.511-.861-1.071-.861-.539 0-.952.308-1.071.861zm3.9266-.434c0 .455.826.476 1.484.651.448.112.805.427.805.959 0 .378-.14.665-.413.854s-.616.28-1.015.28c-.728 0-1.141-.231-1.379-.469-.175-.175-.224-.273-.273-.385l.595-.21c.203.273.56.406 1.071.406.301.014.686-.077.707-.434 0-.749-2.261-.175-2.261-1.652 0-.364.14-.637.413-.812.273-.182.602-.273.98-.273.259 0 .504.042.728.126.231.084.385.161.476.231s.154.133.189.182l-.469.42c-.203-.203-.511-.301-.924-.301-.469 0-.707.14-.714.427zm2.9346 2.681v-3.703h.763v3.703zm.791-4.97v.826h-.819v-.826zm4.1655 1.267v3.213c0 1.253-.679 1.813-1.771 1.813-.791 0-1.372-.175-1.743-.532l.49-.574c.301.287.714.434 1.239.434.7 0 1.022-.357 1.022-1.141-.161.343-.532.581-1.043.581-.518 0-.931-.189-1.246-.567-.308-.385-.462-.84-.462-1.372 0-.511.161-.959.483-1.344s.749-.574 1.281-.574c.329 0 .623.112.882.343l.105-.28zm-1.75 3.115c.322 0 .574-.119.763-.364s.28-.539.28-.896c0-.343-.091-.63-.28-.875s-.441-.364-.763-.364c-.7 0-1.001.532-1.001 1.239 0 .343.077.637.238.889.161.245.42.371.763.371zm5.8841-1.722v2.31h-.763v-2.261c0-.623-.301-.847-.644-.847-.77 0-1.155.525-1.155 1.582v1.526h-.763v-3.703h.763l.154.371c.308-.287.658-.434 1.043-.434.91 0 1.365.483 1.365 1.456zm5.9202.049.518.553c-.119.231-.28.455-.476.672l.973 1.036h-1.036l-.399-.469c-.147.147-.35.273-.623.378s-.532.154-.784.154c-.707 0-1.701-.378-1.701-1.491 0-.567.364-1.064.987-1.365-.217-.245-.294-.343-.427-.616-.063-.14-.091-.273-.091-.406 0-.728.497-1.218 1.358-1.218.357 0 .658.112.889.336s.35.518.35.882c0 .511-.294.931-.889 1.274l.889.952c.154-.175.308-.399.462-.672zm-1.792-2.044c-.308 0-.497.217-.497.49 0 .217.154.469.455.763.392-.224.588-.476.588-.763 0-.301-.126-.49-.546-.49zm-.854 3.269c.161.266.441.399.826.399s.679-.126.896-.378l-1.106-1.225c-.42.147-.735.462-.735.819 0 .133.042.259.119.385zm7.6182 1.036h-1.645v-4.97h1.645c.693 0 1.267.238 1.715.707.455.469.679 1.057.679 1.778s-.224 1.316-.672 1.785-1.022.7-1.722.7zm-.84-.728h.84c.483 0 .868-.161 1.155-.483.287-.329.434-.749.434-1.274s-.147-.945-.434-1.267c-.287-.329-.672-.49-1.155-.49h-.84zm7.2155-1.19v.35h-2.856c.077.644.42.952 1.092.952.49 0 .833-.175 1.036-.518l.567.336c-.301.511-.903.861-1.603.861-.567 0-1.015-.168-1.344-.511s-.49-.812-.49-1.4c0-.56.168-1.022.497-1.379.336-.357.784-.539 1.337-.539.525 0 .945.168 1.26.511.315.336.483.784.504 1.337zm-2.835-.329h2.142c-.091-.532-.511-.861-1.071-.861-.539 0-.952.308-1.071.861zm6.6356-1.456-1.463 3.703h-.749l-1.463-3.703h.812l1.029 2.681 1.029-2.681zm3.7225 1.785v.35h-2.856c.077.644.42.952 1.092.952.49 0 .833-.175 1.036-.518l.567.336c-.301.511-.903.861-1.603.861-.567 0-1.015-.168-1.344-.511s-.49-.812-.49-1.4c0-.56.168-1.022.497-1.379.336-.357.784-.539 1.337-.539.525 0 .945.168 1.26.511.315.336.483.784.504 1.337zm-2.835-.329h2.142c-.091-.532-.511-.861-1.071-.861-.539 0-.952.308-1.071.861zm4.2345 2.247h-.763v-4.97h.763zm4.3208-1.848c0 .532-.175.987-.518 1.358s-.777.553-1.316.553c-.511 0-.952-.189-1.309-.56s-.539-.826-.539-1.351c0-.511.175-.952.525-1.337s.791-.581 1.323-.581c.525 0 .966.196 1.309.581.35.385.525.826.525 1.337zm-1.834 1.253c.322 0 .581-.126.777-.371.203-.245.301-.539.301-.882s-.098-.637-.287-.882c-.189-.252-.455-.378-.791-.378-.329 0-.595.126-.798.371-.196.245-.294.539-.294.889 0 .343.098.644.287.889.196.245.462.364.805.364zm5.5836.112c-.336.364-.77.546-1.309.546-.413 0-.756-.175-1.043-.525v1.722h-.763v-4.963h.763l.126.315c.259-.252.567-.378.917-.378.539 0 .98.182 1.316.539.357.385.532.84.532 1.372s-.182.987-.539 1.372zm-1.309-2.604c-.301 0-.56.119-.777.35-.21.224-.315.518-.315.882 0 .357.105.651.308.882.217.238.476.357.784.357.329 0 .588-.126.784-.378.203-.252.301-.539.301-.861 0-.329-.105-.616-.308-.861s-.462-.371-.777-.371zm7.7074.952v2.135h-.763v-2.219c0-.553-.14-.868-.623-.868-.336 0-.539.105-.686.581-.077.238-.112.567-.112.98v1.526h-.763v-2.135c0-.637-.21-.952-.623-.952-.595 0-.889.462-.889 1.393v1.694h-.763v-3.703h.756l.126.322c.238-.259.511-.385.812-.385.525 0 .896.189 1.099.56.315-.413.756-.56 1.043-.56.371 0 .679.091.868.21.196.119.336.343.399.511.077.168.112.462.112.623.007.077.007.168.007.287zm4.2075.217v.35h-2.856c.077.644.42.952 1.092.952.49 0 .833-.175 1.036-.518l.567.336c-.301.511-.903.861-1.603.861-.567 0-1.015-.168-1.344-.511s-.49-.812-.49-1.4c0-.56.168-1.022.497-1.379.336-.357.784-.539 1.337-.539.525 0 .945.168 1.26.511.315.336.483.784.504 1.337zm-2.835-.329h2.142c-.091-.532-.511-.861-1.071-.861-.539 0-.952.308-1.071.861zm6.7965-.063v2.31h-.763v-2.261c0-.623-.301-.847-.644-.847-.77 0-1.155.525-1.155 1.582v1.526h-.763v-3.703h.763l.154.371c.308-.287.658-.434 1.043-.434.91 0 1.365.483 1.365 1.456zm1.7891 1.134c0 .399.182.546.539.546.147 0 .301-.021.364-.028l.042-.014v.651c-.336.056-.595.084-.777.084-.623 0-.924-.287-.924-1.176v-1.925h-.7v-.665h.7v-1.267h.756v1.267h.945v.665h-.945z" fill-opacity=".7"/></g></svg>