<svg preserveAspectRatio="none" width="100%" height="100%" overflow="visible" style="display: block;" viewBox="0 0 18 18" fill="none" xmlns="http://www.w3.org/2000/svg">
<g id="Frame 15">
<path id="Vector" d="M7.34234 7.67997C5.88187 8.8779 4.47264 10.1342 3.0096 11.332C3.0096 11.332 1 12.591 1 13.0455C1 13.5 1.2815 13.5 1.22676 13.5H15.6379C15.9194 13.5 15.9194 12.9375 15.6379 12.6562C14.341 11.3605 12.9338 9.61734 13.3753 7.99156C13.724 6.70604 14.8711 5.83629 16.422 5.67735C16.7275 5.64428 16.9753 5.56035 16.9989 5.21832C17.0185 4.89026 16.7799 4.76692 16.502 4.71097C14.8936 4.39562 13.2967 4.39944 11.7458 4.95892C10.0849 5.55777 8.68084 6.58263 7.34234 7.67997Z" fill="var(--fill-0, white)"/>
</g>
</svg>
