<svg width="309" height="39" viewBox="0 0 309 39" fill="none" xmlns="http://www.w3.org/2000/svg">
<g clip-path="url(#clip0_2708_1061)">
<mask id="mask0_2708_1061" style="mask-type:luminance" maskUnits="userSpaceOnUse" x="51" y="12" width="258" height="16">
<path d="M308.6 12H51V28H308.6V12Z" fill="white"/>
</mask>
<g mask="url(#mask0_2708_1061)">
<path d="M60.3835 22.3459L57.7368 15.1279L55.0902 22.3459L54.4887 23.9098L53.0451 27.8798H51L56.8947 12.6016H58.6992L64.594 28.0001H62.4286L60.985 23.9098L60.3835 22.3459Z" fill="white"/>
<path d="M74.459 27.6397V12.2412H78.7899C80.1132 12.2412 81.3162 12.4818 82.3989 13.0833C83.4816 13.6848 84.2034 14.5269 84.8049 15.6096C85.4064 16.6923 85.647 18.0156 85.647 19.3389V20.4216C85.647 21.8652 85.4064 23.1885 84.8049 24.2713C84.2034 25.354 83.4816 26.1961 82.3989 26.7976C81.3162 27.3991 80.1132 27.6397 78.7899 27.6397H74.459ZM76.3839 13.9254V25.9555H78.5493C80.1132 25.9555 81.3162 25.4743 82.1583 24.5119C83.0004 23.5494 83.4816 22.1058 83.4816 20.3013V19.4592C83.4816 17.6547 83.1207 16.3314 82.2786 15.369C81.4365 14.4066 80.2335 13.9254 78.7899 13.9254H76.3839Z" fill="white"/>
<path d="M108.264 20.4211C108.264 21.985 108.023 23.188 107.542 24.391C107.061 25.4737 106.339 26.3158 105.377 26.9173C104.414 27.5188 103.332 27.7594 102.129 27.7594C100.926 27.7594 99.8429 27.5188 98.8805 26.9173C97.9181 26.3158 97.1963 25.4737 96.7151 24.391C96.2339 23.3083 95.873 21.985 95.873 20.5414V19.4586C95.873 18.015 96.1136 16.6917 96.5948 15.4887C97.076 14.406 97.7978 13.4436 98.7602 12.8421C99.7226 12.2406 100.805 12 102.008 12C103.211 12 104.294 12.2406 105.257 12.8421C106.219 13.4436 106.941 14.406 107.542 15.4887C108.023 16.5714 108.264 17.8947 108.264 19.4586V20.4211ZM106.219 19.4586C106.219 17.6541 105.858 16.2105 105.136 15.2481C104.414 14.2857 103.332 13.8045 102.008 13.8045C100.685 13.8045 99.7226 14.2857 99.0008 15.2481C98.279 16.2105 97.9181 17.5338 97.9181 19.218V20.4211C97.9181 22.2256 98.279 23.5489 99.0008 24.6316C99.7226 25.594 100.805 26.1955 102.129 26.1955C103.452 26.1955 104.414 25.7143 105.136 24.7519C105.858 23.7895 106.219 22.4662 106.219 20.6617V19.4586Z" fill="white"/>
<path d="M121.135 21.6246V27.6397H119.09V12.2412H124.744C126.428 12.2412 127.752 12.7224 128.714 13.5645C129.677 14.4066 130.158 15.6096 130.158 16.9329C130.158 18.3765 129.677 19.5795 128.714 20.4216C127.752 21.2637 126.428 21.6246 124.744 21.6246H121.135ZM121.135 19.9404H124.744C125.827 19.9404 126.669 19.6998 127.271 19.2186C127.872 18.7374 128.113 18.0156 128.113 17.0532C128.113 16.0908 127.872 15.369 127.271 14.8878C126.669 14.2863 125.947 14.0457 124.864 14.0457H121.135V19.9404Z" fill="white"/>
<path d="M179.241 20.4213C179.241 21.9852 179 23.1882 178.519 24.3912C178.038 25.4739 177.316 26.316 176.353 26.9175C175.391 27.519 174.308 27.7596 173.105 27.7596C171.902 27.7596 170.819 27.519 169.857 26.9175C168.895 26.316 168.173 25.4739 167.692 24.3912C167.21 23.3085 166.85 21.9852 166.85 20.5416V19.4589C166.85 18.0153 167.09 16.692 167.571 15.489C168.053 14.4063 168.774 13.4438 169.737 12.8423C170.699 12.2408 171.782 11.8799 172.985 11.8799C174.188 11.8799 175.271 12.1205 176.233 12.722C177.195 13.3235 177.917 14.1657 178.398 15.3687C178.88 16.4514 179.12 17.7747 179.12 19.3386V20.4213H179.241ZM177.195 19.4589C177.195 17.6544 176.835 16.2108 176.113 15.2484C175.391 14.286 174.308 13.8048 172.985 13.8048C171.662 13.8048 170.699 14.286 169.977 15.2484C169.256 16.2108 168.895 17.5341 168.895 19.2183V20.4213C168.895 22.2258 169.256 23.5491 169.977 24.6318C170.699 25.5942 171.782 26.1957 173.105 26.1957C174.428 26.1957 175.391 25.7145 176.113 24.7521C176.835 23.7897 177.195 22.4664 177.195 20.6619V19.4589Z" fill="white"/>
<path d="M201.497 25.594C201.016 26.3158 200.294 26.9173 199.332 27.2782C198.37 27.6391 197.287 27.8797 196.084 27.8797C194.881 27.8797 193.678 27.6391 192.715 27.0376C191.753 26.4361 191.031 25.594 190.43 24.5113C189.948 23.4286 189.588 22.2256 189.588 20.782V19.3383C189.588 17.0526 190.069 15.2481 191.151 13.9248C192.234 12.6015 193.798 12 195.723 12C197.287 12 198.61 12.3609 199.573 13.203C200.535 14.0451 201.136 15.2481 201.377 16.6917H199.332C198.971 14.6466 197.768 13.6842 195.723 13.6842C194.4 13.6842 193.317 14.1654 192.595 15.1278C191.873 16.0902 191.512 17.4135 191.512 19.3383V20.5414C191.512 22.2256 191.873 23.6692 192.715 24.6316C193.557 25.594 194.52 26.1955 195.963 26.1955C196.685 26.1955 197.407 26.0752 198.009 25.9549C198.61 25.8346 199.091 25.4737 199.452 25.1128V21.6241H195.843V19.9398H201.377V25.594H201.497Z" fill="white"/>
<path d="M221.346 20.5419H214.609V25.9555H222.308V27.6397H212.564V12.2412H222.188V13.9254H214.609V18.8577H221.225V20.5419H221.346Z" fill="white"/>
<path d="M243.601 13.9254H238.668V27.6397H236.623V13.9254H231.691V12.2412H243.601V13.9254Z" fill="white"/>
<path d="M265.497 27.6397H263.452V20.5419H255.633V27.6397H253.588V12.2412H255.633V18.8577H263.452V12.2412H265.497V27.6397Z" fill="white"/>
<path d="M285.587 20.5419H278.971V25.9555H286.67V27.6397H276.926V12.2412H286.55V13.9254H278.85V18.8577H285.467V20.5419H285.587Z" fill="white"/>
<path d="M302.67 21.384H299.061V27.6397H297.016V12.2412H302.069C303.753 12.2412 305.076 12.6021 306.039 13.4442C307.001 14.2863 307.482 15.369 307.482 16.9329C307.482 17.8953 307.242 18.7374 306.76 19.4592C306.279 20.181 305.557 20.6622 304.595 21.0231L308.204 27.5194V27.6397H306.039L302.67 21.384ZM299.061 19.6998H302.189C303.151 19.6998 303.993 19.4592 304.595 18.8577C305.196 18.3765 305.437 17.6547 305.437 16.8126C305.437 15.8502 305.196 15.1284 304.595 14.6472C303.993 14.166 303.151 13.9254 302.189 13.9254H299.061V19.6998Z" fill="white"/>
<path d="M146.158 27.6397V12.2412H139.301V13.9254H144.233V27.6397H146.158Z" fill="white"/>
<path d="M151.09 27.6397V12.2412H158.068V13.9254H153.015V27.6397H151.09Z" fill="white"/>
</g>
<path d="M19.9224 22.8521C20.4807 23.0622 20.6666 23.2855 20.7119 23.7836C20.7291 23.9714 20.7323 24.169 20.6939 24.352C20.4843 25.3498 20.2623 26.3448 20.0369 27.3392C20.0074 27.4697 19.9339 27.5902 19.8625 27.7584C19.7268 27.5391 19.6536 27.3739 19.5394 27.2451C19.2136 26.8777 19.0819 26.4502 19.0936 25.969C19.1205 24.8706 19.5601 23.888 19.9224 22.8521ZM24.5875 28.4042C24.3101 27.9896 24.0739 27.6591 23.8669 27.3112C23.8135 27.2215 23.834 27.0741 23.8519 26.958C23.9354 26.4195 24.0167 25.8801 24.1243 25.3462C24.2182 24.8797 24.3177 24.4107 24.4676 23.9604C24.5955 23.5763 24.834 23.5093 25.1693 23.7387C25.3999 23.8964 25.592 24.1103 25.8014 24.2991C25.343 25.6259 25.451 27.1292 24.5875 28.4042ZM17.5336 29.2332C17.58 29.2456 17.6266 29.2579 17.6733 29.2705C17.6913 29.3346 17.7166 29.3975 17.7266 29.4629C17.9698 31.0485 19.0877 31.8524 20.4697 32.2199C21.899 32.5998 23.3327 32.3255 24.6735 31.6726C24.9186 31.5533 25.1569 31.4148 25.4125 31.3251C25.5154 31.2888 25.6975 31.3207 25.7668 31.394C25.8263 31.4569 25.8091 31.637 25.7657 31.7401C25.7165 31.8566 25.6173 31.9701 25.5108 32.0415C24.6539 32.6159 23.6875 32.8978 22.6801 33.0401C20.8118 33.304 19.185 32.8525 17.9343 31.3629C17.5567 30.9134 17.29 30.4051 17.3347 29.7979C17.3489 29.6058 17.4644 29.4211 17.5336 29.2332ZM14.974 26.5448C14.7917 26.5796 14.6073 26.6073 14.4273 26.6517C14.2986 26.6835 14.1443 26.7057 14.0578 26.7902C13.951 26.8942 13.9028 27.0582 13.8293 27.1963C13.959 27.2541 14.0852 27.3494 14.2193 27.3621C14.5271 27.3912 14.8179 27.4017 14.6936 27.9402C14.4585 27.8856 14.2116 27.857 13.9876 27.7696C13.6463 27.6364 13.3319 27.6499 13.0805 27.9116C12.8142 28.1887 12.4392 28.4578 12.7325 28.8562C12.5788 29.0192 12.4149 29.1296 12.3413 29.2833C12.1495 29.6837 11.9972 30.1032 11.8084 30.5659C11.7098 30.4423 11.6607 30.3809 11.6119 30.3193C11.1978 29.7963 11.0192 29.7666 10.457 30.1263C10.412 30.1551 10.3675 30.1922 10.3177 30.2047C10.0072 30.2825 9.22493 29.8587 9.07579 29.5285C9.20668 29.4742 9.33739 29.4199 9.4681 29.3657C9.47037 29.3327 9.47255 29.2996 9.47473 29.2666C9.23546 29.2115 8.99791 29.1429 8.75573 29.109C8.67967 29.0983 8.53889 29.162 8.51665 29.2236C8.42769 29.4705 8.37377 29.7299 8.29843 30.0167C8.46137 29.9387 8.61332 29.866 8.76518 29.7934C8.79622 29.8371 8.82717 29.8809 8.85813 29.9247C8.59353 30.145 8.32902 30.3653 8.06452 30.5856C8.1011 30.5257 8.13759 30.4659 8.17408 30.4062C8.04056 30.2399 7.90694 30.0737 7.77323 29.9074C7.73466 29.9668 7.69626 30.0261 7.65769 30.0855C7.50846 29.6229 7.35932 29.1604 7.18504 28.6197C6.98453 28.8054 6.87443 28.9074 6.76441 29.0093C6.74063 28.9951 6.71703 28.9809 6.69334 28.9666C6.76877 28.818 6.86072 28.6749 6.91464 28.5189C6.96302 28.3794 7.03917 28.1571 6.97763 28.094C6.88795 28.0023 6.68581 28.02 6.53131 27.9929C6.49383 27.9862 6.45497 27.9868 6.36711 27.9805C6.42593 27.7849 6.48402 27.6088 6.53131 27.4299C6.60711 27.1427 6.54275 26.965 6.19519 27.0265C6.15489 27.0336 6.1135 27.0347 6.07347 27.0427C5.69486 27.1179 5.46158 27.0225 5.49998 26.5768C5.50914 26.4706 5.48019 26.3595 5.45831 26.2528C5.34612 25.7049 5.27205 25.7215 4.79324 25.9895C4.47127 26.1697 4.09249 26.4759 3.65552 26.1638C3.41707 25.9936 3.32647 26.2006 3.28263 26.3655C3.21074 26.6361 3.18197 26.9183 3.1394 27.1697C2.57825 27.0697 2.02764 26.9717 1.375 26.8554C1.4635 27.0375 1.50435 27.2178 1.61391 27.3322C2.50146 28.2589 3.58081 28.8736 4.80449 29.2435C4.86967 29.2632 4.94337 29.2737 4.99629 29.3119C6.08726 30.0995 7.20038 30.86 8.25114 31.6983C8.59371 31.9716 8.74348 32.4742 9.03522 32.8275C9.30916 33.1595 9.64175 33.4475 9.97206 33.7273C10.2233 33.9402 10.4313 34.124 10.5069 34.4949C10.608 34.9897 11.021 35.2766 11.4984 35.4407C11.6391 35.489 11.7858 35.5291 11.9148 35.6001C12.5535 35.9517 13.1883 36.3107 13.8221 36.6713C13.9621 36.751 14.1151 36.8263 14.2232 36.9405C14.8419 37.5939 15.6077 37.9653 16.4749 38.1514C16.5407 38.1655 16.6304 38.1345 16.6758 38.1686C17.0736 38.4681 17.5318 38.4739 17.9961 38.4597C18.3972 38.4476 18.8006 38.4573 19.1985 38.4158C19.4383 38.3908 19.6694 38.2847 19.9052 38.218C20.4703 38.0583 20.9987 37.8488 21.2443 37.2253C21.626 37.3007 21.995 37.3736 22.3641 37.4465L22.4069 37.3479C22.3482 37.2676 22.2895 37.1875 22.1788 37.036C22.4575 36.8388 22.7453 36.6513 23.012 36.4378C23.1035 36.3645 23.1919 36.2272 23.1954 36.1164C23.203 35.8738 23.1506 35.6299 23.1323 35.3857C23.122 35.2485 23.1304 35.11 23.1304 34.972C23.1807 34.9674 23.231 34.9627 23.2813 34.958C23.3372 35.2813 23.3825 35.6069 23.4533 35.9269C23.4897 36.0913 23.5717 36.2457 23.6332 36.4047C23.7827 36.3142 23.9322 36.2237 24.0963 36.1244C24.5157 36.7954 25.2292 37.1662 26.0068 37.1514C26.7623 37.1369 27.5849 37.1218 28.2372 36.5794C28.3077 36.5209 28.4072 36.4719 28.4965 36.4656C29.2501 36.4113 29.6941 35.9407 30.045 35.3378C30.3398 34.8313 30.6491 34.3328 30.9284 33.8182C31.2919 33.1485 31.4895 32.4378 31.4631 31.6612C31.4341 30.8073 31.4055 29.9477 31.4742 29.0985C31.5048 28.7196 31.3763 28.42 31.3139 28.0822C31.216 27.5521 31.1967 27.0079 31.1247 26.4723C31.0881 26.1985 31.0095 25.9305 30.9397 25.6145C30.9503 25.611 31.0579 25.574 31.1626 25.5383C31.3225 25.3586 31.074 24.8653 30.6723 24.5873C30.7227 24.5202 30.7724 24.454 30.8288 24.3787C30.2736 24.3477 29.7267 24.317 29.1798 24.2863C29.1784 24.2151 29.1769 24.1437 29.1754 24.0726C29.3828 24.0576 29.6111 23.9795 29.7935 24.0399C30.2695 24.1978 30.6851 24.0643 31.0809 23.8419C31.1595 23.7977 31.1703 23.5808 31.1629 23.4464C31.1478 23.1733 31.0811 22.9029 31.0686 22.63C31.055 22.3289 31.0236 22.0577 30.698 21.9249C30.6004 21.885 30.5133 21.819 30.3684 21.7339C30.4912 21.6181 30.5732 21.5119 30.6801 21.4458C30.926 21.2934 31.0347 21.0655 30.9153 20.8222C30.8192 20.6263 30.6416 20.4218 30.4486 20.3323C30.0808 20.1618 29.6808 20.0527 29.2856 19.9513C28.8253 19.8332 28.3756 19.8062 28.1781 20.3615C28.1149 20.3524 28.0886 20.3487 28.0623 20.345C28.1351 19.8345 27.5228 19.8038 27.4034 19.414C27.3755 19.3225 27.1877 19.2481 27.0621 19.2238C26.4259 19.1003 25.9711 18.7268 25.5903 18.2277C25.5349 18.1551 25.3893 18.0886 25.308 18.109C24.8603 18.2212 24.4006 18.3182 23.982 18.5038C23.5496 18.6956 23.481 18.7084 23.3376 18.2788C23.224 17.9382 22.8462 17.7115 22.4446 17.6927C22.1962 17.6811 21.9506 17.6063 21.704 17.558C21.6247 17.5425 21.5371 17.4886 21.4693 17.5081C20.8934 17.6743 20.3213 17.8532 19.748 18.0282C19.7557 18.0726 19.7634 18.117 19.7711 18.1614C19.9208 18.2664 20.0705 18.3715 20.251 18.498C20.41 18.112 20.6846 18.0053 21.0931 18.0887C21.4304 18.1577 21.5155 18.3269 21.4872 18.6301C21.434 19.1979 20.975 19.4658 20.467 19.2205C20.2396 19.1107 20.1757 19.1985 20.2353 19.4219C19.7881 19.4628 19.255 19.2096 19.1343 18.9013C19.5703 18.8903 19.6136 18.792 19.4746 18.0682C19.3465 18.1175 19.1996 18.1353 19.1085 18.2161C18.7432 18.5403 18.3459 18.4721 17.9157 18.3968C17.5227 18.3281 17.114 18.3512 16.7126 18.3265C16.5409 18.316 16.37 18.2676 16.1995 18.2711C15.9995 18.2751 15.797 18.3026 15.6013 18.3453C15.2358 18.4251 14.8683 18.505 14.5143 18.6227C14.3732 18.6696 14.1714 18.8063 14.1582 18.9206C14.0821 19.579 14.0123 20.2436 14.0224 20.9049C14.0318 21.5204 14.3019 22.0337 14.8862 22.3354C15.5087 22.6569 16.1279 22.9849 16.7413 23.3233C16.8138 23.3632 16.84 23.4867 16.941 23.6667C16.2445 23.4768 15.7294 23.6258 15.261 23.975C14.7351 24.3669 14.4084 24.8856 14.261 25.5221C14.2148 25.7213 14.1562 25.9177 14.1096 26.1169C14.0178 26.5099 14.0831 26.5771 14.4923 26.5147C14.6493 26.4907 14.8055 26.4604 14.962 26.433C14.9659 26.4702 14.97 26.5075 14.974 26.5448Z" fill="white"/>
<path d="M31.8256 15.728C32.0823 15.6919 32.2799 15.664 32.599 15.6191C32.3979 15.4863 32.2818 15.4097 32.1184 15.3017C32.2517 15.3017 32.3391 15.292 32.4238 15.3033C32.8909 15.3655 32.9999 15.2784 33.1248 14.8237C33.2975 14.1951 33.5379 13.5818 33.6641 12.9451C33.7343 12.5912 33.6315 12.203 33.6057 11.8156C33.9634 11.8579 34.0867 11.5427 34.2103 11.1655C34.4304 10.4942 34.7277 9.84764 34.9396 9.17412C35.0204 8.91742 35.0215 8.59419 34.9418 8.33776C34.8096 7.91305 34.6071 7.50412 34.3891 7.11372C34.1408 6.66903 33.4686 6.51645 33.0661 6.83215C32.7851 7.05245 32.5219 7.33593 32.349 7.646C31.8547 8.53283 31.715 9.52486 31.6343 10.52C31.5905 11.0607 31.8051 11.342 32.499 11.7393C32.3472 11.7393 32.2602 11.7449 32.1741 11.7383C31.5121 11.6883 31.289 11.8386 31.2739 12.5013C31.2587 13.1663 31.1732 13.7969 30.897 14.4084C30.7801 14.667 30.7576 14.9681 30.6906 15.2494C30.6812 15.2889 30.6738 15.3448 30.6462 15.3616C29.989 15.7636 30.2347 16.4188 30.2231 16.9805C30.2182 17.2175 30.4266 17.4531 30.5058 17.6997C30.5545 17.8515 30.521 18.0287 30.5635 18.1838C30.6043 18.3331 30.6954 18.4687 30.7644 18.6104C30.8944 18.5399 31.1005 18.497 31.1388 18.3928C31.2198 18.1721 31.1904 17.9133 31.2511 17.6817C31.2882 17.54 31.3796 17.3477 31.4956 17.3019C32.2503 17.0041 32.4246 16.361 31.8256 15.728Z" fill="white"/>
<path d="M21.432 4.03421C21.4667 3.72459 21.4985 3.41461 21.5367 3.10553C21.6548 2.15208 21.4552 1.26425 20.9302 0.467196C20.6402 0.0267773 19.8006 -0.173009 19.2119 0.183447C18.2218 0.782896 17.8832 2.61011 18.2296 3.45091C18.4955 4.09602 18.794 4.70854 19.3786 5.12754C19.442 5.17301 19.544 5.17574 19.6287 5.17828C20.0772 5.19189 20.5325 5.24708 20.9714 5.18617C21.162 5.15976 21.3847 4.9194 21.4725 4.72261C21.5585 4.52999 21.4912 4.26912 21.4912 4.0382C21.4715 4.03684 21.4517 4.03557 21.432 4.03421Z" fill="white"/>
<path d="M24.8783 3.94666C24.9358 4.36375 25.0299 5.13385 25.1522 5.89941C25.2188 6.31741 25.4704 6.46854 25.9099 6.47335C26.2043 6.47671 26.5041 6.50903 26.7911 6.57447C27.3001 6.69057 27.6185 6.51057 27.7089 5.99218C27.7508 5.752 27.754 5.50492 27.7725 5.26075C27.7941 4.97573 27.7276 4.64605 27.8488 4.41359C28.2964 3.55535 27.887 2.79088 27.638 2.02187C27.3617 1.16899 26.3859 0.973923 25.6779 1.51973C24.9708 2.06508 24.8519 2.78843 24.8783 3.94666Z" fill="white"/>
<path d="M15.4503 14.9083C15.8707 14.2867 15.6366 13.7689 15.2947 13.2963C15.0282 12.9279 14.7029 12.9054 14.3387 13.1796C13.8837 13.5221 13.4105 13.7822 12.8162 13.8082C12.6683 13.8147 12.4231 14.0276 12.4081 14.1657C12.3716 14.5036 12.4288 14.8552 12.4769 15.1972C12.5048 15.3956 12.5756 15.591 12.6494 15.7789C12.7566 16.0519 12.8764 16.3207 13.0046 16.5847C13.2119 17.0115 13.4567 17.4223 13.6362 17.8603C13.7919 18.2404 14.0159 18.2959 14.3225 18.0878C14.6139 17.8901 14.9219 17.692 15.1484 17.43C15.39 17.1505 15.5445 16.7958 15.7381 16.4744C15.7783 16.4075 15.8079 16.3099 15.8678 16.283C16.1355 16.1628 16.1095 15.9518 16.0667 15.7286C16.0435 15.6081 16.0014 15.4879 16.0002 15.3672C15.9968 15.0332 15.89 14.8173 15.4503 14.9083Z" fill="white"/>
<path d="M18.8024 12.6122C18.5954 13.4568 19.1268 14.1159 19.3873 14.8451C19.4205 14.9378 19.5624 15.0668 19.6373 15.0567C19.9863 15.0092 20.3293 14.9172 20.675 14.8443C20.8036 14.8172 20.9333 14.7884 21.0638 14.7785C21.4847 14.7467 21.7835 14.5438 21.8278 14.1243C21.8812 13.6191 21.842 13.1044 21.8481 12.5939C21.8513 12.324 21.8587 12.0538 21.8761 11.7844C21.9133 11.2071 21.631 10.8971 21.0585 10.9525C20.6047 10.9966 20.1704 11.148 19.7147 10.8709C19.6029 10.8029 19.2555 10.9888 19.105 11.1439C18.7097 11.5512 18.7145 12.0793 18.8024 12.6122Z" fill="white"/>
<path d="M18.9237 6.99824C18.9571 7.95559 18.9846 8.91331 19.0264 9.8704C19.0452 10.3003 19.2849 10.4393 19.6503 10.2093C20.0485 9.95872 20.4517 9.85324 20.9258 9.89064C21.3815 9.9265 21.8749 9.06989 21.7596 8.5574C21.6201 7.93808 21.5104 7.31194 21.4004 6.68644C21.3827 6.58614 21.4252 6.47313 21.4492 6.36811C21.5574 5.89583 21.5179 5.84445 21.0233 5.88693C20.5757 5.92542 20.1271 5.96327 19.6833 6.02999C19.1055 6.11685 18.8188 6.46314 18.9237 6.99824Z" fill="white"/>
<path d="M12.7108 5.961C12.7197 5.82267 12.7286 5.68433 12.7391 5.52231C12.6409 5.48282 12.4951 5.42409 12.3141 5.35129C12.5883 5.09006 12.8255 5.02198 13.1313 5.24028C13.2674 5.33732 13.4623 5.35202 13.6621 5.34539C13.4104 5.16285 13.4285 4.71536 13.0089 4.73206C12.9875 4.73296 12.9612 4.6756 12.9412 4.64283C12.6683 4.1947 12.3069 4.14713 11.9545 4.53345C11.4977 5.03414 11.2356 5.63949 11.1962 6.30729C11.159 6.93697 11.0791 7.57971 11.4106 8.18433C11.5546 8.4473 11.7079 8.59997 12.0099 8.55677C12.5623 8.47771 13.1169 8.40972 13.6648 8.30724C14.0019 8.24415 14.1809 8.01523 14.1478 7.65614C14.0975 7.11043 14.0764 6.55854 13.9725 6.023C13.9396 5.85389 13.705 5.67707 13.5218 5.59401C13.1816 5.4397 13.0039 5.69386 12.8739 5.98242C12.8194 5.97525 12.7651 5.96817 12.7108 5.961Z" fill="white"/>
<path d="M13.1062 10.2543C13.0803 10.0804 13.0616 9.9549 13.0361 9.78352C13.2304 10.0399 13.3912 10.2522 13.6015 10.5297C13.2006 10.4847 12.8439 10.4441 12.4872 10.4049C12.0746 10.3597 11.9129 10.5138 12.0781 10.8807C12.3148 11.4069 12.3432 11.9254 12.2347 12.4769C12.1821 12.7445 12.3014 12.9212 12.6003 12.8397C12.9377 12.7477 13.2639 12.616 13.5979 12.5107C13.7901 12.4499 13.9858 12.3773 14.1839 12.3629C14.5365 12.3372 14.7023 12.2092 14.6663 11.8239C14.6445 11.5914 14.7232 11.3502 14.7519 11.1122C14.7631 11.0195 14.7813 10.9205 14.7614 10.8323C14.6323 10.2605 14.5109 9.68631 14.3531 9.12226C14.2112 8.61503 13.8958 8.46653 13.4032 8.61794C13.1689 8.68992 12.9018 8.70444 12.7028 8.82961C12.4363 8.997 12.1625 9.2094 11.9984 9.46964C11.7458 9.87021 11.9764 10.2288 12.4468 10.2525C12.6578 10.2631 12.8697 10.2543 13.1062 10.2543Z" fill="white"/>
<path d="M26.1822 10.3795C26.1176 10.4285 26.0064 10.5128 25.8951 10.5971C26.0172 10.6878 26.1296 10.7976 26.2635 10.8651C26.501 10.9849 26.7513 11.079 27.0004 11.1856C27.1466 10.487 27.3017 9.89771 27.3868 9.29862C27.4846 8.61149 27.5328 7.91628 27.5782 7.22306C27.604 6.82875 27.3962 6.68343 27.0083 6.78546C26.5753 6.89946 26.1428 7.01547 25.7116 7.1361C25.4044 7.22197 25.2599 7.51652 25.3201 7.8393C25.3966 8.24931 25.4279 8.66804 25.5109 9.07651C25.5478 9.25886 25.6556 9.42915 25.7446 9.59789C25.8775 9.8496 26.0222 10.0952 26.1822 10.3795Z" fill="white"/>
<path d="M4.7672 25.4693C4.87948 25.1384 4.78535 25.021 4.42163 24.9103C3.99383 24.78 3.56667 24.6212 3.17363 24.4106C2.75581 24.1867 2.12133 24.2024 1.75098 24.5004C1.61737 24.6079 1.44309 24.6674 1.28288 24.7384C0.779193 24.962 0.605549 25.6656 0.983517 26.0251C1.05659 26.0946 1.28161 26.1345 1.32028 26.089C1.61537 25.7428 1.95867 25.8829 2.29642 25.948C2.32965 26.0658 2.3616 26.1787 2.39355 26.2918C2.46526 26.2657 2.5966 26.2444 2.59905 26.2129C2.61702 25.9864 2.60867 25.7578 2.52607 25.5395C2.6753 25.3321 2.80093 25.098 2.98728 24.9323C3.04918 24.8772 3.34319 24.9518 3.4001 25.0461C3.59753 25.3728 3.91169 25.36 4.21205 25.4062C4.37852 25.4318 4.5469 25.4447 4.7672 25.4693Z" fill="white"/>
<path d="M26.156 15.5958C26.5308 15.2863 26.5668 14.9107 26.3052 14.2231C26.321 14.2021 26.3333 14.169 26.3539 14.1624C26.5418 14.1035 26.8497 14.0992 26.8981 13.9843C27.0516 13.6198 27.112 13.2154 27.1987 12.8243C27.2116 12.766 27.1885 12.6508 27.1548 12.6388C26.8626 12.5348 26.5687 12.4019 26.266 12.3722C26.0347 12.3494 25.7884 12.4582 25.5514 12.5189C25.3562 12.5689 24.903 13.23 25.005 13.4112C25.1108 13.5992 25.3543 13.759 25.5701 13.8259C26.0466 13.9734 26.2048 14.2204 25.9608 14.5705C25.9182 14.6314 25.8455 14.6766 25.7782 14.7139C25.6879 14.7641 25.5893 14.7996 25.4944 14.8414C25.5571 14.9503 25.6029 15.0749 25.6864 15.1645C25.8317 15.3206 26.0003 15.455 26.156 15.5958Z" fill="white"/>
</g>
<defs>
<clipPath id="clip0_2708_1061">
<rect width="309" height="39" fill="white"/>
</clipPath>
</defs>
</svg>
