<svg fill="none" height="39" viewBox="0 0 309 39" width="309" xmlns="http://www.w3.org/2000/svg" xmlns:xlink="http://www.w3.org/1999/xlink"><clipPath id="a"><path d="m0 0h309v39h-309z"/></clipPath><mask id="b" height="16" maskUnits="userSpaceOnUse" width="258" x="51" y="12"><path d="m308.6 12h-257.6v16h257.6z" fill="#fff"/></mask><g clip-path="url(#a)" fill="#fff"><g mask="url(#b)"><path d="m60.3835 22.3459-2.6467-7.218-2.6466 7.218-.6015 1.5639-1.4436 3.97h-2.0451l5.8947-15.2782h1.8045l5.8948 15.3985h-2.1654l-1.4436-4.0903z"/><path d="m74.459 27.6397v-15.3985h4.3309c1.3233 0 2.5263.2406 3.609.8421s1.8045 1.4436 2.406 2.5263.8421 2.406.8421 3.7293v1.0827c0 1.4436-.2406 2.7669-.8421 3.8497-.6015 1.0827-1.3233 1.9248-2.406 2.5263s-2.2857.8421-3.609.8421zm1.9249-13.7143v12.0301h2.1654c1.5639 0 2.7669-.4812 3.609-1.4436.8421-.9625 1.3233-2.4061 1.3233-4.2106v-.8421c0-1.8045-.3609-3.1278-1.203-4.0902s-2.0451-1.4436-3.4887-1.4436z"/><path d="m108.264 20.4211c0 1.5639-.241 2.7669-.722 3.9699-.481 1.0827-1.203 1.9248-2.165 2.5263-.963.6015-2.045.8421-3.248.8421s-2.2861-.2406-3.2485-.8421-1.6842-1.4436-2.1654-2.5263-.8421-2.406-.8421-3.8496v-1.0828c0-1.4436.2406-2.7669.7218-3.9699.4812-1.0827 1.203-2.0451 2.1654-2.6466s2.0448-.8421 3.2478-.8421 2.286.2406 3.249.8421c.962.6015 1.684 1.5639 2.285 2.6466.481 1.0827.722 2.406.722 3.9699zm-2.045-.9625c0-1.8045-.361-3.2481-1.083-4.2105s-1.804-1.4436-3.128-1.4436c-1.323 0-2.2854.4812-3.0072 1.4436s-1.0827 2.2857-1.0827 3.9699v1.2031c0 1.8045.3609 3.1278 1.0827 4.2105.7218.9624 1.8042 1.5639 3.1282 1.5639 1.323 0 2.285-.4812 3.007-1.4436s1.083-2.2857 1.083-4.0902z"/><path d="m121.135 21.6246v6.0151h-2.045v-15.3985h5.654c1.684 0 3.008.4812 3.97 1.3233.963.8421 1.444 2.0451 1.444 3.3684 0 1.4436-.481 2.6466-1.444 3.4887-.962.8421-2.286 1.203-3.97 1.203zm0-1.6842h3.609c1.083 0 1.925-.2406 2.527-.7218.601-.4812.842-1.203.842-2.1654s-.241-1.6842-.842-2.1654c-.602-.6015-1.324-.8421-2.407-.8421h-3.729z"/><path d="m179.241 20.4213c0 1.5639-.241 2.7669-.722 3.9699-.481 1.0827-1.203 1.9248-2.166 2.5263-.962.6015-2.045.8421-3.248.8421s-2.286-.2406-3.248-.8421-1.684-1.4436-2.165-2.5263c-.482-1.0827-.842-2.406-.842-3.8496v-1.0827c0-1.4436.24-2.7669.721-3.9699.482-1.0827 1.203-2.0452 2.166-2.6467.962-.6015 2.045-.9624 3.248-.9624s2.286.2406 3.248.8421 1.684 1.4437 2.165 2.6467c.482 1.0827.722 2.406.722 3.9699v1.0827zm-2.046-.9624c0-1.8045-.36-3.2481-1.082-4.2105s-1.805-1.4436-3.128-1.4436-2.286.4812-3.008 1.4436c-.721.9624-1.082 2.2857-1.082 3.9699v1.203c0 1.8045.361 3.1278 1.082 4.2105.722.9624 1.805 1.5639 3.128 1.5639s2.286-.4812 3.008-1.4436 1.082-2.2857 1.082-4.0902z"/><path d="m201.497 25.594c-.481.7218-1.203 1.3233-2.165 1.6842s-2.045.6015-3.248.6015-2.406-.2406-3.369-.8421c-.962-.6015-1.684-1.4436-2.285-2.5263-.482-1.0827-.842-2.2857-.842-3.7293v-1.4437c0-2.2857.481-4.0902 1.563-5.4135 1.083-1.3233 2.647-1.9248 4.572-1.9248 1.564 0 2.887.3609 3.85 1.203.962.8421 1.563 2.0451 1.804 3.4887h-2.045c-.361-2.0451-1.564-3.0075-3.609-3.0075-1.323 0-2.406.4812-3.128 1.4436s-1.083 2.2857-1.083 4.2105v1.2031c0 1.6842.361 3.1278 1.203 4.0902s1.805 1.5639 3.248 1.5639c.722 0 1.444-.1203 2.046-.2406.601-.1203 1.082-.4812 1.443-.8421v-3.4887h-3.609v-1.6843h5.534v5.6542z"/><path d="m221.346 20.5419h-6.737v5.4136h7.699v1.6842h-9.744v-15.3985h9.624v1.6842h-7.579v4.9323h6.616v1.6842z"/><path d="m243.601 13.9254h-4.933v13.7143h-2.045v-13.7143h-4.932v-1.6842h11.91z"/><path d="m265.497 27.6397h-2.045v-7.0978h-7.819v7.0978h-2.045v-15.3985h2.045v6.6165h7.819v-6.6165h2.045z"/><path d="m285.587 20.5419h-6.616v5.4136h7.699v1.6842h-9.744v-15.3985h9.624v1.6842h-7.7v4.9323h6.617v1.6842z"/><path d="m302.67 21.384h-3.609v6.2557h-2.045v-15.3985h5.053c1.684 0 3.007.3609 3.97 1.203.962.8421 1.443 1.9248 1.443 3.4887 0 .9624-.24 1.8045-.722 2.5263-.481.7218-1.203 1.203-2.165 1.5639l3.609 6.4963v.1203h-2.165zm-3.609-1.6842h3.128c.962 0 1.804-.2406 2.406-.8421.601-.4812.842-1.203.842-2.0451 0-.9624-.241-1.6842-.842-2.1654-.602-.4812-1.444-.7218-2.406-.7218h-3.128z"/><path d="m146.158 27.6397v-15.3985h-6.857v1.6842h4.932v13.7143z"/><path d="m151.09 27.6397v-15.3985h6.978v1.6842h-5.053v13.7143z"/></g><path d="m19.9224 22.8521c.5583.2101.7442.4334.7895.9315.0172.1878.0204.3854-.018.5684-.2096.9978-.4316 1.9928-.657 2.9872-.0295.1305-.103.251-.1744.4192-.1357-.2193-.2089-.3845-.3231-.5133-.3258-.3674-.4575-.7949-.4458-1.2761.0269-1.0984.4665-2.081.8288-3.1169zm4.6651 5.5521c-.2774-.4146-.5136-.7451-.7206-1.093-.0534-.0897-.0329-.2371-.015-.3532.0835-.5385.1648-1.0779.2724-1.6118.0939-.4665.1934-.9355.3433-1.3858.1279-.3841.3664-.4511.7017-.2217.2306.1577.4227.3716.6321.5604-.4584 1.3268-.3504 2.8301-1.2139 4.1051zm-7.0539.829c.0464.0124.093.0247.1397.0373.018.0641.0433.127.0533.1924.2432 1.5856 1.3611 2.3895 2.7431 2.757 1.4293.3799 2.863.1056 4.2038-.5473.2451-.1193.4834-.2578.739-.3475.1029-.0363.285-.0044.3543.0689.0595.0629.0423.243-.0011.3461-.0492.1165-.1484.23-.2549.3014-.8569.5744-1.8233.8563-2.8307.9986-1.8683.2639-3.4951-.1876-4.7458-1.6772-.3776-.4495-.6443-.9578-.5996-1.565.0142-.1921.1297-.3768.1989-.5647zm-2.5596-2.6884c-.1823.0348-.3667.0625-.5467.1069-.1287.0318-.283.054-.3695.1385-.1068.104-.155.268-.2285.4061.1297.0578.2559.1531.39.1658.3078.0291.5986.0396.4743.5781-.2351-.0546-.482-.0832-.706-.1706-.3413-.1332-.6557-.1197-.9071.142-.2663.2771-.6413.5462-.348.9446-.1537.163-.3176.2734-.3912.4271-.1918.4004-.3441.8199-.5329 1.2826-.0986-.1236-.1477-.185-.1965-.2466-.4141-.523-.5927-.5527-1.1549-.193-.045.0288-.0895.0659-.1393.0784-.3105.0778-1.09277-.346-1.24191-.6762.13089-.0543.2616-.1086.39231-.1628.00227-.033.00445-.0661.00663-.0991-.23927-.0551-.47682-.1237-.719-.1576-.07606-.0107-.21684.053-.23908.1146-.08896.2469-.14288.5063-.21822.7931.16294-.078.31489-.1507.46675-.2233.03104.0437.06199.0875.09295.1313-.2646.2203-.52911.4406-.79361.6609.03658-.0599.07307-.1197.10956-.1794-.13352-.1663-.26714-.3325-.40085-.4988-.03857.0594-.07697.1187-.11554.1781-.14923-.4626-.29837-.9251-.47265-1.4658-.20051.1857-.31061.2877-.42063.3896-.02378-.0142-.04738-.0284-.07107-.0427.07543-.1486.16738-.2917.2213-.4477.04838-.1395.12453-.3618.06299-.4249-.08968-.0917-.29182-.074-.44632-.1011-.03748-.0067-.07634-.0061-.1642-.0124.05882-.1956.11691-.3717.1642-.5506.0758-.2872.01144-.4649-.33612-.4034-.0403.0071-.08169.0082-.12172.0162-.37861.0752-.61189-.0202-.57349-.4659.00916-.1062-.01979-.2173-.04167-.324-.11219-.5479-.18626-.5313-.66507-.2633-.32197.1802-.70075.4864-1.13772.1743-.23845-.1702-.32905.0368-.37289.2017-.07189.2706-.10066.5528-.14323.8042-.56115-.1-1.11176-.198-1.7644-.3143.0885.1821.12935.3624.23891.4768.88755.9267 1.9669 1.5414 3.19058 1.9113.06518.0197.13888.0302.1918.0684 1.09097.7876 2.20409 1.5481 3.25485 2.3864.34257.2733.49234.7759.78408 1.1292.27394.332.60653.62.93684.8998.25124.2129.45924.3967.53484.7676.1011.4948.5141.7817.9915.9458.1407.0483.2874.0884.4164.1594.6387.3516 1.2735.7106 1.9073 1.0712.14.0797.293.155.4011.2692.6187.6534 1.3845 1.0248 2.2517 1.2109.0658.0141.1555-.0169.2009.0172.3978.2995.856.3053 1.3203.2911.4011-.0121.8045-.0024 1.2024-.0439.2398-.025.4709-.1311.7067-.1978.5651-.1597 1.0935-.3692 1.3391-.9927.3817.0754.7507.1483 1.1198.2212l.0428-.0986c-.0587-.0803-.1174-.1604-.2281-.3119.2787-.1972.5665-.3847.8332-.5982.0915-.0733.1799-.2106.1834-.3214.0076-.2426-.0448-.4865-.0631-.7307-.0103-.1372-.0019-.2757-.0019-.4137.0503-.0046.1006-.0093.1509-.014.0559.3233.1012.6489.172.9689.0364.1644.1184.3188.1799.4778.1495-.0905.299-.181.4631-.2803.4194.671 1.1329 1.0418 1.9105 1.027.7555-.0145 1.5781-.0296 2.2304-.572.0705-.0585.17-.1075.2593-.1138.7536-.0543 1.1976-.5249 1.5485-1.1278.2948-.5065.6041-1.005.8834-1.5196.3635-.6697.5611-1.3804.5347-2.157-.029-.8539-.0576-1.7135.0111-2.5627.0306-.3789-.0979-.6785-.1603-1.0163-.0979-.5301-.1172-1.0743-.1892-1.6099-.0366-.2738-.1152-.5418-.185-.8578.0106-.0035.1182-.0405.2229-.0762.1599-.1797-.0886-.673-.4903-.951.0504-.0671.1001-.1333.1565-.2086-.5552-.031-1.1021-.0617-1.649-.0924-.0014-.0712-.0029-.1426-.0044-.2137.2074-.015.4357-.0931.6181-.0327.476.1579.8916.0244 1.2874-.198.0786-.0442.0894-.2611.082-.3955-.0151-.2731-.0818-.5435-.0943-.8164-.0136-.3011-.045-.5723-.3706-.7051-.0976-.0399-.1847-.1059-.3296-.191.1228-.1158.2048-.222.3117-.2881.2459-.1524.3546-.3803.2352-.6236-.0961-.1959-.2737-.4004-.4667-.4899-.3678-.1705-.7678-.2796-1.163-.381-.4603-.1181-.91-.1451-1.1075.4102-.0632-.0091-.0895-.0128-.1158-.0165.0728-.5105-.5395-.5412-.6589-.931-.0279-.0915-.2157-.1659-.3413-.1902-.6362-.1235-1.091-.497-1.4718-.9961-.0554-.0726-.201-.1391-.2823-.1187-.4477.1122-.9074.2092-1.326.3948-.4324.1918-.501.2046-.6444-.225-.1136-.3406-.4914-.5673-.893-.5861-.2484-.0116-.494-.0864-.7406-.1347-.0793-.0155-.1669-.0694-.2347-.0499-.5759.1662-1.148.3451-1.7213.5201.0077.0444.0154.0888.0231.1332.1497.105.2994.2101.4799.3366.159-.386.4336-.4927.8421-.4093.3373.069.4224.2382.3941.5414-.0532.5678-.5122.8357-1.0202.5904-.2274-.1098-.2913-.022-.2317.2014-.4472.0409-.9803-.2123-1.101-.5206.436-.011.4793-.1093.3403-.8331-.1281.0493-.275.0671-.3661.1479-.3653.3242-.7626.256-1.1928.1807-.393-.0687-.8017-.0456-1.2031-.0703-.1717-.0105-.3426-.0589-.5131-.0554-.2.004-.4025.0315-.5982.0742-.3655.0798-.733.1597-1.087.2774-.1411.0469-.3429.1836-.3561.2979-.0761.6584-.1459 1.323-.1358 1.9843.0094.6155.2795 1.1288.8638 1.4305.6225.3215 1.2417.6495 1.8551.9879.0725.0399.0987.1634.1997.3434-.6965-.1899-1.2116-.0409-1.68.3083-.5259.3919-.8526.9106-1 1.5471-.0462.1992-.1048.3956-.1514.5948-.0918.393-.0265.4602.3827.3978.157-.024.3132-.0543.4697-.0817.0039.0372.008.0745.012.1118z"/><path d="m31.8256 15.728c.2567-.0361.4543-.064.7734-.1089-.2011-.1328-.3172-.2094-.4806-.3174.1333 0 .2207-.0097.3054.0016.4671.0622.5761-.0249.701-.4796.1727-.6286.4131-1.2419.5393-1.8786.0702-.3539-.0326-.7421-.0584-1.1295.3577.0423.481-.2729.6046-.6501.2201-.6713.5174-1.31786.7293-1.99138.0808-.2567.0819-.57993.0022-.83636-.1322-.42471-.3347-.83364-.5527-1.22404-.2483-.44469-.9205-.59727-1.323-.28157-.281.2203-.5442.50378-.7171.81385-.4943.88683-.634 1.87886-.7147 2.874-.0438.5407.1708.822.8647 1.2193-.1518 0-.2388.0056-.3249-.001-.662-.05-.8851.1003-.9002.763-.0152.665-.1007 1.2956-.3769 1.9071-.1169.2586-.1394.5597-.2064.841-.0094.0395-.0168.0954-.0444.1122-.6572.402-.4115 1.0572-.4231 1.6189-.0049.237.2035.4726.2827.7192.0487.1518.0152.329.0577.4841.0408.1493.1319.2849.2009.4266.13-.0705.3361-.1134.3744-.2176.081-.2207.0516-.4795.1123-.7111.0371-.1417.1285-.334.2445-.3798.7547-.2978.929-.9409.33-1.5739z"/><path d="m21.432 4.03421c.0347-.30962.0665-.6196.1047-.92868.1181-.95345-.0815-1.84128-.6065-2.638334-.29-.4404187-1.1296-.640205-1.7183-.283749-.9901.599449-1.3287 2.426663-.9823 3.267463.2659.64511.5644 1.25763 1.149 1.67663.0634.04547.1654.0482.2501.05074.4485.01361.9038.0688 1.3427.00789.1906-.02641.4133-.26677.5011-.46356.086-.19262.0187-.45349.0187-.68441-.0197-.00136-.0395-.00263-.0592-.00399z"/><path d="m24.8783 3.94666c.0575.41709.1516 1.18719.2739 1.95275.0666.418.3182.56913.7577.57394.2944.00336.5942.03568.8812.10112.509.1161.8274-.0639.9178-.58229.0419-.24018.0451-.48726.0636-.73143.0216-.28502-.0449-.6147.0763-.84716.4476-.85824.0382-1.62271-.2108-2.39172-.2763-.85288-1.2521-1.047947-1.9601-.50214-.7071.54535-.826 1.2687-.7996 2.42693z"/><path d="m15.4503 14.9083c.4204-.6216.1863-1.1394-.1556-1.612-.2665-.3684-.5918-.3909-.956-.1167-.455.3425-.9282.6026-1.5225.6286-.1479.0065-.3931.2194-.4081.3575-.0365.3379.0207.6895.0688 1.0315.0279.1984.0987.3938.1725.5817.1072.273.227.5418.3552.8058.2073.4268.4521.8376.6316 1.2756.1557.3801.3797.4356.6863.2275.2914-.1977.5994-.3958.8259-.6578.2416-.2795.3961-.6342.5897-.9556.0402-.0669.0698-.1645.1297-.1914.2677-.1202.2417-.3312.1989-.5544-.0232-.1205-.0653-.2407-.0665-.3614-.0034-.334-.1102-.5499-.5499-.4589z"/><path d="m18.8024 12.6122c-.207.8446.3244 1.5037.5849 2.2329.0332.0927.1751.2217.25.2116.349-.0475.692-.1395 1.0377-.2124.1286-.0271.2583-.0559.3888-.0658.4209-.0318.7197-.2347.764-.6542.0534-.5052.0142-1.0199.0203-1.5304.0032-.2699.0106-.5401.028-.8095.0372-.5773-.2451-.8873-.8176-.8319-.4538.0441-.8881.1955-1.3438-.0816-.1118-.068-.4592.1179-.6097.273-.3953.4073-.3905.9354-.3026 1.4683z"/><path d="m18.9237 6.99824c.0334.95735.0609 1.91507.1027 2.87216.0188.4299.2585.5689.6239.3389.3982-.25058.8014-.35606 1.2755-.31866.4557.03586.9491-.82075.8338-1.33324-.1395-.61932-.2492-1.24546-.3592-1.87096-.0177-.1003.0248-.21331.0488-.31833.1082-.47228.0687-.52366-.4259-.48118-.4476.03849-.8962.07634-1.34.14306-.5778.08686-.8645.43315-.7596.96825z"/><path d="m12.7108 5.961c.0089-.13833.0178-.27667.0283-.43869-.0982-.03949-.244-.09822-.425-.17102.2742-.26123.5114-.32931.8172-.11101.1361.09704.331.11174.5308.10511-.2517-.18254-.2336-.63003-.6532-.61333-.0214.0009-.0477-.05646-.0677-.08923-.2729-.44813-.6343-.4957-.9867-.10938-.4568.50069-.7189 1.10604-.7583 1.77384-.0372.62968-.1171 1.27242.2144 1.87704.144.26297.2973.41564.5993.37244.5524-.07906 1.107-.14705 1.6549-.24953.3371-.06309.5161-.29201.483-.6511-.0503-.54571-.0714-1.0976-.1753-1.63314-.0329-.16911-.2675-.34593-.4507-.42899-.3402-.15431-.5179.09985-.6479.38841-.0545-.00717-.1088-.01425-.1631-.02142z"/><path d="m13.1062 10.2543c-.0259-.1739-.0446-.2994-.0701-.47078.1943.25638.3551.46868.5654.74618-.4009-.045-.7576-.0856-1.1143-.1248-.4126-.0452-.5743.1089-.4091.4758.2367.5262.2651 1.0447.1566 1.5962-.0526.2676.0667.4443.3656.3628.3374-.092.6636-.2237.9976-.329.1922-.0608.3879-.1334.586-.1478.3526-.0257.5184-.1537.4824-.539-.0218-.2325.0569-.4737.0856-.7117.0112-.0927.0294-.1917.0095-.2799-.1291-.5718-.2505-1.14599-.4083-1.71004-.1419-.50723-.4573-.65573-.9499-.50432-.2343.07198-.5014.0865-.7004.21167-.2665.16739-.5403.37979-.7044.64003-.2526.40057-.022.75916.4484.78286.211.0106.4229.0018.6594.0018z"/><path d="m26.1822 10.3795c-.0646.049-.1758.1333-.2871.2176.1221.0907.2345.2005.3684.268.2375.1198.4878.2139.7369.3205.1462-.6986.3013-1.28789.3864-1.88698.0978-.68713.146-1.38234.1914-2.07556.0258-.39431-.182-.53963-.5699-.4376-.433.114-.8655.23001-1.2967.35064-.3072.08587-.4517.38042-.3915.7032.0765.41001.1078.82874.1908 1.23721.0369.18235.1447.35264.2337.52138.1329.25171.2776.49731.4376.78161z"/><path d="m4.7672 25.4693c.11228-.3309.01815-.4483-.34557-.559-.4278-.1303-.85496-.2891-1.248-.4997-.41782-.2239-1.0523-.2082-1.42265.0898-.13361.1075-.30789.167-.4681.238-.503687.2236-.677331.9272-.299363 1.2867.073073.0695.298093.1094.336763.0639.29509-.3462.63839-.2061.97614-.141.03323.1178.06518.2307.09713.3438.07171-.0261.20305-.0474.2055-.0789.01797-.2265.00962-.4551-.07298-.6734.14923-.2074.27486-.4415.46121-.6072.0619-.0551.35591.0195.41282.1138.19743.3267.51159.3139.81195.3601.16647.0256.33485.0385.55515.0631z"/><path d="m26.156 15.5958c.3748-.3095.4108-.6851.1492-1.3727.0158-.021.0281-.0541.0487-.0607.1879-.0589.4958-.0632.5442-.1781.1535-.3645.2139-.7689.3006-1.16.0129-.0583-.0102-.1735-.0439-.1855-.2922-.104-.5861-.2369-.8888-.2666-.2313-.0228-.4776.086-.7146.1467-.1952.05-.6484.7111-.5464.8923.1058.188.3493.3478.5651.4147.4765.1475.6347.3945.3907.7446-.0426.0609-.1153.1061-.1826.1434-.0903.0502-.1889.0857-.2838.1275.0627.1089.1085.2335.192.3231.1453.1561.3139.2905.4696.4313z"/></g></svg>