<svg width="69" height="80" viewBox="0 0 69.1187 80.0031" fill="none" xmlns="http://www.w3.org/2000/svg">
<g id="Group">
<path id="path-1" d="M0 72H69V80H0V72Z" fill="var(--fill-0, #FF322D)"/>
<g id="Vector">
</g>
<path id="Vector_2" d="M0 71.6507H69.1187V80.0031H0.00066674L0 71.6507Z" fill="var(--fill-0, white)"/>
<path id="Vector_3" d="M15.9095 18.8547L4.29114 53.7011H12.7032L20.5947 29.0704L24.55 41.3844H19.4335L17.3901 48.4138H26.8078L28.506 53.7011H37.1585L25.5415 18.8547H15.9095Z" fill="var(--fill-0, white)"/>
<path id="Vector_4" d="M50.3773 18.8547H38.3V53.7011H46.652V25.8842H50.0175C53.9226 25.8842 56.1459 27.7462 56.1459 31.1109C56.1459 34.4153 53.9226 36.338 50.0175 36.338H49.4768V43.3673H50.3773C59.3903 43.3673 64.678 38.8309 64.678 31.1109C64.678 23.2404 59.3903 18.8547 50.3773 18.8547Z" fill="var(--fill-0, white)"/>
</g>
</svg>
