<svg fill="none" height="58" viewBox="0 0 512 58" width="512" xmlns="http://www.w3.org/2000/svg" xmlns:xlink="http://www.w3.org/1999/xlink"><clipPath id="a"><path d="m0 0h512v58h-512z"/></clipPath><g clip-path="url(#a)" fill="#fff"><path d="m145.855 11.7244c5.486 0 9.574 1.721 13.231 5.0554.538.4303.538 1.0757.107 1.5059l-4.302 4.4101c-.43.4302-.968.4302-1.399 0-2.043-1.8286-4.732-2.7966-7.421-2.7966-6.239 0-10.757 5.163-10.757 11.2941s4.626 11.079 10.757 11.079c2.581 0 5.378-.9681 7.314-2.5815.43-.3227 1.076-.3227 1.398.1075l4.303 4.5177c.43.4302.322 1.0756-.108 1.5058-3.765 3.6572-8.39 5.2706-13.338 5.2706-10.971 0-19.791-8.7126-19.791-19.684s9.035-19.684 20.006-19.684z"/><path d="m182.427 11.7244c10.971 0 19.684 8.8201 19.684 19.7916 0 10.9714-8.713 19.684-19.684 19.684s-19.684-8.7126-19.684-19.684c0-10.9715 8.82-19.7916 19.684-19.7916zm0 30.763c6.023 0 10.971-4.9479 10.971-10.8639 0-6.0235-4.948-10.9714-10.971-10.9714-6.024 0-10.864 4.9479-10.864 10.9714 0 5.916 4.948 10.8639 10.864 10.8639z"/><path d="m208.78 13.3378c0-.5378.43-1.0756.968-1.0756h13.338c10.541 0 19.253 8.605 19.253 19.1462 0 10.6488-8.605 19.2538-19.253 19.2538h-13.338c-.538 0-.968-.5378-.968-1.0756zm13.875 29.2572c6.239 0 10.649-4.8404 10.649-11.079 0-6.2387-4.517-11.079-10.649-11.079h-5.27v22.158z"/><path d="m249.116 13.3378c0-.5378.43-1.0756 1.076-1.0756h22.695c.646 0 1.076.5378 1.076 1.0756v6.0236c0 .5378-.43 1.0756-1.076 1.0756h-15.166v6.7765h12.477c.538 0 1.076.5378 1.076 1.0756v6.0235c0 .6454-.538 1.0757-1.076 1.0757h-12.477v7.4218h15.166c.646 0 1.076.5378 1.076 1.0756v6.0236c0 .5378-.43 1.0756-1.076 1.0756h-22.695c-.646 0-1.076-.5378-1.076-1.0756z"/><path d="m310.319 11.7244c5.486 0 9.573 1.721 13.231 5.0554.537.4303.537 1.0757.107 1.5059l-4.302 4.4101c-.431.4302-.968.4302-1.399 0-2.043-1.8286-4.732-2.7966-7.422-2.7966-6.238 0-10.756 5.163-10.756 11.2941s4.625 11.079 10.756 11.079c2.582 0 5.379-.9681 7.315-2.5815.43-.3227 1.075-.3227 1.398.1075l4.303 4.5177c.43.4302.322 1.0756-.108 1.5058-3.765 3.6572-8.39 5.2706-13.338 5.2706-10.971 0-19.791-8.7126-19.791-19.684s9.035-19.684 20.006-19.684z"/><path d="m330.111 13.3378c0-.5378.43-1.0756 1.076-1.0756h6.561c.538 0 1.076.5378 1.076 1.0756v29.2572h13.015c.645 0 1.075.5378 1.075 1.0756v6.0235c0 .5379-.43 1.0757-1.075 1.0757h-20.545c-.645 0-1.075-.5378-1.075-1.0757v-36.3563z"/><path d="m358.185 13.3378c0-.5378.538-1.0756 1.076-1.0756h6.561c.538 0 1.076.5378 1.076 1.0756v36.2488c0 .5378-.538 1.0756-1.076 1.0756h-6.561c-.538 0-1.076-.5378-1.076-1.0756z"/><path d="m380.02 12.6924c.108-.5378.538-.8605.968-.8605h.861c.322 0 .753.2151.968.5378l12.692 23.6639h.108l12.692-23.6639c.215-.3227.646-.5378.968-.5378h.861c.43 0 .968.4303.968.8605l6.238 36.7866c.108.7529-.43 1.1832-1.075 1.1832h-6.454c-.538 0-.968-.4303-1.076-.8605l-2.473-16.8874h-.108l-9.143 17.6403c-.215.3227-.645.6454-.968.6454h-.968c-.323 0-.753-.3227-.968-.6454l-9.251-17.7479h-.107l-2.366 16.8874c-.108.4302-.538.8605-1.076.8605h-6.454c-.645 0-1.183-.5378-1.076-1.1832z"/><path d="m419.388 49.2639 17.103-36.8942c.215-.3226.538-.6453.968-.6453h.538c.43 0 .753.3227.968.6453l17.102 36.8942c.323.7529-.107 1.3983-.968 1.3983h-6.131c-.968 0-1.398-.3227-1.936-1.3983l-1.936-4.3026h-14.844l-1.936 4.4101c-.323.6454-.86 1.2908-1.936 1.2908h-6.024c-.86 0-1.29-.753-.968-1.3983zm22.481-11.7244-4.195-9.0353h-.108l-4.087 9.0353z"/><path d="m463.597 20.3295h-7.852c-.646 0-1.076-.5379-1.076-1.0757v-6.0235c0-.5378.43-1.0756 1.076-1.0756h24.309c.645 0 1.075.5378 1.075 1.0756v6.1311c0 .5378-.43 1.0756-1.075 1.0756h-7.852v29.2572c0 .5378-.538 1.0756-1.076 1.0756h-6.561c-.538 0-1.076-.5378-1.076-1.0756v-29.3647z"/><path d="m486.508 13.3378c0-.5378.43-1.0756 1.075-1.0756h22.696c.645 0 1.076.5378 1.076 1.0756v6.0236c0 .5378-.431 1.0756-1.076 1.0756h-15.166v6.7765h12.477c.538 0 1.076.5378 1.076 1.0756v6.0235c0 .6454-.538 1.0757-1.076 1.0757h-12.477v7.4218h15.166c.645 0 1.076.5378 1.076 1.0756v6.0236c0 .5378-.431 1.0756-1.076 1.0756h-22.696c-.645 0-1.075-.5378-1.075-1.0756z"/><path d="m68.6252 0-19.5765 19.4689 11.6168 11.6168 7.9597-7.9596 22.3731 22.4806 11.5097-11.6168z"/><path d="m45.4992 23.0185-11.5093-11.5092-29.47225 29.4722-4.51765 4.5177 11.6168 11.6168 4.5177-4.6252 14.9512-14.8437 2.9042-2.9042 11.5093 11.5092 10.8638 10.8639 11.6168-11.6168-10.8638-10.8639z"/></g></svg>