<?xml version="1.0" encoding="UTF-8"?>
<svg width="478px" height="73px" viewBox="0 0 478 73" version="1.1" xmlns="http://www.w3.org/2000/svg" xmlns:xlink="http://www.w3.org/1999/xlink">
    <title>Group</title>
    <defs>
        <filter color-interpolation-filters="auto" id="filter-1">
            <feColorMatrix in="SourceGraphic" type="matrix" values="0 0 0 0 1.000000 0 0 0 0 1.000000 0 0 0 0 1.000000 0 0 0 1.000000 0"></feColorMatrix>
        </filter>
        <filter color-interpolation-filters="auto" id="filter-2">
            <feColorMatrix in="SourceGraphic" type="matrix" values="0 0 0 0 0.847000 0 0 0 0 0.847000 0 0 0 0 0.847000 0 0 0 1.000000 0"></feColorMatrix>
        </filter>
        <path d="M49.4461128,57.3974854 L49.4461128,62.3546414 L33.1112362,71.6392168 L16.7763597,62.3546414 L16.7763597,57.3974854 L33.1112362,66.6820609 L49.4461128,57.3974854 Z M42.3823824,52.9469443 L42.3823824,57.9686268 L32.6697531,63.6282429 L22.9571238,57.9686268 L22.9571238,52.9469443 L32.6697531,58.5983818 L42.3823824,52.9469443 Z M65.3395062,48.1477922 L65.3395062,53.0980173 L52.2716049,60.5475417 L52.2716049,55.5973166 L65.2905015,48.1477922 L65.3395062,48.1477922 Z M0.0490046296,48.1477922 L13.1169059,55.5973166 L13.1169059,60.5475417 L0.0490046296,53.1463908 L0.0490046296,48.1477922 Z M65.3395062,39.5953211 L65.3395062,44.5214483 L45.9142476,55.617269 L45.9142476,50.6911418 L65.290943,39.5953211 L65.3395062,39.5953211 Z M0,39.5953211 L19.4252586,50.7083488 L19.4252586,55.617269 L0,44.5522112 L0,39.5953211 Z M49.0046296,40.1742211 L49.0046296,45.0921972 L32.6697531,54.3637915 L16.3348765,45.1244462 L16.3348765,40.1742211 L32.6697531,49.4458154 L49.0046296,40.1742211 Z M12.3615282,28.9140225 L33.2212939,40.8217401 L52.977978,29.5497528 L52.977978,34.5540913 L33.2212939,45.8260786 L12.3615282,33.918361 L12.3615282,28.9140225 Z M0.0490046296,30.846191 L13.1169059,38.2957155 L13.1169059,43.2701274 L0.0490046296,35.8206029 L0.0490046296,30.846191 Z M65.3395062,30.6942389 L65.3395062,35.6691221 L52.0950117,43.155754 L52.0950117,38.1808709 L65.2898393,30.6942389 L65.3395062,30.6942389 Z M47.9918673,23.630472 L52.2716049,26.0491488 L32.6697531,37.1992487 L28.3900154,34.7805719 L47.9918673,23.630472 Z M65.3395062,22.683265 L65.3395062,27.7049475 L55.6268769,33.3645636 L55.6268769,28.3428811 L65.290943,22.683265 L65.3395062,22.683265 Z M30.0708334,25.3535897 L34.4356857,27.7011278 L25.5560435,32.4744554 L21.1911912,30.1269172 L30.0708334,25.3535897 Z M0,22.683265 C2.94046,24.3337344 5.88920299,25.9283908 8.829663,27.5788602 L8.829663,27.5788602 L8.829663,32.4744554 L0,27.5788602 Z M35.7407099,14.1492591 L40.0204475,16.5679359 L18.262392,28.9918722 L13.9826543,26.5731954 L35.7407099,14.1492591 Z M53.1198884,12.0019664 L57.3928095,14.4661021 L36.9103035,26.2436979 L32.6697531,23.811985 L53.1198884,12.0019664 Z M13.6069522,18.9946749 L17.8866898,21.4133516 L11.3935764,25.1139271 L7.11383873,22.6952503 L13.6069522,18.9946749 Z M61.0455448,16.4525075 L65.3395062,18.8751811 L55.5060068,24.4634814 L51.2120454,22.0408079 L61.0455448,16.4525075 Z M14.1977234,10.22175 L18.5422923,12.7493855 L4.34456893,20.9030486 L0,18.375413 L14.1977234,10.22175 Z M39.8333617,3.99099249 L44.148315,6.36027845 L21.0913129,19.1228321 L16.7763597,16.7535462 L39.8333617,3.99099249 Z M46.195219,7.55142535 L50.3290791,10.1578666 L42.9843773,14.6722911 L38.8505172,12.1169565 L46.195219,7.55142535 Z M32.6697531,0 L36.9494907,2.44286354 L21.7417207,11.1420376 L17.4129784,8.64273832 L32.6697531,0 Z" id="path-3"></path>
    </defs>
    <g id="Navigation" stroke="none" stroke-width="1" fill="none" fill-rule="evenodd">
        <g filter="url(#filter-1)" id="Group">
            <g>
                <g filter="url(#filter-2)" id="Icons/Logo-Copy">
                    <g transform="translate(0.000000, 0.459549)">
                        <mask id="mask-4" fill="white">
                            <use xlink:href="#path-3"></use>
                        </mask>
                        <use id="Combined-Shape" fill="#000000" xlink:href="#path-3"></use>
                    </g>
                </g>
                <path d="M103.147,51 C105.039,51 106.938167,50.6846667 108.8445,50.054 C110.750833,49.4233333 112.470833,48.4701667 114.0045,47.1945 C115.538167,45.9188333 116.778,44.335 117.724,42.443 C118.67,40.551 119.143,38.3293333 119.143,35.778 C119.143,33.2553333 118.67,31.0408333 117.724,29.1345 C116.778,27.2281667 115.538167,25.6371667 114.0045,24.3615 C112.470833,23.0858333 110.750833,22.1326667 108.8445,21.502 C106.938167,20.8713333 105.039,20.556 103.147,20.556 L103.147,20.556 L93.042,20.556 L93.042,51 L103.147,51 Z M102.287,48.248 L96.138,48.248 L96.138,23.308 L102.287,23.308 C104.580333,23.308 106.579833,23.6663333 108.2855,24.383 C109.991167,25.0996667 111.403,26.0385 112.521,27.1995 C113.639,28.3605 114.4775,29.6863333 115.0365,31.177 C115.5955,32.6676667 115.875,34.2013333 115.875,35.778 C115.875,37.3546667 115.5955,38.8883333 115.0365,40.379 C114.4775,41.8696667 113.639,43.1955 112.521,44.3565 C111.403,45.5175 109.991167,46.4563333 108.2855,47.173 C106.579833,47.8896667 104.580333,48.248 102.287,48.248 L102.287,48.248 Z M123.138857,51 L126.449857,43.002 L142.187857,43.002 L145.541857,51 L148.981857,51 L135.909857,20.556 L132.899857,20.556 L119.741857,51 L123.138857,51 Z M141.026857,40.164 L127.610857,40.164 L134.318857,23.996 L141.026857,40.164 Z M159.427714,51 L159.427714,23.308 L169.618714,23.308 L169.618714,20.556 L146.140714,20.556 L146.140714,23.308 L156.331714,23.308 L156.331714,51 L159.427714,51 Z M170.174571,51 L173.485571,43.002 L189.223571,43.002 L192.577571,51 L196.017571,51 L182.945571,20.556 L179.935571,20.556 L166.777571,51 L170.174571,51 Z M188.062571,40.164 L174.646571,40.164 L181.354571,23.996 L188.062571,40.164 Z M206.850428,51.774 C208.197761,51.774 209.509261,51.5876667 210.784928,51.215 C212.060595,50.8423333 213.185761,50.2761667 214.160428,49.5165 C215.135095,48.7568333 215.916261,47.7965 216.503928,46.6355 C217.091595,45.4745 217.385428,44.1056667 217.385428,42.529 C217.385428,41.0096667 217.113095,39.7555 216.568428,38.7665 C216.023761,37.7775 215.321428,36.9533333 214.461428,36.294 C213.601428,35.6346667 212.641095,35.1043333 211.580428,34.703 C210.519761,34.3016667 209.473428,33.9433333 208.441428,33.628 C207.581428,33.3413333 206.771595,33.0618333 206.011928,32.7895 C205.252261,32.5171667 204.592928,32.1875 204.033928,31.8005 C203.474928,31.4135 203.030595,30.9405 202.700928,30.3815 C202.371261,29.8225 202.206428,29.1273333 202.206428,28.296 C202.206428,27.436 202.385595,26.6978333 202.743928,26.0815 C203.102261,25.4651667 203.568095,24.9491667 204.141428,24.5335 C204.714761,24.1178333 205.352595,23.8168333 206.054928,23.6305 C206.757261,23.4441667 207.452428,23.351 208.140428,23.351 C209.430428,23.351 210.591428,23.6161667 211.623428,24.1465 C212.655428,24.6768333 213.472428,25.3576667 214.074428,26.189 L214.074428,26.189 L217.084428,23.265 C216.138428,22.2043333 214.891428,21.3586667 213.343428,20.728 C211.795428,20.0973333 210.132761,19.782 208.355428,19.782 C207.094095,19.782 205.839928,19.9468333 204.592928,20.2765 C203.345928,20.6061667 202.227928,21.1293333 201.238928,21.846 C200.249928,22.5626667 199.447261,23.4656667 198.830928,24.555 C198.214595,25.6443333 197.906428,26.9486667 197.906428,28.468 C197.906428,29.8726667 198.135761,31.048 198.594428,31.994 C199.053095,32.94 199.655095,33.7355 200.400428,34.3805 C201.145761,35.0255 201.991428,35.5558333 202.937428,35.9715 C203.883428,36.3871667 204.843761,36.7383333 205.818428,37.025 C206.793095,37.3403333 207.717595,37.6485 208.591928,37.9495 C209.466261,38.2505 210.233095,38.616 210.892428,39.046 C211.551761,39.476 212.074928,39.9991667 212.461928,40.6155 C212.848928,41.2318333 213.042428,41.9986667 213.042428,42.916 C213.042428,43.8333333 212.856095,44.6145 212.483428,45.2595 C212.110761,45.9045 211.630595,46.442 211.042928,46.872 C210.455261,47.302 209.803095,47.6173333 209.086428,47.818 C208.369761,48.0186667 207.653095,48.119 206.936428,48.119 C205.531761,48.119 204.227428,47.7893333 203.023428,47.13 C201.819428,46.4706667 200.859095,45.6106667 200.142428,44.55 L200.142428,44.55 L196.831428,47.345 C198.006761,48.807 199.490261,49.9106667 201.281928,50.656 C203.073595,51.4013333 204.929761,51.774 206.850428,51.774 Z M236.689285,51.774 C239.383952,51.774 241.691618,51.2651667 243.612285,50.2475 C245.532952,49.2298333 247.095285,47.904 248.299285,46.27 L248.299285,46.27 L244.902285,43.948 C243.984952,45.2666667 242.823952,46.27 241.419285,46.958 C240.014618,47.646 238.452285,47.99 236.732285,47.99 C234.983618,47.99 233.399785,47.6746667 231.980785,47.044 C230.561785,46.4133333 229.357785,45.5461667 228.368785,44.4425 C227.379785,43.3388333 226.620118,42.0416667 226.089785,40.551 C225.559452,39.0603333 225.294285,37.455 225.294285,35.735 C225.294285,34.0723333 225.566618,32.5028333 226.111285,31.0265 C226.655952,29.5501667 227.429952,28.253 228.433285,27.135 C229.436618,26.017 230.647785,25.1355 232.066785,24.4905 C233.485785,23.8455 235.083952,23.523 236.861285,23.523 C238.437952,23.523 239.907118,23.8598333 241.268785,24.5335 C242.630452,25.2071667 243.683952,26.06 244.429285,27.092 L244.429285,27.092 L247.783285,24.512 C247.209952,23.738 246.521952,23.0571667 245.719285,22.4695 C244.916618,21.8818333 244.027952,21.3873333 243.053285,20.986 C242.078618,20.5846667 241.060952,20.2836667 240.000285,20.083 C238.939618,19.8823333 237.893285,19.782 236.861285,19.782 C234.539285,19.782 232.389285,20.169 230.411285,20.943 C228.433285,21.717 226.720452,22.7991667 225.272785,24.1895 C223.825118,25.5798333 222.692785,27.2568333 221.875785,29.2205 C221.058785,31.1841667 220.650285,33.3556667 220.650285,35.735 C220.650285,38.0856667 221.051618,40.2428333 221.854285,42.2065 C222.656952,44.1701667 223.767785,45.8615 225.186785,47.2805 C226.605785,48.6995 228.297118,49.8031667 230.260785,50.5915 C232.224452,51.3798333 234.367285,51.774 236.689285,51.774 Z M255.692142,51 L255.692142,20.556 L251.435142,20.556 L251.435142,51 L255.692142,51 Z M282.047999,51 L282.047999,47.216 L266.137999,47.216 L266.137999,37.068 L280.499999,37.068 L280.499999,33.413 L266.137999,33.413 L266.137999,24.297 L281.402999,24.297 L281.402999,20.556 L261.880999,20.556 L261.880999,51 L282.047999,51 Z M290.773856,51 L290.773856,26.146 L290.859856,26.146 L306.941856,51 L312.316856,51 L312.316856,20.556 L308.059856,20.556 L308.059856,44.894 L307.973856,44.894 L292.063856,20.556 L286.516856,20.556 L286.516856,51 L290.773856,51 Z M332.996713,51.774 C335.69138,51.774 337.999046,51.2651667 339.919713,50.2475 C341.84038,49.2298333 343.402713,47.904 344.606713,46.27 L344.606713,46.27 L341.209713,43.948 C340.29238,45.2666667 339.13138,46.27 337.726713,46.958 C336.322046,47.646 334.759713,47.99 333.039713,47.99 C331.291046,47.99 329.707213,47.6746667 328.288213,47.044 C326.869213,46.4133333 325.665213,45.5461667 324.676213,44.4425 C323.687213,43.3388333 322.927546,42.0416667 322.397213,40.551 C321.86688,39.0603333 321.601713,37.455 321.601713,35.735 C321.601713,34.0723333 321.874046,32.5028333 322.418713,31.0265 C322.96338,29.5501667 323.73738,28.253 324.740713,27.135 C325.744046,26.017 326.955213,25.1355 328.374213,24.4905 C329.793213,23.8455 331.39138,23.523 333.168713,23.523 C334.74538,23.523 336.214546,23.8598333 337.576213,24.5335 C338.93788,25.2071667 339.99138,26.06 340.736713,27.092 L340.736713,27.092 L344.090713,24.512 C343.51738,23.738 342.82938,23.0571667 342.026713,22.4695 C341.224046,21.8818333 340.33538,21.3873333 339.360713,20.986 C338.386046,20.5846667 337.36838,20.2836667 336.307713,20.083 C335.247046,19.8823333 334.200713,19.782 333.168713,19.782 C330.846713,19.782 328.696713,20.169 326.718713,20.943 C324.740713,21.717 323.02788,22.7991667 321.580213,24.1895 C320.132546,25.5798333 319.000213,27.2568333 318.183213,29.2205 C317.366213,31.1841667 316.957713,33.3556667 316.957713,35.735 C316.957713,38.0856667 317.359046,40.2428333 318.161713,42.2065 C318.96438,44.1701667 320.075213,45.8615 321.494213,47.2805 C322.913213,48.6995 324.604546,49.8031667 326.568213,50.5915 C328.53188,51.3798333 330.674713,51.774 332.996713,51.774 Z M367.90957,51 L367.90957,47.216 L351.99957,47.216 L351.99957,37.068 L366.36157,37.068 L366.36157,33.413 L351.99957,33.413 L351.99957,24.297 L367.26457,24.297 L367.26457,20.556 L347.74257,20.556 L347.74257,51 L367.90957,51 Z M374.270427,51.258 C374.958427,51.258 375.517427,51.0215 375.947427,50.5485 C376.377427,50.0755 376.592427,49.538 376.592427,48.936 C376.592427,48.334 376.377427,47.7965 375.947427,47.3235 C375.517427,46.8505 374.958427,46.614 374.270427,46.614 C373.582427,46.614 373.023427,46.8505 372.593427,47.3235 C372.163427,47.7965 371.948427,48.334 371.948427,48.936 C371.948427,49.538 372.163427,50.0755 372.593427,50.5485 C373.023427,51.0215 373.582427,51.258 374.270427,51.258 Z M396.928284,51.774 C398.304284,51.774 399.572784,51.6235 400.733784,51.3225 C401.894784,51.0215 402.955451,50.613 403.915784,50.097 C404.876117,49.581 405.721784,48.979 406.452784,48.291 C407.183784,47.603 407.807284,46.872 408.323284,46.098 L408.323284,46.098 L405.915284,44.55 C404.854617,46.1266667 403.535951,47.2733333 401.959284,47.99 C400.382617,48.7066667 398.719951,49.065 396.971284,49.065 C395.021951,49.065 393.266117,48.7066667 391.703784,47.99 C390.141451,47.2733333 388.815617,46.3058333 387.726284,45.0875 C386.636951,43.8691667 385.798451,42.4573333 385.210784,40.852 C384.623117,39.2466667 384.329284,37.5553333 384.329284,35.778 C384.329284,34.0006667 384.615951,32.3093333 385.189284,30.704 C385.762617,29.0986667 386.593951,27.6868333 387.683284,26.4685 C388.772617,25.2501667 390.098451,24.2826667 391.660784,23.566 C393.223117,22.8493333 394.993284,22.491 396.971284,22.491 C397.945951,22.491 398.856117,22.6056667 399.701784,22.835 C400.547451,23.0643333 401.328617,23.3653333 402.045284,23.738 C402.761951,24.1106667 403.385451,24.5406667 403.915784,25.028 C404.446117,25.5153333 404.868951,26.0026667 405.184284,26.49 L405.184284,26.49 L407.764284,24.598 C407.248284,23.8526667 406.603284,23.1861667 405.829284,22.5985 C405.055284,22.0108333 404.195284,21.5091667 403.249284,21.0935 C402.303284,20.6778333 401.292784,20.3553333 400.217784,20.126 C399.142784,19.8966667 398.046284,19.782 396.928284,19.782 C394.663617,19.782 392.563784,20.1833333 390.628784,20.986 C388.693784,21.7886667 387.016784,22.8995 385.597784,24.3185 C384.178784,25.7375 383.067951,27.4216667 382.265284,29.371 C381.462617,31.3203333 381.061284,33.456 381.061284,35.778 C381.061284,38.1 381.455451,40.2356667 382.243784,42.185 C383.032117,44.1343333 384.128617,45.8185 385.533284,47.2375 C386.937951,48.6565 388.614951,49.7673333 390.564284,50.57 C392.513617,51.3726667 394.634951,51.774 396.928284,51.774 Z M426.165141,51.774 C428.429808,51.774 430.529641,51.3726667 432.464641,50.57 C434.399641,49.7673333 436.076641,48.6565 437.495641,47.2375 C438.914641,45.8185 440.025474,44.1343333 440.828141,42.185 C441.630808,40.2356667 442.032141,38.1 442.032141,35.778 C442.032141,33.456 441.630808,31.3203333 440.828141,29.371 C440.025474,27.4216667 438.914641,25.7375 437.495641,24.3185 C436.076641,22.8995 434.399641,21.7886667 432.464641,20.986 C430.529641,20.1833333 428.429808,19.782 426.165141,19.782 C423.900474,19.782 421.800641,20.1833333 419.865641,20.986 C417.930641,21.7886667 416.253641,22.8995 414.834641,24.3185 C413.415641,25.7375 412.304808,27.4216667 411.502141,29.371 C410.699474,31.3203333 410.298141,33.456 410.298141,35.778 C410.298141,38.1 410.699474,40.2356667 411.502141,42.185 C412.304808,44.1343333 413.415641,45.8185 414.834641,47.2375 C416.253641,48.6565 417.930641,49.7673333 419.865641,50.57 C421.800641,51.3726667 423.900474,51.774 426.165141,51.774 Z M426.165141,49.022 C424.215808,49.022 422.459974,48.6636667 420.897641,47.947 C419.335308,47.2303333 418.009474,46.27 416.920141,45.066 C415.830808,43.862 414.999474,42.4573333 414.426141,40.852 C413.852808,39.2466667 413.566141,37.5553333 413.566141,35.778 C413.566141,34.0006667 413.852808,32.3093333 414.426141,30.704 C414.999474,29.0986667 415.830808,27.6868333 416.920141,26.4685 C418.009474,25.2501667 419.335308,24.2826667 420.897641,23.566 C422.459974,22.8493333 424.215808,22.491 426.165141,22.491 C428.114474,22.491 429.870308,22.8493333 431.432641,23.566 C432.994974,24.2826667 434.320808,25.2501667 435.410141,26.4685 C436.499474,27.6868333 437.330808,29.0986667 437.904141,30.704 C438.477474,32.3093333 438.764141,34.0006667 438.764141,35.778 C438.764141,37.5553333 438.477474,39.2466667 437.904141,40.852 C437.330808,42.4573333 436.499474,43.862 435.410141,45.066 C434.320808,46.27 432.994974,47.2303333 431.432641,47.947 C429.870308,48.6636667 428.114474,49.022 426.165141,49.022 Z M450.370998,51 L450.370998,24.555 L450.456998,24.555 L461.464998,51 L463.098998,51 L474.106998,24.555 L474.192998,24.555 L474.192998,51 L477.288998,51 L477.288998,20.556 L472.558998,20.556 L462.367998,45.754 L462.324998,45.754 L452.004998,20.556 L447.274998,20.556 L447.274998,51 L450.370998,51 Z" id="DATASCIENCE.COM" fill="#000000" fill-rule="nonzero"></path>
            </g>
        </g>
    </g>
</svg>