<svg fill="none" height="48" viewBox="0 0 139 48" width="139" xmlns="http://www.w3.org/2000/svg"><g fill="#fff"><path d="m69.3603 47.9635c-38.3071 0-69.3603-10.7363-69.3603-23.9812 0-13.2466 31.0538-23.9823 69.3603-23.9823 38.3037 0 69.3547 10.7352 69.3547 23.9823 0 13.2443-31.052 23.9812-69.3547 23.9812zm0-45.88571c-36.9611 0-66.92202 9.80521-66.92202 21.90451 0 12.0998 29.95982 21.9061 66.92202 21.9061 36.9607 0 66.9167-9.8069 66.9167-21.9061 0-12.0993-29.958-21.90451-66.9167-21.90451z"/><path d="m51.2677 5.97237c-.9843.00311-1.9737.04154-2.9697.12332-6.6155.55316-12.9123 4.25341-12.9237 9.87141-.0071 2.8488 2.0316 5.1572 5.1904 5.0556 3.7119-.125 6.7591-3.0793 8.3543-6.804.6052-1.4132-.5157-2.0003-1.0491-1.1866-.929 1.4214-2.223 2.5649-3.7457 3.31-1.7465.8497-3.6133.6205-4.1794-.7884-.7957-1.9877.8584-4.962 4.6328-6.36159 5.4518-2.00517 11.1561-.67875 16.6449.34568.0784 0 .3708.16109.1123.29488-.983.53243-1.9507.96533-3.4583 2.25413-1.0809.9195-2.4959 2.1438-3.5904 3.4773-1.0864 1.3144-1.8564 2.4868-2.8753 3.7864-.142.1879-.3168.1792-.3147.1792-2.4834.4166-4.9146.6958-7.1406 2.2335-.4605.3156-.6603.8759-.3811 1.3045.2509.3801.8247.4204 1.2231.1327 1.383-1.0277 2.8068-1.5115 4.4396-1.5563.0713.0044.1055.0159.1257.0596.0125.0245.0049.0763-.0245.1145-2.4459 3.3709-3.0584 4.1327-4.8985 6.2225-.941 1.0741-1.8667 1.9807-2.9008 2.9243-4.1778 3.8558-8.6713 3.7891-10.2834 1.3717-.9633-1.4509-.8363-2.974-.205-4.2376.7772-1.5476 2.3478-2.6818 3.654-3.3442.4849-.2457.6244-.8617.1389-1.423-.3086-.3659-1.057-.4309-1.6143-.3293-1.7112.3139-3.7332 1.599-4.9278 3.1455-1.3465 1.7354-2.0191 3.8422-1.7933 6.2067.4055 4.2664 3.9416 6.7308 7.956 6.7024 3.1944-.0248 6.2033-.9863 9.8238-4.6374 3.375-3.4053 6.4497-8.4919 9.3288-13.2088.0903-.1508.1544-.2316.592-.2856 1.8059-.2244 4.4724-.4799 6.1813-.5782.3799-.0208.4571-.0166.6095.1718.4452.5581 1.114 1.0318 1.6495 1.3201.2613.1409.3855.2112.5907.2145.253.0054.45-.1298.5774-.2729.1812-.1977.2313-.4562.1333-.6228-.1023-.1747-1.2941-.8309-1.3295-1.0963-.0261-.1654.1561-.2054.1561-.2054.8763-.273 1.7879-.835 2.3403-1.8861.5426-1.0348.6302-2.4159-.3625-3.1837-.8714-.6744-2.1879-.5679-3.2384.3686-1.0275.9092-1.3675 2.232-1.2287 3.3913.025.2009.0146.2685-.2613.2915-1.5795.1256-3.1013.1692-4.7939.2582-.1132.0082-.1491-.0661-.0833-.1442 1.949-3.3638 4.8591-5.7592 8.0778-8.1182.2134-.1589.1482-.4611.1395-.7134 5.8116 1.2543 11.4279 3.5889 17.4572 3.5392 2.4932-.0202 4.8802-.397 7.1617-1.6404 2.0067-1.0872 2.821-2.09297 2.8809-3.13814.0468-.72245-.459-1.17912-1.179-1.02349-6.0919 1.39029-11.9034 1.37494-17.9643.64649-6.9224-.83474-13.565-2.55315-20.4553-2.53149zm12.1601 9.74863c.1424.0076.2756.055.3834.1468.3211.2725.1691.9523-.1553 1.423-.3543.5193-.9552.9676-1.5033 1.0769-.1099.0202-.2051-.0268-.2503-.2687-.0892-.6405.1204-1.4983.8095-2.1028.2156-.1894.4787-.2878.716-.2752zm48.9032.1228c-1.107 0-2.56.002-3.714.002-.275 0-.417.0333-.547.2872-.426.8109-5.617 8.5396-6.584 10.0407-.162.2283-.361.1965-.384-.064-.098-.8912-.872-1.9156-2.0932-2.4059-.9307-.3752-1.8407-.4428-2.7861-.3183-1.7073.2277-3.2283 1.1233-4.5661 2.1319-2.0154 1.523-3.754 3.4946-5.9991 4.9526-1.2256.7935-2.9035 1.4856-4.0263.4535-1.0162-.936-.9019-3.0154.653-4.6231.1638-.1687.3604-.0279.3294.1234-.147.7273.0338 1.4505.5895 1.9578.6781.6034 1.6489.6722 2.4795.2692.9807-.4822 1.5567-1.4145 1.7254-2.4728.2596-1.641-1.0123-3.0885-2.6027-3.2042-1.2926-.0901-2.5317.3565-3.7389 1.3471-.6058.4986-.9504.8677-1.4735 1.6071-.1279.1824-.3237.2009-.3172-.0683.0604-2.1008-.8149-3.2829-2.5636-3.3216-1.3563-.0317-2.8065.6988-3.9364 1.5943-1.2387.9884-2.3218 2.2979-3.4827 3.5287-.1442.1519-.2705.1448-.3108-.1495-.0354-1.3919-.3876-2.7402-1.0364-3.6975-.2291-.3331-.7119-.4981-1.1179-.2731-.1873.1021-.8397.3998-1.3138.7794-.2356.1927-.3267.4716-.2233.8293.6259 2.0789.4882 4.4434-.3608 6.4409-.7799 1.8282-2.2957 3.4786-4.0765 4.0367-1.1734.3696-2.3937.1888-3.1486-.8449-1.0368-1.4263-.6176-3.9065.927-5.9668 1.3645-1.813 3.3364-2.9653 5.305-3.7074.2318-.0884.279-.2357.2137-.4312-.1072-.3221-.2774-.7593-.3476-.9597-.1801-.4767-.6858-.5548-1.3025-.4876-1.4297.1655-2.719.652-3.9932 1.3297-3.3363 1.7747-5.0083 5.2095-5.7419 7.0476-.3527.8819-.6547 1.4334-1.0449 1.9216-.5257.657-1.186 1.2544-2.3931 2.3077-.1089.0967-.1905.2981-.0991.4848.1236.254.751 1.1342.9285 1.2129.1964.0961.4243-.0381.5158-.1036.8447-.5684 1.8554-1.4701 2.3501-2.0817.1731-.2091.3518-.1211.4438.1967.4615 1.636 1.6701 2.9715 3.3415 3.5302 3.0588 1.0249 6.2318-.4585 8.6265-3.0409 1.5218-1.6409 2.071-2.6966 2.6545-3.4141.9883-1.2172 2.939-3.9398 5.2613-5.6878.8518-.6443 1.8603-1.1358 2.3676-.8098.4065.2621.5378.8708-.1153 2.0503-2.3676 4.2959-5.8532 9.3433-6.4921 10.5682-.1165.2124-.0148.3789.2089.3789 1.2393-.0054 2.4683-.0028 3.5933-.0028.1867-.0088.2712-.0933.3648-.2249 1.8173-2.8259 3.5278-5.5168 5.3609-8.298.1034-.1638.1976-.0368.2014.0347.0381.6449.1974 1.528.5827 2.108.6934 1.0714 1.6754 1.5316 2.765 1.5387.8664.0099 1.3045-.1211 2.239-.4678.6538-.2438 1.2724-.5737 1.8397-.9809.2737-.1884.3215.1275.3144.1761-.4202 2.2438.0991 4.9018 2.3437 6.0043 2.6864 1.316 5.6374-.5334 7.3355-2.2027.166-.1611.3451-.1442.362.202.0359.6378.3255 1.3943.8567 1.924 1.4227 1.4186 4.2945.8566 7.1765-1.3599 1.85-1.4181 3.786-3.4227 5.535-5.5452.064-.0819.113-.2147-.013-.348-.266-.2768-.651-.5937-.915-.8378-.121-.1015-.298-.0724-.399.0046-1.793 1.6933-3.406 3.6248-5.738 5.2221-.787.545-2.04.9851-2.603.2283-.219-.2938-.194-.7008.022-1.2343.681-1.6852 11.445-17.9679 12.004-18.9268l.001-.0011c.096-.1671-.005-.2892-.218-.2892zm-15.0834 10.1796c.2818-.0025.5457.0514.7861.1662 1.3258.6285.9023 2.1537.3096 3.3512-.0201.0375-.0326.0786-.0367.121s.0003.0852.0128.1259c.0218.1245.1848.2452.3454.3025.0561.0208.0879.0611.0242.1922-.4583.9747-.8785 1.5366-1.4526 2.383-.5269.7826-1.1214 1.3926-1.8419 1.9801-1.0858.8929-2.5933 1.8643-3.8397 1.2112-.554-.2862-.793-1.0557-.7821-1.6787.0288-1.7529.811-3.5516 2.2598-5.3198 1.4354-1.7552 2.9937-2.8241 4.2151-2.8348z"/></g></svg>