<svg viewBox="0 0 179 37" fill="none" xmlns="http://www.w3.org/2000/svg">
<g id="gotomeeting-vector-logo-2022 1" clip-path="url(#clip0_8_444)">
<path id="Vector" d="M103.975 7.51936V24.8855H100.639V8.41452L97.5416 24.8855H91.2572L88.1597 8.29516V24.8855H84.824V7.51936H91.3764L94.4441 23.9903L97.5416 7.51936H103.975ZM112.88 11.8161C115.025 11.8161 116.752 12.5919 118.033 14.1435C119.343 15.6952 119.82 17.5153 119.462 19.6637H109.604C109.842 20.4395 110.259 21.0661 110.855 21.5436C111.48 22.021 112.225 22.2298 113.089 22.2298C114.548 22.2298 115.591 21.6331 116.276 20.4395L119.016 21.6927C118.45 22.7371 117.616 23.5726 116.573 24.1992C115.531 24.8258 114.34 25.1242 112.999 25.1242C111.063 25.1242 109.425 24.4976 108.115 23.2145C106.804 21.9314 106.149 20.35 106.149 18.4702C106.149 16.5903 106.804 15.0089 108.085 13.7258C109.396 12.4726 110.974 11.8161 112.88 11.8161ZM112.88 14.7105C112.136 14.7105 111.48 14.9194 110.885 15.3669C110.319 15.7847 109.902 16.3814 109.664 17.0976H116.127C115.888 16.3814 115.501 15.7847 114.905 15.3669C114.34 14.9194 113.655 14.7105 112.88 14.7105ZM127.534 11.8161C129.678 11.8161 131.406 12.5919 132.686 14.1435C133.997 15.6952 134.473 17.5153 134.116 19.6637H124.258C124.496 20.4395 124.913 21.0661 125.508 21.5436C126.134 22.021 126.879 22.2298 127.742 22.2298C129.202 22.2298 130.244 21.6331 130.929 20.4395L133.669 21.6927C133.103 22.7371 132.269 23.5726 131.227 24.1992C130.185 24.8258 128.993 25.1242 127.653 25.1242C125.717 25.1242 124.079 24.4976 122.768 23.2145C121.458 21.9314 120.803 20.35 120.803 18.4702C120.803 16.5903 121.458 15.0089 122.739 13.7258C124.049 12.4726 125.657 11.8161 127.534 11.8161ZM127.534 14.7105C126.789 14.7105 126.134 14.9194 125.538 15.3669C124.972 15.7847 124.555 16.3814 124.317 17.0976H130.78C130.542 16.3814 130.155 15.7847 129.559 15.3669C128.993 14.9194 128.308 14.7105 127.534 14.7105ZM137.094 15.0387H134.503V12.0847H137.094V8.325L140.43 7.28064V12.0847H143.736V15.0387H140.43V20.1411C140.43 21.3347 141.026 21.9613 142.247 21.9613H143.766V24.9153H142.247C140.49 24.9153 139.209 24.4976 138.345 23.6919C137.511 22.8564 137.094 21.6032 137.094 19.9323V15.0387ZM145.166 8.53387C145.166 7.96694 145.374 7.48951 145.761 7.13145C146.149 6.74355 146.625 6.53468 147.191 6.53468C147.727 6.53468 148.204 6.74355 148.591 7.13145C148.978 7.51935 149.187 7.99678 149.187 8.53387C149.187 9.07097 148.978 9.54838 148.591 9.93629C148.204 10.3242 147.727 10.5331 147.191 10.5331C146.625 10.5331 146.149 10.3242 145.761 9.93629C145.374 9.54838 145.166 9.07097 145.166 8.53387ZM148.859 24.8855H145.523V12.0847H148.859V24.8855ZM158.896 11.8161C160.326 11.8161 161.457 12.3234 162.321 13.3081C163.185 14.2927 163.632 15.5758 163.632 17.0976V24.8556H160.296V17.6944C160.296 16.8589 160.028 16.2024 159.492 15.6653C158.956 15.1282 158.3 14.8597 157.496 14.8597C156.603 14.8597 155.888 15.1282 155.322 15.6653C154.756 16.2024 154.488 16.8589 154.488 17.6944V24.8556H151.152V12.0548H154.488V15.3371C154.816 14.2331 155.382 13.3976 156.156 12.7411C156.93 12.1444 157.854 11.8161 158.896 11.8161ZM175.515 15.5758V12.0847H178.851V23.4532C178.851 25.3331 178.196 26.9145 176.885 28.1976C175.575 29.4806 173.967 30.1073 172.001 30.1073C170.69 30.1073 169.499 29.779 168.457 29.1524C167.414 28.5258 166.61 27.6903 166.044 26.646L169.052 25.0645C169.707 26.3774 170.69 27.0637 172.001 27.0637C172.984 27.0637 173.788 26.7355 174.473 26.0492C175.158 25.3629 175.486 24.4976 175.486 23.4532V21.0064C175.098 22.1403 174.503 23.0653 173.669 23.7516C172.835 24.4379 171.882 24.7661 170.78 24.7661C169.201 24.7661 167.891 24.1395 166.848 22.9161C165.806 21.6629 165.3 20.1411 165.3 18.2911C165.3 16.4411 165.806 14.9194 166.848 13.696C167.92 12.4427 169.231 11.846 170.78 11.846C171.882 11.846 172.865 12.1742 173.669 12.8605C174.473 13.5468 175.128 14.4419 175.515 15.5758ZM172.12 21.6927C173.103 21.6927 173.907 21.3645 174.562 20.7379C175.217 20.1113 175.515 19.2758 175.515 18.2911C175.515 17.3064 175.188 16.5008 174.562 15.8742C173.907 15.2177 173.103 14.9194 172.12 14.9194C171.167 14.9194 170.393 15.2476 169.737 15.8742C169.082 16.5306 168.784 17.3363 168.784 18.2911C168.784 19.246 169.112 20.0516 169.737 20.7379C170.393 21.3645 171.167 21.6927 172.12 21.6927Z" fill="var(--fill-0, white)"/>
<path id="Vector_2" d="M73.6253 20.6185L0.148918 28.3468L1.04243 36.7911L74.5188 29.0629L73.6253 20.6185Z" fill="var(--fill-0, white)"/>
<path id="Vector_3" d="M35.7702 4.77419C34.1023 4.77419 32.4642 5.28144 31.0644 6.20644C29.6646 7.13144 28.5923 8.47419 27.9371 10.0258C27.2819 11.5774 27.1329 13.2782 27.4606 14.9194C27.7882 16.5605 28.5923 18.0823 29.7837 19.2758C30.975 20.4694 32.494 21.275 34.1321 21.6032C35.7702 21.9314 37.4679 21.7524 39.0166 21.1258C40.5654 20.4693 41.8759 19.3952 42.829 17.9927C43.7523 16.5903 44.2586 14.9492 44.2586 13.2782C44.2586 12.1742 44.0501 11.0702 43.6033 10.0258C43.1864 8.98145 42.5609 8.05645 41.7567 7.28064C40.9824 6.50483 40.0293 5.87823 39.0166 5.43065C37.9742 5.0129 36.8722 4.77419 35.7702 4.77419ZM35.7702 17.9927C34.8469 17.9927 33.9236 17.7242 33.1493 17.1871C32.3749 16.6798 31.7792 15.9339 31.4218 15.0685C31.0644 14.2032 30.975 13.2484 31.1537 12.3532C31.3324 11.4282 31.7792 10.5927 32.4344 9.93628C33.0897 9.27983 33.9236 8.83225 34.8469 8.65322C35.7702 8.47419 36.7233 8.5637 37.5572 8.92177C38.421 9.27983 39.1656 9.87661 39.6719 10.6524C40.1782 11.4282 40.476 12.3532 40.476 13.2782C40.476 14.5314 39.9697 15.725 39.106 16.6202C38.2125 17.4855 37.0211 17.9927 35.7702 17.9927ZM63.0521 4.77419C61.3842 4.77419 59.7461 5.28144 58.3463 6.20644C56.9464 7.13144 55.8742 8.47419 55.219 10.0258C54.5637 11.5774 54.4148 13.2782 54.7424 14.9194C55.0701 16.5605 55.8742 18.0823 57.0656 19.2758C58.2569 20.4694 59.7759 21.275 61.414 21.6032C63.0521 21.9314 64.7498 21.7524 66.2985 21.1258C67.8473 20.4693 69.1577 19.3952 70.1108 17.9927C71.0341 16.5903 71.5404 14.9492 71.5404 13.2782C71.5404 12.1742 71.332 11.0702 70.8852 10.0258C70.4682 8.98145 69.8428 8.05645 69.0386 7.28064C68.2642 6.50483 67.3112 5.87823 66.2985 5.43065C65.2561 4.98306 64.1541 4.77419 63.0521 4.77419ZM63.0521 17.9927C62.1288 17.9927 61.2055 17.7242 60.4311 17.1871C59.6567 16.6798 59.0611 15.9339 58.7037 15.0685C58.3463 14.2032 58.2569 13.2484 58.4356 12.3532C58.6143 11.4282 59.0611 10.5927 59.7163 9.93628C60.3716 9.27983 61.2055 8.83225 62.1288 8.65322C63.0521 8.47419 64.0052 8.5637 64.8391 8.92177C65.7028 9.27983 66.4474 9.87661 66.9538 10.6524C67.4601 11.4282 67.7579 12.3532 67.7579 13.2782C67.7579 14.5314 67.2516 15.725 66.3879 16.6202C65.4943 17.4855 64.303 17.9927 63.0521 17.9927ZM57.8697 4.29677V0.537089H40.9228V4.29677H47.505V21.3347H51.2577V4.29677H57.8697ZM12.8666 9.01129V12.771H18.0787C16.8874 15.9339 14.594 17.9927 11.9433 17.9927C10.7817 17.9927 9.64992 17.6944 8.60749 17.1573C7.59484 16.6202 6.70133 15.8145 6.07587 14.8298C5.42063 13.875 5.03344 12.7411 4.91431 11.5774C4.79518 10.4137 4.97388 9.24999 5.42063 8.1758C5.86739 7.10161 6.5822 6.14677 7.47571 5.43065C8.36922 4.68468 9.44143 4.17741 10.5732 3.96854C11.705 3.72983 12.8963 3.78951 13.9983 4.14758C15.1003 4.4758 16.113 5.10241 16.9469 5.90806L19.6275 3.22257C18.1085 1.7008 16.1725 0.686283 14.0877 0.238702C11.973 -0.17904 9.79884 0.0298328 7.83311 0.865317C5.86739 1.7008 4.16972 3.07338 2.97837 4.8637C1.78702 6.65402 1.16156 8.74274 1.16156 10.8911C1.16156 12.3234 1.42962 13.7258 1.96572 15.0387C2.50183 16.3516 3.30599 17.5452 4.31864 18.5597C5.33128 19.5742 6.52263 20.3798 7.83311 20.9169C9.14359 21.454 10.5434 21.7524 11.973 21.7524C15.6662 21.7524 18.9722 19.3653 20.9379 15.6056V21.3048H24.6907V9.01129H12.8666Z" fill="var(--fill-0, white)"/>
</g>
<defs>
<clipPath id="clip0_8_444">
<rect width="179" height="37" fill="white"/>
</clipPath>
</defs>
</svg>
