<svg preserveAspectRatio="none" width="100%" height="100%" overflow="visible" style="display: block;" viewBox="0 0 203 40" fill="none" xmlns="http://www.w3.org/2000/svg">
<g id="grasshopper-vector-logo 1" clip-path="url(#clip0_8_472)">
<path id="Vector" d="M46.6738 34.918C40.6 34.918 38.2939 31.2459 38.2939 25.8361V22.5246C38.2939 17.2459 40.6 13.4426 46.8037 13.4426C48.8824 13.4426 50.9286 13.9344 52.3902 15.1475C52.7475 15.5082 52.8774 15.8688 52.8774 16C52.8774 16.4918 52.3902 17.2131 51.5458 17.2131C51.0586 17.2131 50.7013 17.082 50.2141 16.7213C49.3696 16 48.1354 15.8689 46.6738 15.8689C42.9061 15.8689 41.0872 18.1967 41.0872 22.7541V26.0656C41.0872 30.8525 42.6787 32.9508 46.4464 32.9508C49.9867 32.9508 51.3184 30.9836 51.3184 28.1639V26.5574H47.2909C46.5763 26.5574 45.9592 26.0656 45.9592 25.3443C45.9592 24.6229 46.6738 24.1311 47.2909 24.1311H52.6501C53.4946 24.1311 53.9818 24.6229 53.9818 25.3443V27.9344C54.2416 32 52.033 34.918 46.6738 34.918ZM65.5446 22.6557C65.1874 22.6557 64.8301 22.5246 63.9531 22.5246C62.6214 22.5246 60.8026 22.8852 60.3154 25.1148V33.7049C60.3154 34.4262 59.6008 34.918 58.9837 34.918C58.1392 34.918 57.652 34.4262 57.652 33.7049V23.8688C57.652 22.6557 57.2947 22.2623 56.5477 22.1639C56.1904 22.0328 56.0605 21.6721 56.0605 21.3115C56.0605 20.5902 56.5477 20.1967 57.3922 20.1967H57.8794C59.0811 20.5574 59.8282 21.3115 60.1854 21.9016C61.5171 20.1967 63.4659 19.9344 64.7002 19.9344C65.5446 19.9344 66.2917 20.0656 67.0062 20.2951C67.7208 20.4262 67.8507 21.1475 67.4934 21.6393C67.0062 22.2951 66.3891 22.8852 65.5446 22.6557ZM79.9982 34.918C79.2837 34.918 78.6666 34.5574 78.3093 34.4262C77.952 34.2951 77.8221 33.9344 77.5947 33.5738C76.393 34.7869 74.4442 34.918 73.08 34.918C69.0525 34.918 67.3635 32.9508 67.3635 30.7541V30.6229C67.3635 28.1639 69.3123 26.459 73.4373 26.459H77.205V25.7377C77.205 23.4098 76.4904 22.1639 73.9245 22.1639C72.333 22.1639 71.3586 22.5246 70.644 22.8852C69.0525 23.6066 67.8507 21.7705 69.3123 21.1803C70.644 20.459 72.2355 20.0656 74.1843 20.0656C78.9264 20.0656 80.2581 22.0328 80.2581 25.8361V31.2459C80.2581 32.459 80.6154 32.8525 81.1026 32.9508C81.4598 33.082 81.5898 33.4426 81.5898 33.8033C81.3299 34.5574 80.8752 34.918 79.9982 34.918ZM76.9776 28.2951H73.4373C70.644 28.2951 69.897 29.4098 69.897 30.6229V30.7541C69.897 31.9672 70.6115 33.082 73.1774 33.082C75.4835 33.082 76.7178 31.9672 76.7178 30.1311V28.2951H76.9776ZM88.2806 34.918C86.2019 34.918 85.0002 34.7869 83.5386 34.1967C82.824 34.0656 82.6941 33.3443 82.824 32.8525C83.1813 32.3607 83.6685 32 84.4155 32.1311C85.5198 32.4918 86.4942 32.623 88.1832 32.623C90.6192 32.623 91.7235 31.7705 91.7235 30.2951C91.7235 28.5902 89.2875 28.3279 86.9814 27.8361C84.9027 27.4754 82.8565 26.6229 82.8565 24.0328C82.8565 21.2131 85.2925 19.6066 88.443 19.6066C90.3918 19.6066 91.3662 19.7377 92.568 20.0984C93.2826 20.459 93.6723 20.9508 93.2826 21.4426C93.1526 21.9344 92.4381 22.2951 91.691 22.1639C90.5867 21.8033 89.6123 21.6721 88.4106 21.6721C86.3318 21.6721 85.4874 22.5246 85.4874 23.7705C85.4874 25.377 87.4362 25.4754 89.6123 26.0984C91.9184 26.459 94.3544 27.2131 94.3544 30.1639C94.7117 33.5738 91.9184 34.918 88.2806 34.918ZM101.662 34.918C99.5837 34.918 98.3819 34.7869 96.9203 34.1967C96.2058 34.0656 96.0758 33.3443 96.2058 32.8525C96.563 32.3607 97.0502 32 97.7973 32.1311C98.9016 32.4918 99.876 32.623 101.565 32.623C104.001 32.623 105.105 31.7705 105.105 30.2951C105.105 28.5902 102.669 28.3279 100.363 27.8361C98.2845 27.4754 96.2382 26.6229 96.2382 24.0328C96.2382 21.2131 98.6742 19.6066 101.825 19.6066C103.774 19.6066 104.748 19.7377 105.95 20.0984C106.664 20.459 107.054 20.9508 106.664 21.4426C106.534 21.9344 105.82 22.2951 105.073 22.1639C103.968 21.8033 102.994 21.6721 101.792 21.6721C99.7136 21.6721 98.8691 22.5246 98.8691 23.7705C98.8691 25.377 100.818 25.4754 102.994 26.0984C105.3 26.459 107.736 27.2131 107.736 30.1639C108.093 33.5738 105.3 34.918 101.662 34.918ZM121.832 34.918C120.988 34.918 120.501 34.4262 120.501 33.7049V25.4754C120.501 23.5082 120.014 22.2951 117.35 22.2951C115.401 22.2951 114.07 23.0164 113.323 24V33.4426C113.323 34.1639 112.608 34.6557 111.991 34.6557C111.147 34.6557 110.659 34.1639 110.659 33.4426V14.918C110.659 14.1967 111.374 13.7049 111.991 13.7049C112.836 13.7049 113.323 14.1967 113.323 14.918V21.1803C114.427 20.3279 115.889 19.8361 117.837 19.8361C121.962 19.8361 123.197 22.1639 123.197 25.1148V33.5738C123.197 34.4262 122.709 34.918 121.832 34.918ZM132.194 34.918C127.452 34.918 125.633 32.3279 125.633 28.918V25.9672C125.633 22.6557 127.581 19.9672 132.194 19.9672C136.936 19.9672 138.755 22.5574 138.755 25.9672V28.918C138.982 32.3607 136.936 34.918 132.194 34.918ZM136.059 25.9672C136.059 23.6393 134.954 22.2951 132.291 22.2951C129.725 22.2951 128.653 23.6393 128.653 25.9672V28.918C128.653 31.2459 129.758 32.5902 132.291 32.5902C134.824 32.5902 136.059 31.2459 136.059 28.918V25.9672ZM148.596 34.918C147.394 34.918 145.803 34.5574 144.828 33.8033V38.7213C144.828 39.4426 144.114 39.9344 143.497 39.9344C142.652 39.9344 142.165 39.4426 142.165 38.7213V23.7377C142.165 22.5246 141.808 22.1312 141.32 22.0328C140.963 21.9016 140.833 21.541 140.833 21.1803C140.833 20.459 141.548 20.0656 142.165 20.0656C142.652 20.0656 143.367 20.1967 143.854 20.5574C143.984 20.6885 144.341 20.918 144.568 21.2787C145.77 20.4262 147.362 20.0656 148.953 20.0656C153.338 20.0656 155.027 22.1639 155.027 25.8361V28.4262C154.442 32.3607 152.851 34.918 148.596 34.918ZM151.519 25.6066C151.519 23.2787 150.675 22.0328 147.881 22.0328C146.777 22.0328 145.575 22.3934 144.601 23.2459V31.3443C145.705 32.1967 147.037 32.6885 148.141 32.6885C150.577 32.6885 151.682 31.3443 151.682 28.8852V25.5738H151.519V25.6066ZM164.056 34.918C162.855 34.918 161.263 34.5574 160.029 33.8033V38.7213C160.029 39.4426 159.314 39.9344 158.697 39.9344C157.853 39.9344 157.366 39.4426 157.366 38.7213V23.7377C157.366 22.5246 157.008 22.1312 156.521 22.0328C156.164 21.9016 156.034 21.541 156.034 21.1803C156.034 20.459 156.748 20.0656 157.366 20.0656C157.853 20.0656 158.567 20.1967 159.055 20.5574C159.412 20.6885 159.542 20.918 159.769 21.2787C160.971 20.4262 162.562 20.0656 164.154 20.0656C168.539 20.0656 170.228 22.1639 170.228 25.8361V28.4262C169.87 32.3607 168.311 34.918 164.056 34.918ZM166.98 25.6066C166.98 23.2787 166.135 22.0328 163.342 22.0328C162.238 22.0328 161.036 22.3934 160.061 23.2459V31.3443C161.166 32.1967 162.497 32.6885 163.602 32.6885C166.038 32.6885 167.142 31.3443 167.142 28.8852V25.5738H166.98V25.6066ZM184.714 27.2131C184.714 27.7049 184.227 28.3279 183.609 28.3279H174.612V29.0492C174.612 31.3771 175.814 32.7213 178.25 32.7213C180.199 32.7213 181.173 32.3607 182.375 31.8689C183.09 31.5082 183.707 31.8689 183.967 32.3607C184.097 32.8525 183.967 33.4754 183.48 33.7049C181.888 34.4262 180.199 34.8197 178.25 34.8197C173.508 34.8197 171.819 32 171.819 28.6885V26.2295C171.819 22.918 173.768 20.0984 178.25 20.0984C183.122 20.0984 184.681 22.918 184.681 26.2295L184.714 27.2131ZM181.92 25.8361C181.92 23.5082 181.076 22.1639 178.283 22.1639C175.717 22.1639 174.645 23.5082 174.645 25.8361V26.3279H181.953V25.8361H181.92ZM195.53 22.6557C195.172 22.6557 194.815 22.5246 193.938 22.5246C192.606 22.5246 190.788 22.8852 190.3 25.1148V33.7049C190.3 34.4262 189.586 34.918 188.969 34.918C188.124 34.918 187.637 34.4262 187.637 33.7049V23.8688C187.637 22.6557 187.28 22.2623 186.533 22.1639C186.175 22.0328 186.045 21.6721 186.045 21.3115C186.045 20.5902 186.533 20.1967 187.377 20.1967H187.864C189.066 20.5574 189.813 21.3115 190.17 21.9016C191.502 20.1967 193.451 19.9344 194.685 19.9344C195.53 19.9344 196.277 20.0656 196.991 20.2951C197.706 20.4262 197.836 21.1475 197.478 21.6393C196.991 22.2951 196.504 22.8852 195.53 22.6557Z" fill="var(--fill-0, white)"/>
<path id="Vector_2" d="M20.0402 0.0655778V1.77049C26.861 4.45901 31.3432 11.1148 31.3432 18.459C31.3432 18.3279 31.2133 18.3279 31.2133 18.0984C29.8816 12.459 25.6267 8.16393 20.1376 6.68852V8.03279C23.7754 9.14754 26.9584 11.6066 28.6474 14.918C24.7498 11.8361 18.3187 10.9836 12.115 13.082C3.60528 16.0328 -1.624 23.7705 0.68208 30.2623C2.37104 35.1803 7.99008 38 14.1938 37.7377C18.3187 36.1311 21.5992 33.5738 23.8078 30.3607C23.4506 32.459 22.4762 34.4262 21.0146 36.3607C27.0883 33.9016 31.4731 29.1148 32.0902 24.0984C32.4475 23.2459 32.5774 22.3934 32.8048 21.2787C34.169 11.8689 28.5499 3.0164 20.0402 0.0655778Z" fill="var(--fill-0, white)"/>
<path id="Vector_3" d="M17.5777 28.6396C22.4144 27.4905 25.6357 23.5583 24.7727 19.8568C23.9097 16.1554 19.2891 14.0863 14.4524 15.2354C9.61569 16.3845 6.39438 20.3167 7.2574 24.0182C8.12043 27.7197 12.741 29.7887 17.5777 28.6396Z" fill="var(--fill-0, black)"/>
<path id="Vector_4" d="M18.2807 22.5822C20.2364 22.1171 21.535 20.5113 21.1812 18.9955C20.8275 17.4796 18.9554 16.6278 16.9997 17.0928C15.0441 17.5578 13.7455 19.1637 14.0992 20.6795C14.453 22.1953 16.3251 23.0472 18.2807 22.5822Z" fill="var(--fill-0, white)"/>
<path id="Vector_5" d="M200.759 19.3443C201.733 19.3443 202.448 20.0656 202.448 21.0492C202.448 22.0328 201.733 22.7541 200.759 22.7541C199.784 22.7541 199.07 22.0328 199.07 21.0492C199.07 20.0656 199.784 19.3443 200.759 19.3443ZM200.759 19.082C199.655 19.082 198.81 19.9344 198.81 21.0492C198.81 22.1639 199.655 23.0164 200.759 23.0164C201.863 23.0164 202.708 22.1639 202.708 21.0492C202.708 19.9344 201.733 19.082 200.759 19.082Z" fill="var(--fill-0, white)"/>
<path id="Vector_6" d="M201.506 20.5574C201.506 20.6885 201.506 20.7869 201.376 20.918C201.246 21.0492 201.246 21.1475 201.149 21.1475L201.766 22.1311H201.279L200.791 21.2787H200.564V22.1311H200.207V19.9344H200.921C201.149 19.9344 201.408 19.9344 201.538 20.0656C201.376 20.1967 201.506 20.459 201.506 20.5574ZM201.019 20.6885C201.019 20.5574 201.019 20.5574 200.889 20.459C200.889 20.459 200.759 20.3279 200.661 20.3279H200.402V20.9508H200.629C200.759 20.9508 200.759 20.9508 200.856 20.8197C200.889 20.8197 201.019 20.6885 201.019 20.6885Z" fill="var(--fill-0, white)"/>
</g>
<defs>
<clipPath id="clip0_8_472">
<rect width="203" height="40" fill="white"/>
</clipPath>
</defs>
</svg>
