<svg fill="none" height="40" viewBox="0 0 203 40" width="203" xmlns="http://www.w3.org/2000/svg" xmlns:xlink="http://www.w3.org/1999/xlink"><clipPath id="a"><path d="m0 0h203v40h-203z"/></clipPath><g clip-path="url(#a)" fill="#fff"><path d="m46.6738 34.918c-6.0738 0-8.3799-3.6721-8.3799-9.0819v-3.3115c0-5.2787 2.3061-9.082 8.5098-9.082 2.0787 0 4.125.4918 5.5866 1.7049.3572.3607.4872.7214.4872.8525 0 .4918-.4872 1.2131-1.3317 1.2131-.4872 0-.8445-.1311-1.3317-.4918-.8445-.7213-2.0787-.8524-3.5403-.8524-3.7677 0-5.5866 2.3278-5.5866 6.8852v3.3115c0 4.7869 1.5915 6.8852 5.3592 6.8852 3.5403 0 4.872-1.9672 4.872-4.7869v-1.6065h-4.0275c-.7146 0-1.3317-.4918-1.3317-1.2131s.7146-1.2131 1.3317-1.2131h5.3592c.8445 0 1.3317.4918 1.3317 1.2131v2.5901c.2598 4.0656-1.9488 6.9836-7.308 6.9836zm18.8709-12.2623c-.3573 0-.7146-.1311-1.5916-.1311-1.3316 0-3.1505.3607-3.6377 2.5902v8.5901c0 .7213-.7146 1.2131-1.3317 1.2131-.8445 0-1.3317-.4918-1.3317-1.2131v-9.836c0-1.2132-.3572-1.6066-1.1043-1.705-.3573-.1311-.4872-.4918-.4872-.8524 0-.7213.4872-1.1148 1.3317-1.1148h.4872c1.2017.3607 1.9488 1.1148 2.3061 1.7049 1.3316-1.7049 3.2804-1.9672 4.5147-1.9672.8445 0 1.5915.1312 2.3061.3607.7145.1311.8444.8524.4872 1.3442-.4872.6558-1.1044 1.246-1.9488 1.0164zm14.4536 12.2623c-.7146 0-1.3317-.3606-1.689-.4918-.3573-.1311-.4872-.4918-.7146-.8524-1.2017 1.2131-3.1505 1.3442-4.5147 1.3442-4.0275 0-5.7165-1.9672-5.7165-4.1639v-.1311c0-2.4591 1.9489-4.164 6.0738-4.164h3.7677v-.7213c0-2.3279-.7146-3.5738-3.2805-3.5738-1.5915 0-2.5659.3607-3.2805.7213-1.5915.7214-2.7933-1.1147-1.3317-1.7049 1.3317-.7213 2.9232-1.1147 4.872-1.1147 4.7421 0 6.0738 1.9672 6.0738 5.7705v5.4098c0 1.2131.3573 1.6066.8445 1.7049.3573.1312.4872.4918.4872.8525-.2598.7541-.7146 1.1147-1.5915 1.1147zm-3.0207-6.6229h-3.5403c-2.7933 0-3.5403 1.1147-3.5403 2.3279v.1311c0 1.2131.7145 2.3279 3.2805 2.3279 2.306 0 3.5403-1.1148 3.5403-2.9509v-1.836zm11.3031 6.6229c-2.0788 0-3.2805-.1311-4.7421-.7213-.7146-.1311-.8445-.8524-.7146-1.3442.3573-.4918.8445-.8525 1.5915-.7213 1.1044.3606 2.0788.4918 3.7677.4918 2.436 0 3.5403-.8525 3.5403-2.3279 0-1.7049-2.436-1.9672-4.742-2.459-2.0788-.3607-4.125-1.2131-4.125-3.8033 0-2.8197 2.436-4.4262 5.5866-4.4262 1.9488 0 2.9232.1311 4.1249.4918.7146.3606 1.1044.8524.7146 1.3442-.1299.4918-.8445.8525-1.5915.7213-1.1044-.3606-2.0787-.4918-3.2805-.4918-2.0787 0-2.9232.8525-2.9232 2.0984 0 1.6066 1.9488 1.7049 4.1249 2.3279 2.3061.3606 4.7421 1.1147 4.7421 4.0655.3573 3.4099-2.436 4.7541-6.0737 4.7541zm13.3813 0c-2.0783 0-3.2801-.1311-4.7417-.7213-.7145-.1311-.8444-.8524-.7145-1.3442.3573-.4918.8445-.8525 1.5915-.7213 1.1043.3606 2.0787.4918 3.7677.4918 2.436 0 3.54-.8525 3.54-2.3279 0-1.7049-2.436-1.9672-4.742-2.459-2.0785-.3607-4.1247-1.2131-4.1247-3.8033 0-2.8197 2.436-4.4262 5.5867-4.4262 1.949 0 2.923.1311 4.125.4918.714.3606 1.104.8524.714 1.3442-.13.4918-.844.8525-1.591.7213-1.104-.3606-2.079-.4918-3.281-.4918-2.0784 0-2.9229.8525-2.9229 2.0984 0 1.6066 1.9489 1.7049 4.1249 2.3279 2.306.3606 4.742 1.1147 4.742 4.0655.357 3.4099-2.436 4.7541-6.074 4.7541zm20.171 0c-.845 0-1.332-.4918-1.332-1.2131v-8.2295c0-1.9672-.487-3.1803-3.151-3.1803-1.949 0-3.28.7213-4.027 1.7049v9.4426c0 .7213-.715 1.2131-1.332 1.2131-.844 0-1.332-.4918-1.332-1.2131v-18.5246c0-.7213.715-1.2131 1.332-1.2131.845 0 1.332.4918 1.332 1.2131v6.2623c1.104-.8524 2.566-1.3442 4.514-1.3442 4.125 0 5.36 2.3278 5.36 5.2787v8.459c0 .8524-.488 1.3442-1.364 1.3442zm10.361 0c-4.742 0-6.561-2.5901-6.561-6v-2.9508c0-3.3115 1.948-6 6.561-6 4.742 0 6.561 2.5902 6.561 6v2.9508c.227 3.4427-1.819 6-6.561 6zm3.865-8.9508c0-2.3278-1.105-3.6721-3.768-3.6721-2.566 0-3.638 1.3443-3.638 3.6721v2.9508c0 2.3279 1.105 3.6722 3.638 3.6722 2.534 0 3.768-1.3443 3.768-3.6722zm12.537 8.9508c-1.202 0-2.793-.3606-3.768-1.1147v4.918c0 .7213-.714 1.2131-1.331 1.2131-.845 0-1.332-.4918-1.332-1.2131v-14.9836c0-1.2131-.357-1.6065-.844-1.7049-.358-.1312-.488-.4918-.488-.8525 0-.7213.715-1.1147 1.332-1.1147.487 0 1.202.1311 1.689.4918.13.1311.487.3606.715.7213 1.201-.8525 2.793-1.2131 4.384-1.2131 4.385 0 6.074 2.0983 6.074 5.7705v2.5901c-.585 3.9345-2.176 6.4918-6.431 6.4918zm2.923-9.3114c0-2.3279-.844-3.5738-3.638-3.5738-1.104 0-2.306.3606-3.28 1.2131v8.0984c1.104.8524 2.436 1.3442 3.54 1.3442 2.436 0 3.541-1.3442 3.541-3.8032v-3.3115h-.163zm12.538 9.3114c-1.202 0-2.794-.3606-4.028-1.1147v4.918c0 .7213-.715 1.2131-1.332 1.2131-.844 0-1.331-.4918-1.331-1.2131v-14.9836c0-1.2131-.358-1.6065-.845-1.7049-.357-.1312-.487-.4918-.487-.8525 0-.7213.715-1.1147 1.332-1.1147.487 0 1.201.1311 1.689.4918.357.1311.487.3606.714.7213 1.202-.8525 2.793-1.2131 4.385-1.2131 4.385 0 6.074 2.0983 6.074 5.7705v2.5901c-.358 3.9345-1.917 6.4918-6.171 6.4918zm2.923-9.3114c0-2.3279-.845-3.5738-3.638-3.5738-1.104 0-2.306.3606-3.281 1.2131v8.0984c1.105.8524 2.436 1.3442 3.541 1.3442 2.436 0 3.54-1.3442 3.54-3.8032v-3.3115h-.162zm17.734 1.6065c0 .4918-.487 1.1148-1.105 1.1148h-8.996v.7213c0 2.3279 1.201 3.6721 3.637 3.6721 1.949 0 2.923-.3606 4.125-.8524.715-.3607 1.332 0 1.592.4918.13.4918 0 1.1147-.487 1.3442-1.592.7213-3.281 1.1148-5.23 1.1148-4.742 0-6.431-2.8197-6.431-6.1312v-2.459c0-3.3115 1.949-6.1311 6.431-6.1311 4.872 0 6.431 2.8196 6.431 6.1311zm-2.793-1.377c0-2.3279-.845-3.6722-3.638-3.6722-2.566 0-3.638 1.3443-3.638 3.6722v.4918h7.308v-.4918zm13.609-3.1804c-.358 0-.715-.1311-1.592-.1311-1.332 0-3.15.3607-3.638 2.5902v8.5901c0 .7213-.714 1.2131-1.331 1.2131-.845 0-1.332-.4918-1.332-1.2131v-9.836c0-1.2132-.357-1.6066-1.104-1.705-.358-.1311-.488-.4918-.488-.8524 0-.7213.488-1.1148 1.332-1.1148h.487c1.202.3607 1.949 1.1148 2.306 1.7049 1.332-1.7049 3.281-1.9672 4.515-1.9672.845 0 1.592.1312 2.306.3607.715.1311.845.8524.487 1.3442-.487.6558-.974 1.246-1.948 1.0164z"/><path d="m20.0403.0654297c8.5096 2.9508203 14.1286 11.8032703 12.7646 21.2128703-.2273 1.1148-.3575 1.9679-.7148 2.8203-.6173 5.0162-5.0018 9.8027-11.0752 12.2618 1.4614-1.9344 2.4357-3.9018 2.793-6-2.2087 3.2131-5.4894 5.7703-9.6143 7.3769-6.2035.2623-11.82262-2.5568-13.511715-7.4746-2.306085-6.4918 2.923835-14.2298 11.433615-17.1807 6.2035-2.0982 12.6347-1.2459 16.5322 1.836-1.6889-3.3114-4.8722-5.76997-8.5098-6.8848v-1.34472c5.489 1.4755 9.7436 5.77092 11.0752 11.41012.0001.2292.1299.2293.1299.3604 0-7.3442-4.482-13.99993-11.3027-16.68849zm4.7324 19.7909703c-.8632-3.7012-5.4838-5.7701-10.3203-4.621-4.83672 1.1491-8.05835 5.0817-7.19532 8.7832.86322 3.7012 5.48382 5.7701 10.32032 4.621 4.8367-1.1491 8.0583-5.0817 7.1953-8.7832zm-7.7734-2.7636c1.9554-.465 3.8277.3867 4.1816 1.9023.3537 1.5159-.9447 3.1219-2.9004 3.5869-1.9555.465-3.8278-.3866-4.1816-1.9023-.3537-1.5158.9449-3.1218 2.9004-3.5869z"/><path d="m200.759 19.3443c.974 0 1.689.7213 1.689 1.7049 0 .9837-.715 1.705-1.689 1.705-.975 0-1.689-.7213-1.689-1.705 0-.9836.714-1.7049 1.689-1.7049zm0-.2623c-1.104 0-1.949.8525-1.949 1.9672 0 1.1148.845 1.9673 1.949 1.9673s1.949-.8525 1.949-1.9673c0-1.1147-.975-1.9672-1.949-1.9672z"/><path d="m201.506 20.5574c0 .1312 0 .2295-.13.3607-.13.1311-.13.2295-.227.2295l.617.9836h-.487l-.488-.8525h-.227v.8525h-.357v-2.1968h.714c.228 0 .488.0001.617.1312-.162.1312-.032.3934-.032.4918zm-.487.1312c0-.1312 0-.1312-.13-.2296 0 0-.13-.1311-.228-.1311h-.259v.6229h.227c.13 0 .13 0 .227-.1311.033 0 .163-.1311.163-.1311z"/></g></svg>