<svg fill="none" height="72" viewBox="0 0 338 72" width="338" xmlns="http://www.w3.org/2000/svg" xmlns:xlink="http://www.w3.org/1999/xlink"><clipPath id="a"><path d="m0 0h337.6v72h-337.6z"/></clipPath><g clip-path="url(#a)" fill="#fff"><path d="m140.4 14.4v43.1999h-7.5v-33.8999h-.1l-13.4 33.8999h-5l-13.7-33.8999h-.1v33.8999h-6.9v-43.1999h10.8l12.4 32h.2l13.1-32zm6.2 3.3c0-1.2.4-2.2 1.3-3s1.9-1.2 3.1-1.2c1.3 0 2.4.4 3.2 1.2s1.3 1.8 1.3 3-.4 2.2-1.3 3-1.9 1.2-3.2 1.2-2.3-.4-3.1-1.2c-.8-.9-1.3-1.9-1.3-3zm8.1 8.9v30.9999h-7.3v-30.9999zm22.1 25.6999c1.1 0 2.3-.1999 3.6-.7999 1.3-.5 2.5-1.2 3.6-2v6.7999c-1.2.7-2.5 1.2-4 1.5s-3.1.5-4.9.5c-4.6 0-8.3-1.3999-11.1-4.2999-2.9-2.9-4.3-6.6-4.3-11 0-5 1.5-9.1 4.4-12.3s7-4.8 12.4-4.8c1.4 0 2.8.2 4.1.5 1.4.3 2.5.8 3.3 1.2v6.9999c-1.1-.8-2.3-1.4999-3.4-1.8999-1.2-.4-2.4-.7-3.6-.7-2.9 0-5.2.8999-7 2.7999s-2.6 4.4001-2.6 7.6001c0 3.1.9 5.6 2.6 7.3s4 2.5999 6.9 2.5999zm27.9-26.1999c.6 0 1.1 0 1.6.1s.9.2 1.2.3v7.4c-.4-.3-.9-.6001-1.7-.8001s-1.6-.3999-2.7-.3999c-1.8 0-3.3.8-4.5 2.3s-1.9 3.8-1.9 7v15.5999h-7.3v-30.9999h7.3v4.9h.1c.7-1.7 1.7-3 3-4 1.4-.9 3-1.4 4.9-1.4zm3.2 16.4999c0-5.1 1.5-9.1999 4.3-12.1999 2.9-3 6.9-4.5 12-4.5 4.8 0 8.6 1.4 11.3 4.3s4.1 6.8 4.1 11.7c0 5-1.5 9-4.3 12-2.9 3-6.8 4.5-11.8 4.5-4.8 0-8.6-1.4-11.4-4.2-2.8-2.9-4.2-6.8001-4.2-11.6001zm7.6-.3c0 3.2.7 5.7001 2.2 7.4001s3.6 2.5999 6.3 2.5999c2.6 0 4.7-.7999 6.1-2.5999 1.4-1.7 2.1-4.2001 2.1-7.6001 0-3.3-.7-5.7999-2.1-7.5999-1.4-1.7-3.5-2.6-6-2.6-2.7 0-4.7.8999-6.2 2.6999-1.7 1.9-2.4 4.4-2.4 7.7zm35-7.5c0 1 .3 1.9 1 2.5s2.1 1.3001 4.4 2.2001c2.9 1.2 5 2.5 6.1 3.9 1.2 1.5 1.8 3.2 1.8 5.3 0 2.9-1.1 5.2-3.4 7-2.2 1.8-5.3 2.5999-9.1 2.5999-1.3 0-2.7-.2-4.3-.5s-2.9-.7-4-1.2v-7.1999c1.3.9 2.8 1.6999 4.3 2.1999s2.9.8001 4.2.8001c1.6 0 2.9-.2 3.6-.7.8-.5 1.2-1.2 1.2-2.3 0-1-.4-1.8001-1.2-2.6001-.8-.7-2.4-1.4999-4.6-2.3999-2.7-1.1-4.6-2.4001-5.7-3.8001s-1.7-3.1999-1.7-5.3999c0-2.8 1.1-5.1001 3.3-6.9001s5.1-2.6999 8.6-2.6999c1.1 0 2.3.1 3.6.4s2.5.6 3.4.9v7.1c-1-.6-2.1-1.2001-3.4-1.7001s-2.6-.6999-3.8-.6999c-1.4 0-2.5.3-3.2.8-.7.7-1.1 1.3999-1.1 2.3999zm16.4 7.8c0-5.1 1.5-9.1999 4.3-12.1999 2.9-3 6.9-4.5 12-4.5 4.8 0 8.6 1.4 11.3 4.3s4.1 6.8 4.1 11.7c0 5-1.5 9-4.3 12-2.9 3-6.8 4.5-11.8 4.5-4.8 0-8.6-1.4-11.4-4.2-2.7-2.9-4.2-6.8001-4.2-11.6001zm7.6-.3c0 3.2.7 5.7001 2.2 7.4001s3.6 2.5999 6.3 2.5999c2.6 0 4.7-.7999 6.1-2.5999 1.4-1.7 2.1-4.2001 2.1-7.6001 0-3.3-.7-5.7999-2.1-7.5999-1.4-1.7-3.5-2.6-6-2.6-2.7 0-4.7.8999-6.2 2.6999-1.6 1.9-2.4 4.4-2.4 7.7zm48.4-9.7h-10.9v25h-7.4v-25h-5.2v-5.9999h5.2v-4.3c0-3.2 1.1-5.9 3.2-8s4.8-3.1 8.1-3.1c.9 0 1.7.1 2.4.1s1.3.2 1.8.4v6.3c-.2-.1-.7-.3-1.3-.5s-1.3-.3-2.1-.3c-1.5 0-2.7.5-3.5 1.4s-1.2 2.4-1.2 4.2v3.7h10.9v-7l7.3-2.2v9.2h7.4v6h-7.4v14.5c0 1.9.4 3.2 1 4 .7.8 1.8 1.2 3.3 1.2.4 0 .9-.1 1.5-.3s1.1-.4 1.5-.7v6c-.5.3-1.2.5-2.3.7s-2.1.3-3.2.3c-3.1 0-5.4-.8001-6.9-2.4001s-2.3-4.0999-2.3-7.3999z"/><path d="m34.2 0h-34.2v34.2h34.2z"/><path d="m72 0h-34.2v34.2h34.2z"/><path d="m34.2 37.8h-34.2v34.2h34.2z"/><path d="m72 37.8h-34.2v34.2h34.2z"/></g></svg>