<svg fill="none" height="24" viewBox="0 0 190 24" width="190" xmlns="http://www.w3.org/2000/svg"><g fill="#fff"><path d="m41.5168 4.00378h4.2678l.0942 1.96631c1.6004-1.48401 2.6924-1.96631 5.4476-1.96631h7.6506c3.8473 0 5.5858 1.75608 5.5858 5.13839v10.85183h-4.4059v-9.5471c0-2.34972-.3451-2.69599-2.6673-2.69599h-11.5669v12.24309h-4.4059z"/><path d="m66.1821 4.00375h21.5585v3.56162h-17.1589v2.69593h17.1589v3.4689h-17.1589v2.6959h17.1589v3.5617h-21.5585v-15.99024z"/><path d="m88.437 4.00378h4.431l4.2866 11.30942 4.3114-11.30942h4.174l4.356 11.39592 4.38-11.39592h4.431l-6.351 15.99022h-4.801l-4.149-10.27678-4.0105 10.27678h-4.9142z"/><path d="m124.374 4.00375h21.559v3.56162h-17.159v2.69593h17.159v3.4689h-17.159v2.6959h17.159v3.5617h-21.559v-15.99024z"/><path d="m147.558 4.00378h4.268l.094 1.96631c1.601-1.48401 2.686-1.96631 5.448-1.96631h5.31v3.74713h-10.714v12.24309h-4.406z"/><path d="m180.2 18.0276c-1.6 1.4841-2.686 1.9664-5.447 1.9664h-7.212c-3.364 0-5.447-2.0344-5.447-5.1632s2.065-4.95903 5.378-4.95903h12.684v-.2968c0-1.37271-.765-1.83029-1.97-1.83029h-14.561v-3.74712h15.345c3.848 0 5.586 1.75608 5.586 5.13838v10.85186h-4.268l-.094-1.9663zm-12.59-1.8055h12.54v-2.7887h-12.54c-1.023 0-1.531.6369-1.531 1.3913 0 .7543.508 1.3912 1.531 1.3912z"/><path d="m185.51 18.1265c0-1.0635.828-1.8673 1.895-1.8673s1.896.7976 1.896 1.8673c0 1.0698-.829 1.8674-1.896 1.8674s-1.895-.7976-1.895-1.8674zm1.895 1.5211c.873 0 1.544-.6554 1.544-1.5211 0-.8656-.671-1.5211-1.544-1.5211-.872 0-1.544.6555-1.544 1.5211 0 .8657.672 1.5211 1.544 1.5211zm-.954-2.4733h1.312c.383 0 .596.204.596.5689 0 .2844-.113.4452-.332.507.175.0186.276.1051.276.303v.5503h-.559v-.5503c0-.0804-.044-.1175-.119-.1175h-.609v.6678h-.558v-1.923zm1.155.8224c.113 0 .176-.0804.176-.1917s-.063-.1917-.176-.1917h-.596v.3772h.596z"/><path d="m2.88717 22.6466c.15063 1.1192 1.22385 1.6077 2.341 1.2243 1.05439-.371 9.80333-3.7719 11.18403-4.2975 1.8703-.7111 2.8996-.8347 3.2385.031.546 1.385 2.1904 1.453 4.1485.3524 1.7699-.9893 9.1757-5.2002 9.1757-5.2002s-3.4142-5.31154-3.7719-5.86804c-.5272-.82239-1.1988-1.46547-2.6611-1.72517-1.0356-.17932-9.0439-1.5953-9.0439-1.5953-.4707-1.03262-1.7887-2.11472-3.7029-2.59084l-11.85563-2.9185519c-1.173631-.2906191-2.083669.5317699-1.9204899 1.7189819 0 0 2.7112899 19.76822 2.8619099 20.86892m28.61291-8.3229s-5.2971 2.3188-6.659 2.9186c-1.6757.7358-3.1632.6493-3.6904-.5627-.2447-.5627-1.3305-.5318-3.4016.0742l-10.56276 3.0361-.74058-3.5493s8.45394-1.5335 10.39954-1.8859c1.9519-.3587 3.2197-.1484 3.7406 1.045.138.3091.2071.4699.2071.4699l9.8849-2.8505.8159 1.317zm-2.2218-3.5616.7469 1.1996-7.1423 1.2923-.9665-1.9601zm-2.4351-2.54135c.6778.0742 1.1046.39574 1.3242.75438.0628.10511.3013.4823.3013.4823l-7.5565-.21642-.8661-1.77463s6.2322.69254 6.7971.75437zm-18.81586-5.00854s.37657 1.25523.40795 1.40363c.01255-.69872.659-1.19339 1.48745-1.03262.82216.16077 2.11506.42047 2.64856.52559 2.3598.46376 3.4644.87185 4.3368 2.8629l2.7677 6.33179c-.6025-.3834-1.3933-.5256-3.3953-.2721l-.4896.0619s-1.3996-3.74717-1.8138-4.86018c-.4205-1.11919-.9163-1.80555-2.2657-1.96632-.3765-.04328-2.88699-.34008-2.88699-.34008l2.27199 7.76018-5.03976.6368-2.48535-11.98333 4.46233.87803z"/></g></svg>