<svg fill="none" height="24" viewBox="0 0 180 24" width="180" xmlns="http://www.w3.org/2000/svg"><path clip-rule="evenodd" d="m77.8775 14.9776h11.8716l-6.2709-9.97247-11.5284 18.01167h-5.2425l14.0213-21.6097c.6204-.874893 1.6328-1.39934847 2.7163-1.40701487 1.0836-.00766639 2.1033.50284187 2.7365 1.36905487l14.0606 21.64776h-5.2429l-2.4693-4.0274h-12.0117l-2.6171-4.0119zm54.4965 4.0119v-18.771154h-4.456v20.620054c-.001.5792.238 1.1334.663 1.5344.426.4292 1.01.6701 1.619.6672h20.253l2.642-4.0273h-20.744zm-73.6666-3.3525c4.3233 0 7.8286-3.4514 7.8286-7.70922 0-4.25808-3.5053-7.709526-7.8286-7.709526h-19.4746v22.798546h4.4483v-18.76353h14.7536c2.0692 0 3.7466 1.65216 3.7466 3.68985s-1.6775 3.68988-3.7466 3.68988h-12.5493l13.2893 11.3838h6.4576l-8.927-7.3798zm-46.8318 7.3798h13.4531c6.2738-.1601 11.2752-5.2146 11.2752-11.3953 0-6.1804-5.0014-11.235509-11.2752-11.395487h-13.4531c-3.1211-.079805-6.14206 1.085397-8.37817 3.231247-2.23601 2.1452-3.49743 5.08956-3.49743 8.16424 0 3.0744 1.26142 6.0188 3.49743 8.1645 2.23611 2.1453 5.25707 3.3106 8.37817 3.2308zm13.1491-4.0119h-12.8528c-4.04253-.1284-7.25211-3.3928-7.25211-7.3758 0-3.98303 3.20958-7.24762 7.25211-7.37583h12.8528c2.0281-.06438 3.9962.68407 5.4541 2.07427 1.4581 1.39011 2.281 3.30338 2.281 5.30156 0 1.9986-.8229 3.9114-2.281 5.3015-1.458 1.3901-3.426 2.1386-5.4541 2.0743zm84.5093 4.0119h13.734l2.602-4.0119h-16.031c-2.029.0643-3.997-.6842-5.455-2.0743s-2.281-3.3029-2.281-5.3015c0-1.99818.823-3.91145 2.281-5.30156 1.458-1.3902 3.426-2.13865 5.455-2.07427h13.047l2.633-4.027257h-15.985c-3.12-.079805-6.141 1.085397-8.377 3.231247-2.2366 2.1452-3.4979 5.08956-3.4979 8.16424 0 3.0744 1.2613 6.0188 3.4979 8.1645 2.236 2.1453 5.257 3.3106 8.377 3.2308zm54.427-4.0119-.007-.0078h16.046l-2.609 4.0121h-13.733c-6.274-.1601-11.277-5.2147-11.277-11.3955 0-6.18036 5.003-11.235468 11.277-11.395446h15.968l-2.61 4.027356h-13.055c-3.355-.00379-6.303 2.19055-7.214 5.36989h21.641l-2.618 4.0196h-19.023c.914 3.1778 3.861 5.3712 7.214 5.3698z" fill="#fff" fill-rule="evenodd"/></svg>