<svg width="1822" height="245" viewBox="0 0 1822 245" fill="none" xmlns="http://www.w3.org/2000/svg">
<path d="M94.4258 0C96.8769 3.31362e-05 99.3282 0.526147 101.608 1.57129L178.81 36.9951C184.928 39.802 188.852 45.9156 188.852 52.6533V146.016C188.852 165.782 179.283 186.633 161.915 204.729C145.861 221.446 123.852 235.111 99.9453 243.203C98.158 243.808 96.2919 244.11 94.4258 244.11C92.5595 244.11 90.6927 243.808 88.9053 243.203C64.9919 235.111 42.9905 221.446 26.9365 204.729C9.56813 186.633 3.46009e-05 165.782 0 146.016V52.6533C0 45.9222 3.92305 39.802 10.041 36.9951L87.2432 1.57129C89.5234 0.526136 91.9746 0 94.4258 0ZM94.4268 17.2285L17.2246 52.6523V146.015C17.2246 177.791 50.5227 212.026 94.4268 226.882V226.881C138.33 212.018 171.628 177.79 171.628 146.015V52.6523L94.4268 17.2285ZM94.4258 104.682H29.5195L25.9717 84.1064H94.4258V17.2285H94.4268V84.1064H162.894L159.346 104.682H94.4268V226.881H94.4258V104.682ZM67.9375 120.49L82.874 207.779C78.5107 205.814 74.3377 203.631 70.3818 201.271L56.5615 120.49H67.9375ZM118.55 200.857C114.594 203.257 110.408 205.466 106.038 207.464L120.922 120.478H132.304L118.55 200.857ZM43.9834 120.484L56.2266 192.042C51.1074 187.914 46.5266 183.464 42.5771 178.79L32.6016 120.484H43.9834ZM146.433 177.856C142.49 182.648 137.89 187.217 132.725 191.464L144.868 120.484H156.25L146.433 177.856Z" fill="white"/>
<path d="M287.607 198.754V45.3564H371.887C416.198 45.3564 431.621 64.0447 431.621 100.323V103.216C431.621 138.416 416.198 157.315 371.887 157.315H317.803V198.747H287.614L287.607 198.754ZM369.495 128.642C391.864 128.642 401.426 123.863 401.426 103.005V100.33C401.426 78.3879 392.304 74.2598 369.495 74.2598H317.797V128.648H369.495V128.642Z" fill="white"/>
<path d="M639.273 145.956V98.3711C639.273 65.7801 654.697 45.3564 690.754 45.3564H746.579C782.637 45.3564 798.06 65.7801 798.06 98.3711V145.956C798.06 178.33 782.637 198.754 746.579 198.754H690.754C654.697 198.754 639.273 178.33 639.273 145.956ZM746.573 169.857C761.128 169.857 767.858 165.729 767.858 147.041V97.2865C767.858 78.3813 761.772 74.2532 746.573 74.2532H690.748C675.758 74.2532 669.463 78.3813 669.463 97.2865V147.041C669.463 165.729 676.198 169.857 690.748 169.857H746.573Z" fill="white"/>
<path d="M871.102 198.754V74.477H818.754V45.3633H953.64V74.477H901.292V198.754H871.102Z" fill="white"/>
<path d="M980.801 198.754V45.3564H1108.04L1103.06 74.2532H1010.77V107.712H1094.13V134.44H1010.77V169.857H1103.06L1108.04 198.754H980.801Z" fill="white"/>
<path d="M1356.06 198.754V74.477H1303.71V45.3633H1438.6V74.477H1386.25V198.754H1356.06Z" fill="white"/>
<path d="M1821.14 74.4702V45.3564H1779.63H1749.44H1707.93V74.4702H1749.44V169.634H1707.93V198.754H1749.44H1779.63H1821.14V169.634H1779.63V74.4702H1821.14Z" fill="white"/>
<path d="M1610.68 45.3564H1578.84L1504.86 198.747H1538.53L1550.88 172.243H1638.75L1650.78 198.747H1684.41L1610.68 45.3564ZM1562.18 147.475L1594.98 76.8629L1627.34 147.475H1562.18Z" fill="white"/>
<path d="M609.727 102.138V100.764C609.727 64.0447 592.786 45.3564 548.258 45.3564H463.979V198.747H494.168V156.664H547.601L573.518 198.747H608.446L578.013 153.621C601.257 146.666 609.727 128.635 609.727 102.125V102.138ZM545.872 128.642H494.174V74.2532H545.872C568.682 74.2532 577.803 78.3813 577.803 100.323V102.999C577.803 123.856 568.248 128.635 545.872 128.635V128.642Z" fill="white"/>
<path d="M1253.1 139.416V147.041C1253.1 165.722 1246.37 169.857 1231.82 169.857H1183.38C1168.82 169.857 1162.09 165.729 1162.09 147.041V97.2865C1162.09 78.3813 1168.4 74.2532 1183.38 74.2532H1231.82C1247.02 74.2532 1253.1 78.3813 1253.1 97.2865V102.572H1283.29V98.3711C1283.29 65.7801 1267.87 45.3564 1231.82 45.3564H1183.38C1147.32 45.3564 1131.9 65.7801 1131.9 98.3711V145.956C1131.9 178.33 1147.32 198.754 1183.38 198.754H1231.82C1267.88 198.754 1283.29 178.33 1283.29 145.956V139.416H1253.1Z" fill="white"/>
</svg>
