<svg fill="none" height="20" viewBox="0 0 21.0048 19.6899" width="21" xmlns="http://www.w3.org/2000/svg"><path d="m20.0192 17.7267c-.125 0-.2451.0241-.3534.0674l-3.3437-5.4518-3.6731 2.7283 1.5072-9.06066c.0529.00722.1058.01444.1587.01444.5409 0 .9808-.44028.9808-.98161s-.4399-.98161-.9808-.98161-.9808.44028-.9808.98161c0 .35607.19.66643.4712.83726l-3.2813 7.29227-1.60576-11.23796c.4303-.10345.7476-.4908.7476-.952734 0-.541328-.43988-.981606-.98077-.981606-.54081 0-.98076.440278-.98076.981606 0 .483594.35096.885374.81014.964774l-1.06975 11.25482-3.38461-7.01079c.28366-.17083.47356-.48361.47356-.83968 0-.54133-.4399-.98161-.98077-.98161-.54086 0-.98077.44028-.98077.98161s.43991.98162.98077.98162c.06251 0 .1226-.00722.1827-.01686l1.47596 8.41101-3.53846-4.8166c.17788-.17804.28846-.42341.28846-.6953 0-.54134-.43991-.98162-.980768-.98162-.540868 0-.980772.44028-.980772.98162s.439904.9816.980772.9816c.091348 0 .180288-.0144.264418-.0361-.00481.0072 0 .0097.00962.0048l3.83413 8.8634h7.21876l3.673-4.2104 3.315 3.2336c-.1563.1732-.2524.4042-.2524.6568 0 .5414.4398.9816.9807.9816s.9808-.4402.9808-.9816c0-.5413-.4399-.9816-.9808-.9816z" fill="#fff"/></svg>