<svg height="73" viewBox="0 0 478 73" width="478" xmlns="http://www.w3.org/2000/svg" xmlns:xlink="http://www.w3.org/1999/xlink"><filter id="a" color-interpolation-filters="auto"><feColorMatrix in="SourceGraphic" type="matrix" values="0 0 0 0 1.000000 0 0 0 0 1.000000 0 0 0 0 1.000000 0 0 0 1.000000 0"/></filter><filter id="b" color-interpolation-filters="auto"><feColorMatrix in="SourceGraphic" type="matrix" values="0 0 0 0 0.847000 0 0 0 0 0.847000 0 0 0 0 0.847000 0 0 0 1.000000 0"/></filter><g fill="none" fill-rule="evenodd" filter="url(#a)"><g filter="url(#b)"><path d="m49.4461128 57.3974854v4.957156l-16.3348766 9.2845754-16.3348765-9.2845754v-4.957156l16.3348765 9.2845755zm-7.0637304-4.4505411v5.0216825l-9.7126293 5.6596161-9.7126293-5.6596161v-5.0216825l9.7126293 5.6514375zm22.9571238-4.7991521v4.9502251l-13.0679013 7.4495244v-4.9502251l13.0188966-7.4495244zm-65.29050157 0 13.06790127 7.4495244v4.9502251l-13.06790127-7.4011509zm65.29050157-8.5524711v4.9261272l-19.4252586 11.0958207v-4.9261272l19.3766954-11.0958207zm-65.3395062 0 19.4252586 11.1130277v4.9089202l-19.4252586-11.0650578zm49.0046296.5789v4.9179761l-16.3348765 9.2715943-16.3348766-9.2393453v-4.9502251l16.3348766 9.2715943zm-36.6431014-11.2601986 20.8597657 11.9077176 19.7566841-11.2719873v5.0043385l-19.7566841 11.2719873-20.8597657-11.9077176zm-12.31252357 1.9321685 13.06790127 7.4495245v4.9744119l-13.06790127-7.4495245zm65.29050157-.1519521v4.9748832l-13.2444945 7.4866319v-4.9748831l13.1948276-7.486632zm-17.3476389-7.0637669 4.2797376 2.4186768-19.6018518 11.1500999-4.2797377-2.4186768zm17.3476389-.947207v5.0216825l-9.7126293 5.6596161v-5.0216825l9.6640661-5.6596161zm-35.2686728 2.6703247 4.3648523 2.3475381-8.8796422 4.7733276-4.3648523-2.3475382zm-30.0708334-2.6703247c2.94046 1.6504694 5.88920299 3.2451258 8.829663 4.8955952v4.8955952l-8.829663-4.8955952zm35.7407099-8.5340059 4.2797376 2.4186768-21.7580555 12.4239363-4.2797377-2.4186768zm17.3791785-2.1472927 4.2729211 2.4641357-20.482506 11.7775958-4.2405504-2.4317129zm-39.5129362 6.9927085 4.2797376 2.4186767-6.4931134 3.7005755-4.27973767-2.4186768zm47.4385926-2.5421674 4.2939614 2.4226736-9.8334994 5.5883003-4.2939614-2.4226735zm-46.8478214-6.2307575 4.3445689 2.5276355-14.19772337 8.1536631-4.34456893-2.5276356zm25.6356383-6.23075751 4.3149533 2.36928596-23.0570021 12.76255365-4.3149532-2.3692859zm6.3618573 3.56043286 4.1338601 2.60644125-7.3447018 4.5144245-4.1338601-2.5553346zm-13.5254659-7.55142535 4.2797376 2.44286354-15.20777 8.69917406-4.3287423-2.49929928z" fill="#000" transform="translate(0 .459549)"/></g><path d="m103.147 51c1.892 0 3.791167-.3153333 5.6975-.946s3.626333-1.5838333 5.16-2.8595 2.7735-2.8595 3.7195-4.7515 1.419-4.1136667 1.419-6.665c0-2.5226667-.473-4.7371667-1.419-6.6435s-2.185833-3.4973333-3.7195-4.773-3.253667-2.2288333-5.16-2.8595-3.8055-.946-5.6975-.946h-10.105v30.444zm-.86-2.752h-6.149v-24.94h6.149c2.293333 0 4.292833.3583333 5.9985 1.075s3.1175 1.6555 4.2355 2.8165 1.9565 2.4868333 2.5155 3.9775.8385 3.0243333.8385 4.601-.2795 3.1103333-.8385 4.601-1.3975 2.8165-2.5155 3.9775-2.529833 2.0998333-4.2355 2.8165-3.705167 1.075-5.9985 1.075zm20.851857 2.752 3.311-7.998h15.738l3.354 7.998h3.44l-13.072-30.444h-3.01l-13.158 30.444zm17.888-10.836h-13.416l6.708-16.168zm18.400857 10.836v-27.692h10.191v-2.752h-23.478v2.752h10.191v27.692zm10.746857 0 3.311-7.998h15.738l3.354 7.998h3.44l-13.072-30.444h-3.01l-13.158 30.444zm17.888-10.836h-13.416l6.708-16.168zm18.787857 11.61c1.347333 0 2.658833-.1863333 3.9345-.559s2.400833-.9388333 3.3755-1.6985 1.755833-1.72 2.3435-2.881.8815-2.5298333.8815-4.1065c0-1.5193333-.272333-2.7735-.817-3.7625s-1.247-1.8131667-2.107-2.4725-1.820333-1.1896667-2.881-1.591-2.107-.7596667-3.139-1.075c-.86-.2866667-1.669833-.5661667-2.4295-.8385s-1.419-.602-1.978-.989-1.003333-.86-1.333-1.419-.4945-1.2541667-.4945-2.0855c0-.86.179167-1.5981667.5375-2.2145s.824167-1.1323333 1.3975-1.548 1.211167-.7166667 1.9135-.903 1.3975-.2795 2.0855-.2795c1.29 0 2.451.2651667 3.483.7955s1.849 1.2111667 2.451 2.0425l3.01-2.924c-.946-1.0606667-2.193-1.9063333-3.741-2.537s-3.210667-.946-4.988-.946c-1.261333 0-2.5155.1648333-3.7625.4945s-2.365.8528333-3.354 1.5695-1.791667 1.6196667-2.408 2.709-.9245 2.3936667-.9245 3.913c0 1.4046667.229333 2.58.688 3.526s1.060667 1.7415 1.806 2.3865 1.591 1.1753333 2.537 1.591 1.906333.7668333 2.881 1.0535c.974667.3153333 1.899167.6235 2.7735.9245s1.641167.6665 2.3005 1.0965 1.1825.9531667 1.5695 1.5695.5805 1.3831667.5805 2.3005-.186333 1.6985-.559 2.3435-.852833 1.1825-1.4405 1.6125-1.239833.7453333-1.9565.946-1.433333.301-2.15.301c-1.404667 0-2.709-.3296667-3.913-.989s-2.164333-1.5193333-2.881-2.58l-3.311 2.795c1.175333 1.462 2.658833 2.5656667 4.4505 3.311s3.647833 1.118 5.5685 1.118zm29.838857 0c2.694667 0 5.002333-.5088333 6.923-1.5265s3.483-2.3435 4.687-3.9775l-3.397-2.322c-.917333 1.3186667-2.078333 2.322-3.483 3.01s-2.967 1.032-4.687 1.032c-1.748667 0-3.3325-.3153333-4.7515-.946s-2.623-1.4978333-3.612-2.6015-1.748667-2.4008333-2.279-3.8915-.7955-3.096-.7955-4.816c0-1.6626667.272333-3.2321667.817-4.7085s1.318667-2.7735 2.322-3.8915 2.2145-1.9995 3.6335-2.6445 3.017167-.9675 4.7945-.9675c1.576667 0 3.045833.3368333 4.4075 1.0105s2.415167 1.5265 3.1605 2.5585l3.354-2.58c-.573333-.774-1.261333-1.4548333-2.064-2.0425s-1.691333-1.0821667-2.666-1.4835-1.992333-.7023333-3.053-.903-2.107-.301-3.139-.301c-2.322 0-4.472.387-6.45 1.161s-3.690833 1.8561667-5.1385 3.2465-2.58 3.0673333-3.397 5.031-1.2255 4.1351667-1.2255 6.5145c0 2.3506667.401333 4.5078333 1.204 6.4715s1.9135 3.655 3.3325 5.074 3.110333 2.5226667 5.074 3.311 4.1065 1.1825 6.4285 1.1825zm19.002857-.774v-30.444h-4.257v30.444zm26.355857 0v-3.784h-15.91v-10.148h14.362v-3.655h-14.362v-9.116h15.265v-3.741h-19.522v30.444zm8.725857 0v-24.854h.086l16.082 24.854h5.375v-30.444h-4.257v24.338h-.086l-15.91-24.338h-5.547v30.444zm42.222857.774c2.694667 0 5.002333-.5088333 6.923-1.5265s3.483-2.3435 4.687-3.9775l-3.397-2.322c-.917333 1.3186667-2.078333 2.322-3.483 3.01s-2.967 1.032-4.687 1.032c-1.748667 0-3.3325-.3153333-4.7515-.946s-2.623-1.4978333-3.612-2.6015-1.748667-2.4008333-2.279-3.8915-.7955-3.096-.7955-4.816c0-1.6626667.272333-3.2321667.817-4.7085s1.318667-2.7735 2.322-3.8915 2.2145-1.9995 3.6335-2.6445 3.017167-.9675 4.7945-.9675c1.576667 0 3.045833.3368333 4.4075 1.0105s2.415167 1.5265 3.1605 2.5585l3.354-2.58c-.573333-.774-1.261333-1.4548333-2.064-2.0425s-1.691333-1.0821667-2.666-1.4835-1.992333-.7023333-3.053-.903-2.107-.301-3.139-.301c-2.322 0-4.472.387-6.45 1.161s-3.690833 1.8561667-5.1385 3.2465-2.58 3.0673333-3.397 5.031-1.2255 4.1351667-1.2255 6.5145c0 2.3506667.401333 4.5078333 1.204 6.4715s1.9135 3.655 3.3325 5.074 3.110333 2.5226667 5.074 3.311 4.1065 1.1825 6.4285 1.1825zm34.912857-.774v-3.784h-15.91v-10.148h14.362v-3.655h-14.362v-9.116h15.265v-3.741h-19.522v30.444zm6.360857.258c.688 0 1.247-.2365 1.677-.7095s.645-1.0105.645-1.6125-.215-1.1395-.645-1.6125-.989-.7095-1.677-.7095-1.247.2365-1.677.7095-.645 1.0105-.645 1.6125.215 1.1395.645 1.6125.989.7095 1.677.7095zm22.657857.516c1.376 0 2.6445-.1505 3.8055-.4515s2.221667-.7095 3.182-1.2255 1.806-1.118 2.537-1.806 1.3545-1.419 1.8705-2.193l-2.408-1.548c-1.060667 1.5766667-2.379333 2.7233333-3.956 3.44s-3.239333 1.075-4.988 1.075c-1.949333 0-3.705167-.3583333-5.2675-1.075s-2.888167-1.6841667-3.9775-2.9025-1.927833-2.6301667-2.5155-4.2355-.8815-3.2966667-.8815-5.074.286667-3.4686667.86-5.074 1.404667-3.0171667 2.494-4.2355 2.415167-2.1858333 3.9775-2.9025 3.3325-1.075 5.3105-1.075c.974667 0 1.884833.1146667 2.7305.344s1.626833.5303333 2.3435.903 1.340167.8026667 1.8705 1.29.953167.9746667 1.2685 1.462l2.58-1.892c-.516-.7453333-1.161-1.4118333-1.935-1.9995s-1.634-1.0893333-2.58-1.505-1.9565-.7381667-3.0315-.9675-2.1715-.344-3.2895-.344c-2.264667 0-4.3645.4013333-6.2995 1.204s-3.612 1.9135-5.031 3.3325-2.529833 3.1031667-3.3325 5.0525-1.204 4.085-1.204 6.407.394167 4.4576667 1.1825 6.407 1.884833 3.6335 3.2895 5.0525 3.081667 2.5298333 5.031 3.3325 4.070667 1.204 6.364 1.204zm29.236857 0c2.264667 0 4.3645-.4013333 6.2995-1.204s3.612-1.9135 5.031-3.3325 2.529833-3.1031667 3.3325-5.0525 1.204-4.085 1.204-6.407-.401333-4.4576667-1.204-6.407-1.9135-3.6335-3.3325-5.0525-3.096-2.5298333-5.031-3.3325-4.034833-1.204-6.2995-1.204-4.3645.4013333-6.2995 1.204-3.612 1.9135-5.031 3.3325-2.529833 3.1031667-3.3325 5.0525-1.204 4.085-1.204 6.407.401333 4.4576667 1.204 6.407 1.9135 3.6335 3.3325 5.0525 3.096 2.5298333 5.031 3.3325 4.034833 1.204 6.2995 1.204zm0-2.752c-1.949333 0-3.705167-.3583333-5.2675-1.075s-2.888167-1.677-3.9775-2.881-1.920667-2.6086667-2.494-4.214-.86-3.2966667-.86-5.074.286667-3.4686667.86-5.074 1.404667-3.0171667 2.494-4.2355 2.415167-2.1858333 3.9775-2.9025 3.318167-1.075 5.2675-1.075 3.705167.3583333 5.2675 1.075 2.888167 1.6841667 3.9775 2.9025 1.920667 2.6301667 2.494 4.2355.86 3.2966667.86 5.074-.286667 3.4686667-.86 5.074-1.404667 3.01-2.494 4.214-2.415167 2.1643333-3.9775 2.881-3.318167 1.075-5.2675 1.075zm24.205857 1.978v-26.445h.086l11.008 26.445h1.634l11.008-26.445h.086v26.445h3.096v-30.444h-4.73l-10.191 25.198h-.043l-10.32-25.198h-4.73v30.444z" fill="#000" fill-rule="nonzero"/></g></svg>