<svg fill="none" height="245" viewBox="0 0 1822 245" width="1822" xmlns="http://www.w3.org/2000/svg"><g fill="#fff"><path d="m94.4258 0c2.4511.00003314 4.9024.526147 7.1822 1.57129l77.202 35.42381c6.118 2.8069 10.042 8.9205 10.042 15.6582v93.3627c0 19.766-9.569 40.617-26.937 58.713-16.054 16.717-38.063 30.382-61.9697 38.474-1.7873.605-3.6534.907-5.5195.907-1.8663 0-3.7331-.302-5.5205-.907-23.9134-8.092-45.9148-21.757-61.9688-38.474-17.36837-18.096-26.9364654-38.947-26.9365-58.713v-93.3627c0-6.7311 3.92305-12.8513 10.041-15.6582l77.2022-35.42381c2.2802-1.045154 4.7314-1.57129 7.1826-1.57129zm.001 17.2285-77.2022 35.4238v93.3627c0 31.776 33.2981 66.011 77.2022 80.867v-.001c43.9032-14.863 77.2012-49.091 77.2012-80.866v-93.3627zm-.001 87.4535h-64.9063l-3.5478-20.5756h68.4541v-66.8779h.001v66.8779h68.4672l-3.548 20.5756h-64.9192v122.199h-.001zm-26.4883 15.808 14.9365 87.289c-4.3633-1.965-8.5363-4.148-12.4922-6.508l-13.8203-80.781zm50.6125 80.367c-3.956 2.4-8.142 4.609-12.512 6.607l14.884-86.986h11.382zm-74.5666-80.373 12.2432 71.558c-5.1192-4.128-9.7-8.578-13.6495-13.252l-9.9755-58.306zm102.4496 57.372c-3.943 4.792-8.543 9.361-13.708 13.608l12.143-70.98h11.382z"/><path d="m287.607 198.754v-153.3976h84.28c44.311 0 59.734 18.6883 59.734 54.9666v2.893c0 35.2-15.423 54.099-59.734 54.099h-54.084v41.432h-30.189zm81.888-70.112c22.369 0 31.931-4.779 31.931-25.637v-2.675c0-21.9421-9.122-26.0702-31.931-26.0702h-51.698v54.3882h51.698z"/><path d="m639.273 145.956v-47.5849c0-32.591 15.424-53.0147 51.481-53.0147h55.825c36.058 0 51.481 20.4237 51.481 53.0147v47.5849c0 32.374-15.423 52.798-51.481 52.798h-55.825c-36.057 0-51.481-20.424-51.481-52.798zm107.3 23.901c14.555 0 21.285-4.128 21.285-22.816v-49.7545c0-18.9052-6.086-23.0333-21.285-23.0333h-55.825c-14.99 0-21.285 4.1281-21.285 23.0333v49.7545c0 18.688 6.735 22.816 21.285 22.816z"/><path d="m871.102 198.754v-124.277h-52.348v-29.1137h134.886v29.1137h-52.348v124.277z"/><path d="m980.801 198.754v-153.3976h127.239l-4.98 28.8968h-92.29v33.4588h83.36v26.728h-83.36v35.417h92.29l4.98 28.897z"/><path d="m1356.06 198.754v-124.277h-52.35v-29.1137h134.89v29.1137h-52.35v124.277z"/><path d="m1821.14 74.4702v-29.1138h-41.51-30.19-41.51v29.1138h41.51v95.1638h-41.51v29.12h41.51 30.19 41.51v-29.12h-41.51v-95.1638z"/><path d="m1610.68 45.3564h-31.84l-73.98 153.3906h33.67l12.35-26.504h87.87l12.03 26.504h33.63zm-48.5 102.1186 32.8-70.6121 32.36 70.6121z"/><path d="m609.727 102.138v-1.374c0-36.7193-16.941-55.4076-61.469-55.4076h-84.279v153.3906h30.189v-42.083h53.433l25.917 42.083h34.928l-30.433-45.126c23.244-6.955 31.714-24.986 31.714-51.496zm-63.855 26.504h-51.698v-54.3888h51.698c22.81 0 31.931 4.1281 31.931 26.0698v2.676c0 20.857-9.555 25.636-31.931 25.636z"/><path d="m1253.1 139.416v7.625c0 18.681-6.73 22.816-21.28 22.816h-48.44c-14.56 0-21.29-4.128-21.29-22.816v-49.7545c0-18.9052 6.31-23.0333 21.29-23.0333h48.44c15.2 0 21.28 4.1281 21.28 23.0333v5.2855h30.19v-4.2009c0-32.591-15.42-53.0147-51.47-53.0147h-48.44c-36.06 0-51.48 20.4237-51.48 53.0147v47.5849c0 32.374 15.42 52.798 51.48 52.798h48.44c36.06 0 51.47-20.424 51.47-52.798v-6.54z"/></g></svg>