<svg fill="none" height="51" viewBox="0 0 178 51" width="178" xmlns="http://www.w3.org/2000/svg"><path clip-rule="evenodd" d="m166.63 38.3606c-5.056 0-5.743-4.782-4.891-7.632.802-2.682 4.369-9.694 5.919-14.203.58-1.685.541-2.534-.831-2.765-1.308-.22-2.426.074-3.066.317-2.079 8.294-8.874 24.283-19.501 24.283-3.926 0-7.132-2.458-7.803-7.299-1.968 2.86-5.689 7.299-9.835 7.299-5.056 0-4.526-4.782-3.674-7.632.403-1.346 1.267-4 2.313-7.152-1.92 2.445-4.536 5.173-7.338 7.322.088 4.072-1.302 6.061-3.323 6.969-4.155 1.869-7.771-1.509-7.753-4.068 4.023-1.362 7.016-3.211 7.016-3.211.146-3.108-1.334-6.824-2.548-10.334-2.568 7.153-9.021 18.106-15.919 18.106-3.622 0-4.377-2.455-4.2-4.895-2.247 2.437-5.2101 4.895-8.0241 4.895-3.618 0-4.375-2.449-4.201-4.886-2.135 2.434-4.9839 4.886-7.7949 4.886-5.056 0-5.318-4.393-4.341-7.632 1.207-3.996 4.134-8.194 5.684-12.702.58-1.686-.2361-2.765-1.6281-2.765-1.938 0-4.7439 2.114-6.9749 7.737 0 0-.0021-.006-.0041-.016l-5.188 15.378h-4.771l1.157-3.429c-1.909 1.867-4.175 3.429-6.418 3.429-5.056 0-4.5248-4.782-3.6738-7.632.573-1.916 1.6688-5.219 2.7988-8.555-3.181 3.739-6.7509 6.698-9.5339 8.72-.253.402-.5121.805-.7881 1.207-2.588 3.774-4.9248 6.104-6.9038 6.26-2.243.176-3.207-2.385-2.573-4.611 4.684-2.528 6.6218-4.385 6.6218-4.385 3.511-5.239 4.4311-13.473 1.9011-14.103-2.414-.602-4.847 2.918-6.522 7.737 0 0-.0009-.004-.0009-.006l-9.4031 27.55-4.9251.454 13.4981-39.55h4.532l-.5791 1.924c1.55-1.63 3.529-2.781 5.945-2.313 3.649.706 4.7869 6.731 2.1079 13.974 3.533-2.9 7.3242-7.149 10.3172-13.585h4.771l-6.5061 19.321s-1.203 3.372.884 3.372c3.893 0 7.8029-9.155 7.8359-9.233l4.5452-13.46h4.375l-.7261 2.669c1.831-1.714 4.0342-3.058 6.7452-3.058 3.598 0 5.1877 2.861 4.1337 6.337-1.49 4.917-9.9908 16.745-4.4248 16.745 4.108 0 8.2168-9.236 8.2168-9.236l.0061.02c2.891-8.749 7.742-22.95 7.742-22.95h4.771l-9.624 28.794s-1.203 3.372.884 3.372c3.91 0 8.449-9.236 8.449-9.236l.007.018c2.01-6.019 4.6189-13.475 4.6189-13.475h4.7712l-6.506 19.321s-1.203 3.372.884 3.372c1.942 0 4.236-2.182 6.349-5.132 2.958-4.126 5.562-9.756 6.354-13.012-.168-.817-.267-1.598-.264-2.33.02-4.745 5.088-4.283 5.423-2.594-1.899 3.836 1.05 9.914 2.142 15.305.113.562.207 1.095.285 1.607 4.995-4.073 9.254-10.05 10.914-14.26l.001-.003-6.499.004.657-2.278h6.611c1.613-4.761 2.883-8.48 2.883-8.48l5.11-.993-3.166 9.473h5.308l-.858 2.268-5.209.003-5.699 17.05s-1.203 3.372.884 3.372c2.699 0 6.354-5.334 7.952-7.894 1.073-7.381 6.063-15.188 12.48-15.188 3.873 0 5.513 2.252 5.304 5.615-.461 7.414-7.563 14.829-12.841 11.597-.013.28-.021.559-.021.839 0 3.366 1.94 5.031 4.884 5.031 6.262 0 14.027-12.436 13.188-25.85.646-1.189 4.903-1.14 4.903 1.729 0 .401-.054.943-.159 1.594 1.06-.212 2.719-.436 4.501-.263 3.581.347 4.563 2.918 3.337 6.336-1.192 3.322-4.57 9.547-5.243 13.082-.266 1.393.364 3.372 2.451 3.372 3.532 0 6.196-3.792 7.516-7.239 1.363 0 1.282 1.266.972 2.167-1.133 3.291-5.605 9.293-11.184 9.293zm-16.953-24.369c-2.446-.873-6.79 5.026-7.93 11.844 5.709 2.212 10.406-10.96 7.93-11.844zm-48.986-4.764c-1.3331-.558-1.739-2.602-.91-4.566.83-1.964 2.583-3.104 3.915-2.547 1.333.558 1.741 2.602.911 4.566-.83 1.965-2.583 3.105-3.916 2.547zm-47.1151 0c-1.333-.558-1.7399-2.602-.9099-4.566.829-1.964 2.5831-3.104 3.9151-2.547 1.332.558 1.7399 2.602.9099 4.566-.83 1.965-2.5831 3.105-3.9151 2.547zm-34.393 2.838c.348-.346 1.4851-2.68 1.6401-4.1.299-2.725-1.0439-3.938-2.5339-4.011-3.127-.154-5.1031 2.902-5.1031 6.98 0 7.685 7.118 8.753 7.024 17.651-.066 6.266-4.9692 11.014-11.88017 10.668-5.03-.251-8.32983-3.479-8.32983-8.359 0-5.632 5.41806-6.627 6.56006-5.49-1.491 1.903-2.93616 8.965 1.71484 9.966 3.288.708 7.463-2.392 6.303-8.433-1.388-7.233-6.84206-9.679-6.84206-17.081 0-6.951 6.62606-10.907 13.03706-9.612997 2.679.542 4.9762 2.391997 5.0062 5.985997.047 5.514-4.8072 7.03-6.5962 5.836z" fill="#fff" fill-rule="evenodd"/></svg>