<svg preserveAspectRatio="none" width="100%" height="100%" overflow="visible" style="display: block;" viewBox="0 0 228.293 124.39" fill="none" xmlns="http://www.w3.org/2000/svg">
<g id="Body">
<g id="Rectangle 37" filter="url(#filter0_di_61_835)">
<path d="M1.46341 108.293C1.46341 48.4843 49.9477 5.95465e-05 109.756 5.95465e-05H118.537C178.345 5.95465e-05 226.829 48.4843 226.829 108.293V111.699C226.829 115.548 223.875 118.729 220.032 118.938C205.317 119.74 167.487 121.463 114.146 121.463C60.8055 121.463 22.9756 119.74 8.26092 118.938C4.41762 118.729 1.46341 115.548 1.46341 111.699V108.293Z" fill="url(#paint0_linear_61_835)"/>
<path d="M1.46341 108.293C1.46341 48.4843 49.9477 5.95465e-05 109.756 5.95465e-05H118.537C178.345 5.95465e-05 226.829 48.4843 226.829 108.293V111.699C226.829 115.548 223.875 118.729 220.032 118.938C205.317 119.74 167.487 121.463 114.146 121.463C60.8055 121.463 22.9756 119.74 8.26092 118.938C4.41762 118.729 1.46341 115.548 1.46341 111.699V108.293Z" fill="url(#paint1_linear_61_835)" fill-opacity="0.2"/>
</g>
<g id="Line 9" filter="url(#filter1_d_61_835)">
<path d="M1.46341 97.3171C1.46341 97.3171 43.9024 99.5123 112.683 99.5123C181.463 99.5123 226.829 97.3171 226.829 97.3171" stroke="var(--stroke-0, black)" stroke-opacity="0.05" stroke-width="0.731707" shape-rendering="crispEdges"/>
</g>
<g id="Apple Logo">
<g id="Vector" filter="url(#filter2_dd_61_835)">
<path d="M118.72 20.4878C118.769 20.4878 118.817 20.5033 118.866 20.5033C119.157 22.004 118.607 23.1489 117.863 23.9689C117.103 24.8043 116.003 25.6243 114.175 25.516C114.062 23.9998 114.725 22.9323 115.518 22.0814C116.213 21.3078 117.475 20.6116 118.72 20.4878Z" fill="url(#paint2_linear_61_835)"/>
<path d="M118.72 20.4878C118.769 20.4878 118.817 20.5033 118.866 20.5033C119.157 22.004 118.607 23.1489 117.863 23.9689C117.103 24.8043 116.003 25.6243 114.175 25.516C114.062 23.9998 114.725 22.9323 115.518 22.0814C116.213 21.3078 117.475 20.6116 118.72 20.4878Z" fill="url(#paint3_radial_61_835)" fill-opacity="0.8"/>
<path d="M126.322 36.4542C126.322 36.4697 126.322 36.4852 126.322 36.5006C125.789 38.0633 124.964 39.4247 123.945 40.7243C123.023 41.8692 121.858 43.4163 119.756 43.4782C117.944 43.5092 116.715 42.5345 114.855 42.519C112.914 42.4881 111.83 43.339 110.019 43.5246C109.808 43.5092 109.598 43.5092 109.404 43.5092C108.078 43.2926 107.026 42.3952 106.25 41.5752C104.018 39.1153 102.384 35.9901 102.352 32.2924C102.384 31.9521 102.433 31.5962 102.465 31.2713C102.918 28.8578 104.746 27.156 106.832 26.3979C107.883 25.9801 109.274 25.6088 110.73 25.8254C111.361 25.9028 112.008 26.1039 112.558 26.2896C113.092 26.4597 113.771 26.7692 114.402 26.7537C114.839 26.7382 115.275 26.5526 115.712 26.3979C116.974 26.0111 118.187 25.5315 119.853 25.6862C121.874 25.8564 123.46 26.4597 124.559 27.4809C122.893 28.5174 121.6 29.9872 122.052 32.3698C122.441 34.5977 124.155 35.8199 126.322 36.4542Z" fill="url(#paint4_linear_61_835)"/>
<path d="M126.322 36.4542C126.322 36.4697 126.322 36.4852 126.322 36.5006C125.789 38.0633 124.964 39.4247 123.945 40.7243C123.023 41.8692 121.858 43.4163 119.756 43.4782C117.944 43.5092 116.715 42.5345 114.855 42.519C112.914 42.4881 111.83 43.339 110.019 43.5246C109.808 43.5092 109.598 43.5092 109.404 43.5092C108.078 43.2926 107.026 42.3952 106.25 41.5752C104.018 39.1153 102.384 35.9901 102.352 32.2924C102.384 31.9521 102.433 31.5962 102.465 31.2713C102.918 28.8578 104.746 27.156 106.832 26.3979C107.883 25.9801 109.274 25.6088 110.73 25.8254C111.361 25.9028 112.008 26.1039 112.558 26.2896C113.092 26.4597 113.771 26.7692 114.402 26.7537C114.839 26.7382 115.275 26.5526 115.712 26.3979C116.974 26.0111 118.187 25.5315 119.853 25.6862C121.874 25.8564 123.46 26.4597 124.559 27.4809C122.893 28.5174 121.6 29.9872 122.052 32.3698C122.441 34.5977 124.155 35.8199 126.322 36.4542Z" fill="url(#paint5_radial_61_835)" fill-opacity="0.8"/>
</g>
<mask id="mask0_61_835" style="mask-type:alpha" maskUnits="userSpaceOnUse" x="99" y="20" width="32" height="30">
<g id="apple-logo-svgrepo-com 2" clip-path="url(#clip0_61_835)">
<g id="Vector_2">
<path d="M118.72 20.4878C118.769 20.4878 118.817 20.5033 118.866 20.5033C119.157 22.004 118.607 23.1489 117.863 23.9689C117.103 24.8043 116.003 25.6243 114.175 25.516C114.062 23.9998 114.725 22.9323 115.518 22.0814C116.213 21.3078 117.475 20.6116 118.72 20.4878Z" fill="var(--fill-0, #797979)"/>
<path d="M126.322 36.4542C126.322 36.4697 126.322 36.4852 126.322 36.5006C125.789 38.0632 124.964 39.4247 123.945 40.7243C123.023 41.8692 121.858 43.4163 119.756 43.4782C117.944 43.5092 116.715 42.5345 114.855 42.519C112.914 42.4881 111.83 43.339 110.019 43.5246C109.808 43.5092 109.598 43.5092 109.404 43.5092C108.078 43.2926 107.026 42.3952 106.25 41.5752C104.018 39.1153 102.384 35.9901 102.352 32.2924C102.384 31.9521 102.433 31.5962 102.465 31.2713C102.918 28.8578 104.746 27.156 106.832 26.3979C107.883 25.9801 109.274 25.6088 110.73 25.8254C111.361 25.9028 112.008 26.1039 112.558 26.2896C113.092 26.4597 113.771 26.7692 114.402 26.7537C114.839 26.7382 115.275 26.5526 115.712 26.3979C116.974 26.0111 118.187 25.5315 119.853 25.6862C121.874 25.8564 123.46 26.4597 124.559 27.4809C122.893 28.5174 121.6 29.9872 122.052 32.3698C122.441 34.5977 124.155 35.8199 126.322 36.4542Z" fill="var(--fill-0, #797979)"/>
</g>
</g>
</mask>
<g mask="url(#mask0_61_835)">
<g id="Rectangle 44">
<path d="M96.6946 33.7368L105.941 25.3871C105.941 25.3871 109.867 28.9354 115.215 34.1515C120.564 39.3677 123.547 43.225 123.547 43.225L114.301 51.5748L96.6946 33.7368Z" fill="url(#paint6_linear_61_835)"/>
<path d="M96.6946 33.7368L105.941 25.3871C105.941 25.3871 109.867 28.9354 115.215 34.1515C120.564 39.3677 123.547 43.225 123.547 43.225L114.301 51.5748L96.6946 33.7368Z" fill="url(#paint7_linear_61_835)" fill-opacity="0.2"/>
</g>
</g>
</g>
<g id="Disk Drive" filter="url(#filter3_d_61_835)">
<rect x="45.3659" y="68.7805" width="137.561" height="23.4146" rx="11.7073" stroke="var(--stroke-0, black)" stroke-opacity="0.05" stroke-width="0.731707" shape-rendering="crispEdges"/>
</g>
<g id="Bottom holes" filter="url(#filter4_i_61_835)">
<path d="M85.5506 4.73961C84.4383 5.3463 82.9456 5.84269 82.2723 5.84269C81.5991 5.84269 82.0236 5.3463 83.1797 4.73961C84.3652 4.12189 85.7555 3.6586 86.3702 3.6586C86.9995 3.6586 86.6482 4.12189 85.5506 4.73961Z" fill="var(--fill-0, #DEE2E5)"/>
<path d="M92.7657 4.73961C91.9168 5.3463 90.5997 5.84269 89.8826 5.84269C89.1654 5.84269 89.385 5.3463 90.3509 4.73961C91.2875 4.12189 92.5315 3.6586 93.1608 3.6586C93.7755 3.6586 93.6291 4.12189 92.7657 4.73961Z" fill="var(--fill-0, #DEE2E5)"/>
<path d="M100.112 4.75064C99.5417 5.35733 98.4587 5.85372 97.7269 5.85372C96.9952 5.85372 96.9805 5.35733 97.6537 4.75064C98.327 4.13292 99.3368 3.6586 99.9807 3.6586C100.61 3.6586 100.669 4.13292 100.112 4.75064Z" fill="var(--fill-0, #DEE2E5)"/>
<path d="M107.518 4.75064C107.254 5.35733 106.435 5.85372 105.688 5.85372C104.957 5.85372 104.679 5.35733 105.03 4.75064C105.41 4.13292 106.201 3.6586 106.845 3.6586C107.474 3.6586 107.781 4.13292 107.518 4.75064Z" fill="var(--fill-0, #DEE2E5)"/>
<path d="M114.952 4.75064C115.011 5.35733 114.44 5.85372 113.694 5.85372C112.962 5.85372 112.406 5.35733 112.479 4.75064C112.538 4.13292 113.094 3.6586 113.738 3.6586C114.367 3.6586 114.923 4.13292 114.952 4.75064Z" fill="var(--fill-0, #DEE2E5)"/>
<path d="M122.431 4.75064C122.797 5.35733 122.489 5.85372 121.743 5.85372C120.982 5.85372 120.192 5.35733 119.928 4.75064C119.679 4.13292 119.987 3.6586 120.631 3.6586C121.275 3.6586 122.065 4.13292 122.431 4.75064Z" fill="var(--fill-0, #DEE2E5)"/>
<path d="M129.909 4.75064C130.583 5.35733 130.539 5.85372 129.807 5.85372C129.046 5.85372 127.978 5.35733 127.421 4.75064C126.851 4.13292 126.909 3.6586 127.553 3.6586C128.197 3.6586 129.236 4.13292 129.909 4.75064Z" fill="var(--fill-0, #DEE2E5)"/>
<path d="M137.432 4.75064C138.427 5.35733 138.617 5.85372 137.871 5.85372C137.11 5.85372 135.793 5.35733 134.914 4.75064C134.022 4.13292 133.875 3.6586 134.534 3.6586C135.178 3.6586 136.451 4.13292 137.432 4.75064Z" fill="var(--fill-0, #DEE2E5)"/>
<path d="M145.086 4.75064C146.315 5.35733 146.71 5.85372 145.964 5.85372C145.203 5.85372 143.652 5.35733 142.51 4.75064C141.354 4.13292 141.003 3.6586 141.676 3.6586C142.364 3.6586 143.886 4.13292 145.086 4.75064Z" fill="var(--fill-0, #DEE2E5)"/>
</g>
<g id="Top holes" filter="url(#filter5_i_61_835)">
<path d="M98.0429 1.36068C97.5908 1.53287 96.7215 1.70506 96.113 1.74196C95.487 1.79116 95.3827 1.68047 95.8869 1.50827C96.4259 1.32378 97.3126 1.15159 97.9038 1.10239C98.4602 1.06549 98.5297 1.17619 98.0429 1.36068Z" fill="var(--fill-0, #DEE2E5)"/>
<path d="M104.125 1.43448C103.83 1.60667 103.169 1.76656 102.647 1.77886C102.126 1.80346 101.987 1.68047 102.334 1.49597C102.7 1.32378 103.36 1.16389 103.847 1.13929C104.317 1.12699 104.438 1.24998 104.125 1.43448Z" fill="var(--fill-0, #DEE2E5)"/>
<path d="M109.519 1.40986C109.38 1.58205 108.858 1.72964 108.372 1.74194C107.885 1.75424 107.641 1.61895 107.833 1.44675C108.024 1.26226 108.528 1.11467 108.98 1.10237C109.415 1.10237 109.658 1.23766 109.519 1.40986Z" fill="var(--fill-0, #DEE2E5)"/>
<path d="M115.001 1.42214C115.001 1.59434 114.619 1.72963 114.149 1.74193C113.662 1.74193 113.297 1.59434 113.332 1.42214C113.367 1.24995 113.749 1.10236 114.184 1.10236C114.619 1.10236 114.984 1.23765 115.001 1.42214Z" fill="var(--fill-0, #DEE2E5)"/>
<path d="M119.693 1.42215C119.867 1.59434 119.588 1.72964 119.101 1.72964C118.615 1.72964 118.128 1.58205 118.006 1.40985C117.884 1.22536 118.145 1.09007 118.58 1.10237C119.032 1.10237 119.519 1.24996 119.693 1.42215Z" fill="var(--fill-0, #DEE2E5)"/>
<path d="M125.558 1.39756C125.888 1.56975 125.714 1.69275 125.193 1.68045C124.654 1.66815 124.028 1.52055 123.749 1.34836C123.471 1.16387 123.628 1.02857 124.097 1.05317C124.584 1.06547 125.245 1.21307 125.558 1.39756Z" fill="var(--fill-0, #DEE2E5)"/>
<path d="M131.872 1.49597C132.342 1.66817 132.203 1.77886 131.594 1.74196C130.986 1.70506 130.168 1.54517 129.751 1.37298C129.299 1.18849 129.386 1.06549 129.942 1.10239C130.499 1.13929 131.385 1.32378 131.872 1.49597Z" fill="var(--fill-0, #DEE2E5)"/>
</g>
</g>
<defs>
<filter id="filter0_di_61_835" x="4.65225e-08" y="5.95465e-05" width="228.293" height="127.317" filterUnits="userSpaceOnUse" color-interpolation-filters="sRGB">
<feFlood flood-opacity="0" result="BackgroundImageFix"/>
<feColorMatrix in="SourceAlpha" type="matrix" values="0 0 0 0 0 0 0 0 0 0 0 0 0 0 0 0 0 0 127 0" result="hardAlpha"/>
<feOffset dy="1.46341"/>
<feGaussianBlur stdDeviation="0.731707"/>
<feComposite in2="hardAlpha" operator="out"/>
<feColorMatrix type="matrix" values="0 0 0 0 0 0 0 0 0 0 0 0 0 0 0 0 0 0 0.25 0"/>
<feBlend mode="normal" in2="BackgroundImageFix" result="effect1_dropShadow_61_835"/>
<feBlend mode="normal" in="SourceGraphic" in2="effect1_dropShadow_61_835" result="shape"/>
<feColorMatrix in="SourceAlpha" type="matrix" values="0 0 0 0 0 0 0 0 0 0 0 0 0 0 0 0 0 0 127 0" result="hardAlpha"/>
<feOffset dy="5.85366"/>
<feGaussianBlur stdDeviation="2.92683"/>
<feComposite in2="hardAlpha" operator="arithmetic" k2="-1" k3="1"/>
<feColorMatrix type="matrix" values="0 0 0 0 1 0 0 0 0 1 0 0 0 0 1 0 0 0 0.52 0"/>
<feBlend mode="normal" in2="shape" result="effect2_innerShadow_61_835"/>
</filter>
<filter id="filter1_d_61_835" x="1.44495" y="96.9517" width="225.402" height="3.65808" filterUnits="userSpaceOnUse" color-interpolation-filters="sRGB">
<feFlood flood-opacity="0" result="BackgroundImageFix"/>
<feColorMatrix in="SourceAlpha" type="matrix" values="0 0 0 0 0 0 0 0 0 0 0 0 0 0 0 0 0 0 127 0" result="hardAlpha"/>
<feOffset dy="0.731707"/>
<feComposite in2="hardAlpha" operator="out"/>
<feColorMatrix type="matrix" values="0 0 0 0 1 0 0 0 0 1 0 0 0 0 1 0 0 0 0.25 0"/>
<feBlend mode="normal" in2="BackgroundImageFix" result="effect1_dropShadow_61_835"/>
<feBlend mode="normal" in="SourceGraphic" in2="effect1_dropShadow_61_835" result="shape"/>
</filter>
<filter id="filter2_dd_61_835" x="101.62" y="20.122" width="25.4341" height="24.5002" filterUnits="userSpaceOnUse" color-interpolation-filters="sRGB">
<feFlood flood-opacity="0" result="BackgroundImageFix"/>
<feColorMatrix in="SourceAlpha" type="matrix" values="0 0 0 0 0 0 0 0 0 0 0 0 0 0 0 0 0 0 127 0" result="hardAlpha"/>
<feOffset dy="0.365854"/>
<feGaussianBlur stdDeviation="0.365854"/>
<feComposite in2="hardAlpha" operator="out"/>
<feColorMatrix type="matrix" values="0 0 0 0 0 0 0 0 0 0 0 0 0 0 0 0 0 0 0.11 0"/>
<feBlend mode="normal" in2="BackgroundImageFix" result="effect1_dropShadow_61_835"/>
<feColorMatrix in="SourceAlpha" type="matrix" values="0 0 0 0 0 0 0 0 0 0 0 0 0 0 0 0 0 0 127 0" result="hardAlpha"/>
<feOffset/>
<feGaussianBlur stdDeviation="0.182927"/>
<feComposite in2="hardAlpha" operator="out"/>
<feColorMatrix type="matrix" values="0 0 0 0 0 0 0 0 0 0 0 0 0 0 0 0 0 0 0.15 0"/>
<feBlend mode="normal" in2="effect1_dropShadow_61_835" result="effect2_dropShadow_61_835"/>
<feBlend mode="normal" in="SourceGraphic" in2="effect2_dropShadow_61_835" result="shape"/>
</filter>
<filter id="filter3_d_61_835" x="45" y="68.4147" width="138.293" height="24.878" filterUnits="userSpaceOnUse" color-interpolation-filters="sRGB">
<feFlood flood-opacity="0" result="BackgroundImageFix"/>
<feColorMatrix in="SourceAlpha" type="matrix" values="0 0 0 0 0 0 0 0 0 0 0 0 0 0 0 0 0 0 127 0" result="hardAlpha"/>
<feOffset dy="0.731707"/>
<feComposite in2="hardAlpha" operator="out"/>
<feColorMatrix type="matrix" values="0 0 0 0 1 0 0 0 0 1 0 0 0 0 1 0 0 0 0.25 0"/>
<feBlend mode="normal" in2="BackgroundImageFix" result="effect1_dropShadow_61_835"/>
<feBlend mode="normal" in="SourceGraphic" in2="effect1_dropShadow_61_835" result="shape"/>
</filter>
<filter id="filter4_i_61_835" x="81.9512" y="3.6586" width="64.3903" height="2.19512" filterUnits="userSpaceOnUse" color-interpolation-filters="sRGB">
<feFlood flood-opacity="0" result="BackgroundImageFix"/>
<feBlend mode="normal" in="SourceGraphic" in2="BackgroundImageFix" result="shape"/>
<feColorMatrix in="SourceAlpha" type="matrix" values="0 0 0 0 0 0 0 0 0 0 0 0 0 0 0 0 0 0 127 0" result="hardAlpha"/>
<feOffset dy="0.731707"/>
<feComposite in2="hardAlpha" operator="arithmetic" k2="-1" k3="1"/>
<feColorMatrix type="matrix" values="0 0 0 0 0 0 0 0 0 0 0 0 0 0 0 0 0 0 0.12 0"/>
<feBlend mode="multiply" in2="shape" result="effect1_innerShadow_61_835"/>
</filter>
<filter id="filter5_i_61_835" x="95.5671" y="1.05028" width="36.5854" height="0.731707" filterUnits="userSpaceOnUse" color-interpolation-filters="sRGB">
<feFlood flood-opacity="0" result="BackgroundImageFix"/>
<feBlend mode="normal" in="SourceGraphic" in2="BackgroundImageFix" result="shape"/>
<feColorMatrix in="SourceAlpha" type="matrix" values="0 0 0 0 0 0 0 0 0 0 0 0 0 0 0 0 0 0 127 0" result="hardAlpha"/>
<feOffset dy="0.365854"/>
<feComposite in2="hardAlpha" operator="arithmetic" k2="-1" k3="1"/>
<feColorMatrix type="matrix" values="0 0 0 0 0 0 0 0 0 0 0 0 0 0 0 0 0 0 0.25 0"/>
<feBlend mode="normal" in2="shape" result="effect1_innerShadow_61_835"/>
</filter>
<linearGradient id="paint0_linear_61_835" x1="114.146" y1="5.95465e-05" x2="114.146" y2="118.537" gradientUnits="userSpaceOnUse">
<stop stop-color="white"/>
<stop offset="1" stop-color="#EEEEEE"/>
</linearGradient>
<linearGradient id="paint1_linear_61_835" x1="65.8537" y1="25.6098" x2="215.854" y2="94.3903" gradientUnits="userSpaceOnUse">
<stop stop-opacity="0"/>
<stop offset="1"/>
</linearGradient>
<linearGradient id="paint2_linear_61_835" x1="124.231" y1="23.0439" x2="114.708" y2="34.3277" gradientUnits="userSpaceOnUse">
<stop stop-color="#35393C"/>
<stop offset="1" stop-color="#212B2D"/>
</linearGradient>
<radialGradient id="paint3_radial_61_835" cx="0" cy="0" r="1" gradientTransform="matrix(7.34889 -8.30744 8.64422 6.99632 116.214 40.2979)" gradientUnits="userSpaceOnUse">
<stop stop-color="#617A80"/>
<stop offset="1" stop-color="#1F2729"/>
</radialGradient>
<linearGradient id="paint4_linear_61_835" x1="124.231" y1="23.0439" x2="114.708" y2="34.3277" gradientUnits="userSpaceOnUse">
<stop stop-color="#35393C"/>
<stop offset="1" stop-color="#212B2D"/>
</linearGradient>
<radialGradient id="paint5_radial_61_835" cx="0" cy="0" r="1" gradientTransform="matrix(7.34889 -8.30744 8.64422 6.99632 116.214 40.2979)" gradientUnits="userSpaceOnUse">
<stop stop-color="#617A80"/>
<stop offset="1" stop-color="#1F2729"/>
</radialGradient>
<linearGradient id="paint6_linear_61_835" x1="109.529" y1="38.5877" x2="114.802" y2="33.7051" gradientUnits="userSpaceOnUse">
<stop stop-color="#EBECEE"/>
<stop offset="1" stop-color="#FAFBFD"/>
</linearGradient>
<linearGradient id="paint7_linear_61_835" x1="101.491" y1="29.4055" x2="118.272" y2="47.9884" gradientUnits="userSpaceOnUse">
<stop stop-color="#FAFAFA"/>
<stop offset="1" stop-color="#EBEFF2"/>
</linearGradient>
<clipPath id="clip0_61_835">
<rect width="30.7317" height="29.3955" fill="white" transform="translate(99.5122 20.4879)"/>
</clipPath>
</defs>
</svg>
